<?xml version="1.0" encoding="utf-8"?>
<!-- Generator: Adobe Illustrator 23.0.6, SVG Export Plug-In . SVG Version: 6.00 Build 0)  -->
<svg version="1.1" id="Layer_1" xmlns="http://www.w3.org/2000/svg" xmlns:xlink="http://www.w3.org/1999/xlink" x="0px" y="0px"
	 viewBox="0 0 1000 800" style="enable-background:new 0 0 1000 800;" xml:space="preserve">
<style type="text/css">
	.st0{fill:#3F4156;}
	.st1{display:none;}
	.st2{display:inline;}
	.st3{fill:#E43E3C;}
	.st4{fill:none;}
	.st5{fill:#7E1416;}
	.st6{fill:#A02B2A;}
	.st7{fill:#E43E3B;}
</style>
<rect x="1.2" class="st0" width="998.8" height="800"/>
<g class="st1">
	<g class="st2">
		<path class="st3" d="M514.4,166.3c-181.3-14.5-335.9,90.1-335.9,90.1l31.9,454.1H773L815.1,309C815.2,309,695.8,180.8,514.4,166.3
			z"/>
	</g>
	<g class="st2">
		<path class="st4" d="M253.5,655.1c0,0,451.7,1.9,505.5,2.5l30.6-306.3l-558.3-41.5C231.3,309.6,251.4,631.6,253.5,655.1z"/>
		<path class="st4" d="M449.4,203.6c-96.5,8.3-177.1,42.2-230.3,69.4l564.4,42.5c-64.6-50.4-117.8-80.2-166.3-96.2
			C573.8,219.7,498,212.4,449.4,203.6z"/>
		<path class="st5" d="M770,272.7c-38.5-25.3-76.9-49.3-155.3-81c-0.9-0.4-1.9-0.9-2.8-1.3c-20.1-13.3-22.9-22.6-22.3-27.6
			c1.7-14.5,32.9-24.6,43.7-27l3.8-0.9l4.7-40.6c0,0-15.8-13.5-70.3-22.6s-94.7,0-94.7,0l-6.2,40.4l3.5,1.9
			c9.8,5.2,37.1,23.3,35,37.8c-0.6,3.5-3.2,8.4-12.6,13.7c-6.2,2.4-14.5,4.6-25.4,6.5C315.5,182.7,188,254.7,149.3,288.9l39.4,3
			c-0.6,2.1-0.8,4.3-0.6,6.6c0,0,25.9,366.6,27.6,382.1c0.9,7.8,7.4,13.6,15.1,13.6l547-10.2c2.5-0.1,4.6-1.9,5-4.4
			c0,0,36.8-309.3,40.2-338.7l29.8,2.2C853.2,343.1,823.7,307.9,770,272.7z M219.1,273.2c53.2-27.3,133.9-61.1,230.3-69.4
			c34.8-3,71.7-2.7,110.1,2.4c18.7,2.5,37.8,6.7,57.6,13.4c48.5,16.1,101.7,45.8,166.3,96.2L219.1,273.2z M759,657.6
			c-53.9-0.7-505.5-2.5-505.5-2.5c-2.1-23.5-22.2-345.4-22.2-345.4l558.3,41.5L759,657.6z"/>
	</g>
</g>
<g>
	<g>
		<path class="st6" d="M714.3,159.9L714.3,159.9L714.3,159.9L714.3,159.9z"/>
	</g>
</g>
<g>
	<g>
		<path class="st7" d="M519.4,167.2c-164.7-13.3-302.1,84.1-302.1,84.1l26,413.4h510.9l34.2-365.4
			C788.5,299.2,684,180.4,519.4,167.2z"/>
	</g>
	<path class="st6" d="M801.6,322.8L784.3,309c-13.9-14.3-73.7-73.8-165-107.5c-0.7-1.2-3.4-2.8-8.4-4.8c-78.8-38-1.8-54.8-1.8-54.8
		l2.7-22.6c0,0-25.8-11.1-52.6-14.4c-0.1,0-0.3,0-0.4,0c-0.1,0-0.2,0-0.3,0c-26.8-4-54.5-0.2-54.5-0.2l-3.5,22.5
		c0,0,64.6,34.1-7.6,50.6c-4.2-0.1-8.4-0.2-12.7-0.2c-131.9,0-238.8,71.1-259.2,84.8l-18.9,10.6l29.3,2.4L253,654.8h489.6L771,320.3
		L801.6,322.8z M265.4,641.5l-20.6-365.1l511.5,42.7l-25.8,322.5H265.4z M247.3,263.3c38.7-21.2,127.6-69.4,233-69.4
		c12.6,0,25.1,0.5,37.2,1.5c3.2,0.3,6.4,0.6,9.6,0.9c7.7,1.2,15.8,2.4,23.8,3.4c100.7,18.2,172.8,77.4,205.3,104.1
		c0.9,0.7,1.8,1.4,2.6,2.1L247.3,263.3z"/>
</g>
</svg>
