<svg width="600" height="360" viewBox="0 0 600 360" fill="none" xmlns="http://www.w3.org/2000/svg">
<path fill-rule="evenodd" clip-rule="evenodd" d="M480.049 204.644L465.772 218.913C464.739 220.123 463.651 221.302 462.506 222.446C446.423 238.52 423.476 243.555 403.094 237.55C393.722 234.825 384.884 229.77 377.494 222.385C376.649 221.54 375.834 220.677 375.05 219.796L360.147 204.9V300C360.147 333.137 333.284 360 300.147 360C267.01 360 240.147 333.137 240.147 300L240.147 64.2035C238.977 47.4944 244.783 30.3887 257.563 17.6148C264.163 11.0188 271.918 6.28165 280.178 3.40339C286.425 1.19919 293.146 1.57456e-06 300.147 1.19202e-06C318.363 1.96701e-07 334.683 8.11776 345.687 20.933L419.97 95.175L497.633 17.5539C521.051 -5.85132 559.019 -5.85127 582.437 17.5539C605.855 40.9591 605.855 78.9064 582.437 102.312L480.049 204.644Z" fill="#038187"/>
<rect x="480" y="360" width="360" height="120" rx="60" transform="rotate(-90 480 360)" fill="#038187"/>
<path fill-rule="evenodd" clip-rule="evenodd" d="M480 204.693L480.049 204.644L582.437 102.312C594.113 90.6413 599.968 75.3554 600 60.0596V60C600 26.8689 573.147 0.00965367 540.018 0C524.677 0.00429987 509.338 5.85558 497.633 17.5539L496.304 18.882C486.195 29.6211 480 44.0871 480 60L480 204.644L480 204.693Z" fill="#0E4749"/>
<path fill-rule="evenodd" clip-rule="evenodd" d="M60 0C26.8629 0 0 26.8629 0 60C0 60.0081 1.59116e-06 60.0161 4.77319e-06 60.0242L8.96576e-06 179.967L0 180L8.96808e-06 180.033L1.31601e-05 299.96L1.31615e-05 300C1.33063e-05 304.142 0.419747 308.186 1.219 312.092C6.81378 339.433 31.0051 360 60 360H300C333.137 360 360 333.137 360 300C360 266.863 333.137 240 300 240H120C153.137 240 180 213.137 180 180C180 146.863 153.137 120 120 120H180C213.137 120 240 93.1371 240 60C240 26.8629 213.137 0 180 0H60Z" fill="#038187"/>
<path fill-rule="evenodd" clip-rule="evenodd" d="M240 240L240 300C240 333.111 266.821 359.959 299.923 360C333.028 359.962 359.853 333.114 359.853 300C359.853 266.863 332.99 240 299.853 240H240Z" fill="#0E4749"/>
<path fill-rule="evenodd" clip-rule="evenodd" d="M60 0C26.8629 0 0 26.8629 0 60C0 60.0081 1.59116e-06 60.0161 4.77319e-06 60.0242C0.013076 93.1502 26.871 120 60 120H120L120 60C120 26.8629 93.1371 0 60 0Z" fill="#0E4749"/>
</svg>
