<?xml version="1.0" encoding="utf-8"?>
<!-- Generator: Adobe Illustrator 23.0.6, SVG Export Plug-In . SVG Version: 6.00 Build 0)  -->
<svg version="1.1" id="Capa_1" xmlns="http://www.w3.org/2000/svg" xmlns:xlink="http://www.w3.org/1999/xlink" x="0px" y="0px"
	 viewBox="0 0 201.8 158.9" style="enable-background:new 0 0 201.8 158.9;" xml:space="preserve">
<style type="text/css">
	.st0{fill:#3B3A36;}
</style>
<path class="st0" d="M181,0H20.8C9.3,0,0,10,0,22.2v114.5c0,12.3,9.3,22.2,20.8,22.2H181c11.5,0,20.8-10,20.8-22.2V22.2
	C201.8,10,192.5,0,181,0z M16.3,29.5l51,51.2l-51,51V29.5z M104,88c-1.8,1.8-4.6,1.8-6.4,0L26,16.3h149.7L104,88z M78.8,92.2
	l7.3,7.3c4.1,4.1,9.4,6.1,14.7,6.1c5.3,0,10.7-2,14.7-6.1l9.1-9.1l52.2,52.2H28.4L78.8,92.2z M136.1,78.9l49.4-49.4v98.8L136.1,78.9
	z"/>
</svg>
