<?xml version="1.0" encoding="utf-8"?>
<!-- Generator: Adobe Illustrator 16.0.0, SVG Export Plug-In . SVG Version: 6.00 Build 0)  -->
<!DOCTYPE svg PUBLIC "-//W3C//DTD SVG 1.1//EN" "http://www.w3.org/Graphics/SVG/1.1/DTD/svg11.dtd">
<svg version="1.1" id="Layer_1" xmlns="http://www.w3.org/2000/svg" xmlns:xlink="http://www.w3.org/1999/xlink" x="0px" y="0px"
	 width="200px" height="200px" viewBox="0 0 200 200" enable-background="new 0 0 200 200" xml:space="preserve">
<path fill="#81BBB0" d="M100,0C44.751,0,0,45.882,0,102.529c0,45.371,28.624,83.689,68.374,97.277
	c5.001,0.889,6.877-2.188,6.877-4.877c0-2.432-0.125-10.506-0.125-19.096C50,180.584,43.499,169.555,41.5,163.791
	c-1.126-2.947-5.999-12.043-10.25-14.482c-3.501-1.924-8.5-6.666-0.125-6.795c7.875-0.129,13.5,7.432,15.374,10.506
	c9.001,15.514,23.378,11.158,29.126,8.461c0.875-6.656,3.501-11.148,6.375-13.709c-22.249-2.561-45.501-11.406-45.501-50.625
	c0-11.149,3.875-20.379,10.25-27.556c-1.001-2.564-4.499-13.074,1.001-27.17c0,0,8.374-2.693,27.5,10.51
	c7.998-2.307,16.5-3.461,25-3.461c8.496,0,16.999,1.155,25,3.461c19.127-13.328,27.497-10.51,27.497-10.51
	c5.497,14.096,2.002,24.606,1.005,27.17C160.128,76.767,164,85.868,164,97.146c0,39.346-23.375,48.065-45.627,50.625
	c3.628,3.203,6.753,9.354,6.753,18.967c0,13.717-0.126,24.73-0.126,28.191c0,2.689,1.876,5.895,6.878,4.877
	C171.373,186.219,200,147.771,200,102.529C200,45.882,155.245,0,100,0z"/>
</svg>
