<?xml version="1.0" encoding="utf-8"?>
<!-- Generator: Adobe Illustrator 16.0.0, SVG Export Plug-In . SVG Version: 6.00 Build 0)  -->
<!DOCTYPE svg PUBLIC "-//W3C//DTD SVG 1.1//EN" "http://www.w3.org/Graphics/SVG/1.1/DTD/svg11.dtd">
<svg version="1.1" id="Layer_1" xmlns="http://www.w3.org/2000/svg" xmlns:xlink="http://www.w3.org/1999/xlink" x="0px" y="0px"
	 width="200px" height="200px" viewBox="-86 -86 200 200" enable-background="new -86 -86 200 200" xml:space="preserve">
<path fill="#3b3a36" d="M14-86.345c-55.249,0-100,45.882-100,102.529c0,45.371,28.624,83.69,68.374,97.278
	c5.001,0.887,6.877-2.188,6.877-4.877c0-2.432-0.125-10.507-0.125-19.096C-36,94.238-42.501,83.21-44.5,77.445
	c-1.126-2.946-5.999-12.043-10.25-14.482c-3.501-1.924-8.5-6.665-0.125-6.794C-47,56.04-41.375,63.6-39.501,66.675
	c9.001,15.513,23.378,11.157,29.126,8.461C-9.5,68.478-6.874,63.986-4,61.426c-22.249-2.561-45.501-11.407-45.501-50.625
	c0-11.149,3.875-20.379,10.25-27.556c-1.001-2.564-4.499-13.074,1.001-27.17c0,0,8.374-2.693,27.5,10.51
	c7.998-2.307,16.5-3.461,25-3.461c8.496,0,16.999,1.155,25,3.461c19.127-13.328,27.497-10.51,27.497-10.51
	c5.497,14.096,2.002,24.606,1.005,27.17C74.128-9.578,78-0.477,78,10.801c0,39.346-23.375,48.064-45.627,50.625
	c3.628,3.204,6.753,9.354,6.753,18.967c0,13.717-0.126,24.73-0.126,28.192c0,2.688,1.876,5.893,6.878,4.877
	C85.373,99.874,114,61.426,114,16.184C114-40.463,69.245-86.345,14-86.345z"/>
</svg>
