<svg width="180" height="180" viewBox="0 0 180 180" fill="none" xmlns="http://www.w3.org/2000/svg">
<path fill-rule="evenodd" clip-rule="evenodd" d="M90 180C139.706 180 180 139.706 180 90C180 40.2944 139.706 0 90 0C40.2944 0 0 40.2944 0 90C0 139.706 40.2944 180 90 180ZM73.8927 128.581L73.9221 128.613L73.9528 128.644C75.0724 129.764 76.4923 130.31 78.067 130.31C79.3399 130.31 80.5532 129.962 81.5664 129.152C82.4611 128.436 83.1075 127.518 83.4715 126.431L83.4744 126.422L107.322 56.6798L107.324 56.6725C107.538 56.0326 107.697 55.3525 107.697 54.69C107.697 53.1549 107.138 51.787 106.061 50.6962C104.984 49.539 103.567 49 102.007 49C100.734 49 99.5209 49.3476 98.5076 50.1583C97.6126 50.8743 96.9661 51.7928 96.6021 52.8801L96.5997 52.8875L72.7521 122.63L72.7497 122.638C72.5364 123.277 72.377 123.957 72.377 124.62C72.377 126.116 72.8785 127.475 73.8927 128.581ZM23.4048 99.9774L59.3888 116.121L59.4478 116.143C60.1369 116.401 60.8543 116.54 61.59 116.54C63.0863 116.54 64.4525 116.036 65.5242 114.964C66.62 113.868 67.19 112.489 67.19 110.94C67.19 109.771 66.7999 108.706 66.0988 107.796C65.4691 106.844 64.608 106.129 63.553 105.684L35.2844 93.12L63.5528 80.5563C64.5832 80.1223 65.4519 79.4486 66.0978 78.5321C66.7856 77.5812 67.19 76.492 67.19 75.3C67.19 73.7763 66.6361 72.4145 65.5251 71.3649C64.4755 70.2539 63.1137 69.7 61.59 69.7C60.8543 69.7 60.1369 69.8389 59.4478 70.0974L59.3888 70.1195L23.4048 86.2626L23.3884 86.2704C22.0879 86.8824 20.9995 87.7538 20.1825 88.8975L20.174 88.9095L20.1656 88.9216C19.3764 90.0616 19 91.3654 19 92.76V93.48C19 94.8748 19.3756 96.1817 20.1276 97.3515L20.1733 97.4225L20.2248 97.4894C21.0454 98.5563 22.1225 99.3739 23.3884 99.9696L23.4048 99.9774ZM114.394 114.966L114.335 114.901C113.321 113.795 112.819 112.436 112.819 110.94C112.819 109.802 113.16 108.743 113.811 107.813L113.821 107.798L113.832 107.784C114.512 106.848 115.392 106.132 116.456 105.684L144.725 93.12L116.457 80.5564C115.442 80.129 114.576 79.4792 113.888 78.6194L113.82 78.535L113.762 78.4438C113.156 77.4917 112.819 76.4332 112.819 75.3C112.819 73.8038 113.323 72.4375 114.395 71.3658C115.491 70.27 116.87 69.7 118.419 69.7C119.182 69.7 119.937 69.8275 120.647 70.1317L120.663 70.1383L156.605 86.2626L156.621 86.2704C157.91 86.8769 158.98 87.7481 159.746 88.9081C160.591 90.0361 161.009 91.3446 161.009 92.76V93.48C161.009 94.9172 160.579 96.2484 159.746 97.4203C158.971 98.5343 157.895 99.3701 156.621 99.9696L156.605 99.9774L120.663 116.102L120.647 116.108C119.937 116.413 119.182 116.54 118.419 116.54C116.923 116.54 115.564 116.039 114.458 115.024L114.394 114.966Z" fill="white"/>
</svg>
