<svg width="160" height="160" viewBox="0 0 160 160" fill="none" xmlns="http://www.w3.org/2000/svg">
<path d="M44.5491 99.9V92.867H58.4499L62.977 66.8131H49.1938V59.6203H64.2088L67.8925 37.0829H76.4089L72.565 59.6203H94.159L97.8427 37.0829H106.352L102.669 59.6203H115.501V66.8131H101.44L96.9125 92.867H110.856V99.9H95.8385L91.9946 122.917H83.6441L87.488 99.9H65.8883L62.0444 122.917H53.7004L57.3841 99.9H44.5491ZM92.938 66.8131H71.1768L66.9515 92.867H88.7127L92.938 66.8131Z" fill="white"/>
<path fill-rule="evenodd" clip-rule="evenodd" d="M80 160C108.582 160 134.991 144.753 149.282 120C163.573 95.2472 163.573 64.7528 149.282 40C134.991 15.2472 108.582 3.57628e-06 80 3.57628e-06C51.4182 3.57628e-06 25.0091 15.2472 10.7182 40C-3.57273 64.7528 -3.57273 95.2472 10.7182 120C25.0091 144.753 51.4182 160 80 160V152.325C54.1606 152.325 30.2844 138.539 17.3633 116.162C4.44211 93.786 4.44211 66.214 17.3633 43.8376C30.2844 21.4613 54.1606 7.67528 80 7.67528C105.839 7.67528 129.716 21.4613 142.637 43.8376C155.558 66.214 155.558 93.786 142.637 116.162C129.716 138.539 105.839 152.325 80 152.325V160Z" fill="white"/>
</svg>
