<svg width="160" height="157" viewBox="0 0 160 157" fill="none" xmlns="http://www.w3.org/2000/svg">
<path d="M59.7584 31.4401C61.9216 31.4401 63.6752 29.6865 63.6752 27.5233C63.6752 25.3601 61.9216 23.6064 59.7584 23.6064C57.5952 23.6064 55.8416 25.3601 55.8416 27.5233C55.8416 29.6865 57.5952 31.4401 59.7584 31.4401Z" fill="white"/>
<path d="M83.2552 31.4401C85.4184 31.4401 87.1721 29.6865 87.1721 27.5233C87.1721 25.3601 85.4184 23.6064 83.2552 23.6064C81.092 23.6064 79.3384 25.3601 79.3384 27.5233C79.3384 29.6865 81.092 31.4401 83.2552 31.4401Z" fill="white"/>
<path d="M71.2185 40.4231C71.2985 40.4884 71.3742 40.531 71.4403 40.531C71.4586 40.531 71.4864 40.5197 71.5073 40.5171C71.5282 40.5197 71.556 40.531 71.5743 40.531C71.6404 40.531 71.7161 40.4884 71.7962 40.4231C73.1404 39.8167 76.5535 36.5776 76.5535 35.397C76.5535 34.2721 74.9979 33.5186 71.59 33.496C71.5848 33.496 71.5804 33.4934 71.5743 33.4934C71.5517 33.4934 71.5299 33.4943 71.5073 33.4943C71.4847 33.4943 71.463 33.4934 71.4403 33.4934C71.4342 33.4934 71.4299 33.496 71.4238 33.496C68.0168 33.5178 66.4612 34.2721 66.4612 35.397C66.4612 36.5776 69.8734 39.8167 71.2185 40.4231Z" fill="white"/>
<path d="M141.174 59.8037C141.156 57.2806 141.121 51.6446 141.132 49.2381C141.134 48.8692 141.133 48.5012 141.132 48.1341C141.127 45.4857 141.123 42.9853 141.874 40.5544C142.358 38.9875 143.541 36.2704 146.034 35.6849C146.468 35.5831 146.9 35.5057 147.319 35.43C148.62 35.1968 149.965 34.9558 151.406 34.0145C153.397 32.7138 153.638 30.6013 153.2 29.0579C152.765 27.5319 151.581 26.4774 150.03 26.2356C149.216 26.1085 148.396 26.0424 147.593 26.0424C143.216 26.0424 139.135 27.9347 135.792 31.5123C132.874 34.6391 131.608 38.2628 131.562 43.6291C131.548 45.0864 131.548 52.9436 131.55 57.3737C130.652 57.2954 129.745 57.2476 128.826 57.2476C126.305 57.2476 123.787 57.5556 121.331 58.1628C117.378 48.8536 109.373 42.2223 99.8309 39.9489V35.0846C105.384 36.2113 112.418 39.0641 117.246 46.1017C117.414 46.347 117.687 46.4802 117.964 46.4802C118.134 46.4802 118.305 46.4306 118.455 46.327C118.851 46.0556 118.951 45.5136 118.68 45.1168C113.44 37.478 105.778 34.4773 99.8309 33.3297V30.7553C102.097 29.9941 104.607 29.3233 107.125 29.0005C114.088 28.1087 120.235 28.77 121.212 29.2372C121.647 29.446 122.165 29.2615 122.372 28.8282C122.579 28.395 122.396 27.8747 121.963 27.6676C120.437 26.9377 113.651 26.4078 106.903 27.2744C104.471 27.5858 102.047 28.2053 99.83 28.9222V4.40319C99.8274 4.2927 99.7604 1.68959 97.9299 0.622067C97.2226 0.208806 96.4891 0 95.7522 0C94.1505 0 93.1274 0.971817 93.0351 1.06491L81.9763 11.433H61.0348L49.9968 1.08318C49.8854 0.972687 48.8623 0.000869546 47.2597 0.000869546C46.5228 0.000869546 45.7902 0.209675 45.082 0.622937C43.2515 1.69046 43.1845 4.29357 43.1819 4.41885V28.9231C40.9659 28.207 38.5421 27.5876 36.1095 27.2752C29.3598 26.4096 22.5745 26.9385 21.0494 27.6685C20.6152 27.8756 20.4325 28.3958 20.6404 28.8291C20.8484 29.2633 21.3687 29.4451 21.8002 29.238C22.7781 28.7699 28.9239 28.1079 35.8867 29.0014C38.4055 29.3242 40.9146 29.9949 43.181 30.7562V33.3315C37.2344 34.479 29.5721 37.4806 24.3302 45.1194C24.0588 45.5162 24.1597 46.0573 24.5556 46.3296C24.7061 46.4332 24.8775 46.4828 25.0471 46.4828C25.3238 46.4828 25.597 46.3505 25.7658 46.1043C30.5883 39.0754 37.6242 36.2234 43.181 35.095V40.2995C28.5002 42.6329 16.252 53.7675 12.872 68.5361C5.03831 72.466 0 80.5999 0 89.3793C0 102.121 10.2793 112.507 22.9808 112.68C28.8361 121.29 38.4925 126.414 48.9058 126.414C51.5159 126.414 54.0963 126.076 56.6098 125.439L55.0673 128.975C54.9464 129.252 54.9777 129.573 55.1508 129.821C55.3239 130.068 55.6137 130.207 55.9156 130.191L65.9609 129.601L54.5053 155.592C54.3382 155.97 54.4609 156.413 54.7984 156.653C54.9498 156.76 55.1256 156.813 55.3013 156.813C55.5162 156.813 55.7302 156.733 55.8964 156.577L81.5265 132.546C83.919 133.023 86.356 133.274 88.7825 133.274C100.65 133.274 111.803 127.553 118.755 117.937C121.989 119.041 125.372 119.6 128.824 119.6C146.015 119.6 160 105.615 160 88.424C160.002 75.6181 152.239 64.5958 141.174 59.8037ZM133.302 43.6456C133.342 39.0676 134.249 35.7171 137.064 32.7016C139.828 29.7435 143.405 27.7842 147.593 27.7842C148.3 27.7842 149.023 27.8399 149.762 27.9556C150.724 28.1061 151.302 28.7482 151.526 29.5338C151.755 30.3395 151.786 31.6889 150.454 32.5589C148.89 33.5812 147.422 33.5725 145.636 33.9918C142.904 34.6339 141.116 37.11 140.211 40.042C139.273 43.0845 139.404 46.1478 139.393 49.2312C139.383 51.4541 139.412 56.3567 139.43 59.1086C137.467 58.3969 135.414 57.8792 133.291 57.5738C133.289 53.1915 133.288 45.1064 133.302 43.6456ZM98.0908 33.04C96.8919 32.8669 95.7835 32.7607 94.8248 32.7059C95.7757 32.2831 96.8876 31.8237 98.0908 31.3731V33.04ZM44.9228 31.3731C46.1261 31.8246 47.2379 32.2831 48.188 32.7059C47.2301 32.7599 46.1208 32.8669 44.9228 33.04V31.3731ZM44.9228 34.787C48.9345 34.1815 51.8282 34.4434 51.8987 34.4503C52.3084 34.4895 52.6973 34.2363 52.8192 33.8396C52.941 33.442 52.7652 33.0148 52.3989 32.8182C51.5724 32.3736 48.6761 30.8771 44.9237 29.519V4.43712C44.9359 3.95513 45.1455 2.6005 45.9599 2.12547C46.3975 1.86968 46.836 1.74092 47.2606 1.74092C48.1549 1.74092 48.7701 2.31687 48.7883 2.33514L60.0978 12.939C60.2596 13.0904 60.4719 13.1748 60.6929 13.1748H82.3225C82.5435 13.1748 82.7567 13.0904 82.9176 12.939L94.2462 2.31774C94.2514 2.31165 94.8648 1.74179 95.754 1.74179C96.1785 1.74179 96.6161 1.87055 97.0546 2.12634C97.8699 2.60137 98.0795 3.95687 98.0908 4.41972V29.5199C94.3384 30.878 91.4412 32.3745 90.6147 32.819C90.2484 33.0157 90.0727 33.4437 90.1945 33.8404C90.3172 34.2381 90.6991 34.5008 91.1159 34.4512C91.1846 34.4434 94.0783 34.1771 98.0917 34.7809V39.5965C96.2647 39.2694 94.3958 39.0806 92.4879 39.0806C84.5759 39.0806 77.0676 42.0195 71.2619 47.3719C64.7863 42.4406 57.0744 39.8393 48.9084 39.8393C47.5659 39.8393 46.2374 39.9219 44.9237 40.0663V34.787H44.9228ZM68.129 129C68.2516 128.724 68.2203 128.402 68.0472 128.153C67.874 127.903 67.5808 127.76 67.2816 127.78L57.2302 128.37L58.9346 124.463L67.1076 105.728C71.1732 107.757 75.706 108.826 80.278 108.826C83.7572 108.826 87.1294 108.234 90.3407 107.065L80.2397 121.427C80.0413 121.709 80.0291 122.083 80.2066 122.378C80.385 122.673 80.7191 122.831 81.0627 122.792L90.7235 121.541L80.6599 130.977L57.8192 152.392L68.129 129Z" fill="white"/>
</svg>
