<svg width="160" height="100" viewBox="0 0 160 100" fill="none" xmlns="http://www.w3.org/2000/svg">
<path d="M151.489 87.6444L90.6115 52.3168L148.947 18.4584C151.916 21.4463 155.329 22.7365 157.65 21.3952C160.862 19.5407 160.769 13.365 157.444 7.60337C154.117 1.84174 148.816 -1.32525 145.604 0.530818C143.354 1.82894 142.757 5.26131 143.728 9.17327L80.0011 46.1571L16.273 9.17327C17.2418 5.26131 16.6487 1.82894 14.3978 0.530818C11.1844 -1.32525 5.8832 1.84334 2.55635 7.60337C-0.770494 13.365 -0.861619 19.5407 2.35013 21.3952C4.673 22.7365 8.08298 21.4447 11.0517 18.4584L69.3875 52.3168L8.50983 87.6444C8.50983 87.6444 -1.23411 96.3156 0.132759 98.6672C1.49483 101.028 13.8606 96.8655 13.8606 96.8655L80.0011 58.4749L146.14 96.8655C146.14 96.8655 158.507 101.028 159.868 98.6672C161.236 96.3156 151.489 87.6444 151.489 87.6444Z" fill="white"/>
</svg>
