<svg width="160" height="129" viewBox="0 0 160 129" fill="none" xmlns="http://www.w3.org/2000/svg">
<path d="M84.5833 0H75.6089V35.3849H84.5833V0Z" fill="white"/>
<path d="M84.5833 62.3076H75.6089V97.6925H84.5833V62.3076Z" fill="white"/>
<path d="M53.1718 31.1543H44.1974V66.5392H53.1718V31.1543Z" fill="white"/>
<path d="M115.48 31.1543H106.505V66.5392H115.48V31.1543Z" fill="white"/>
<path d="M53.1718 92.8828H44.1974V128.268H53.1718V92.8828Z" fill="white"/>
<path d="M115.48 92.8828H106.505V128.268H115.48V92.8828Z" fill="white"/>
<path d="M97.7885 44.3589H62.4034V53.3333H97.7885V44.3589Z" fill="white"/>
<path d="M97.7885 106.088H62.4034V115.062H97.7885V106.088Z" fill="white"/>
<path d="M22.1797 0H13.2053V35.3849H22.1797V0Z" fill="white"/>
<path d="M22.1797 62.3076H13.2053V97.6925H22.1797V62.3076Z" fill="white"/>
<path d="M35.385 44.3589H0V53.3333H35.385V44.3589Z" fill="white"/>
<path d="M146.795 0H137.82V35.3849H146.795V0Z" fill="white"/>
<path d="M146.795 62.3076H137.82V97.6925H146.795V62.3076Z" fill="white"/>
<path d="M160 44.3589H124.615V53.3333H160V44.3589Z" fill="white"/>
<path d="M35.385 106.088H0V115.062H35.385V106.088Z" fill="white"/>
<path d="M160 106.088H124.615V115.062H160V106.088Z" fill="white"/>
<path d="M66.3769 13.2051H30.9922V22.1793H66.3769V13.2051Z" fill="white"/>
<path d="M66.3769 75.5132H30.9922V84.4876H66.3769V75.5132Z" fill="white"/>
<path d="M128.685 13.2051H93.3002V22.1793H128.685V13.2051Z" fill="white"/>
<path d="M128.685 75.5132H93.3002V84.4876H128.685V75.5132Z" fill="white"/>
</svg>
