<svg width="180" height="180" viewBox="0 0 180 180" fill="none" xmlns="http://www.w3.org/2000/svg">
<path d="M107.685 129.809C107.399 129.927 106.833 130.694 105.989 132.111C105.143 133.529 104.43 135.183 103.846 137.072C103.262 138.963 103.155 140.356 103.523 141.251C103.891 142.149 104.323 142.495 104.819 142.291C105.582 141.978 106.502 140.228 107.58 137.043C108.656 133.858 108.882 131.503 108.255 129.976C108.161 129.747 107.971 129.691 107.685 129.809Z" fill="white"/>
<path d="M126.799 121.956C126.513 122.073 125.947 122.841 125.103 124.258C124.258 125.676 123.544 127.33 122.96 129.219C122.376 131.109 122.269 132.503 122.637 133.399C123.006 134.295 123.438 134.642 123.934 134.438C124.697 134.125 125.617 132.375 126.694 129.19C127.771 126.005 127.997 123.65 127.369 122.123C127.276 121.894 127.085 121.838 126.799 121.956Z" fill="white"/>
<path d="M147.648 112.053C146.808 112.398 145.733 113.933 144.421 116.656C143.11 119.381 142.58 121.048 142.831 121.658C142.971 122.001 143.194 122.111 143.5 121.985C144.53 121.562 145.652 119.953 146.868 117.156C148.082 114.361 148.588 112.715 148.384 112.219C148.275 111.952 148.029 111.897 147.648 112.053Z" fill="white"/>
<path d="M90.0002 1.67944C41.2259 1.67944 1.68665 41.222 1.68665 90C1.68665 138.778 41.2259 178.321 90.0002 178.321C138.774 178.321 178.313 138.778 178.313 90C178.313 41.222 138.774 1.67944 90.0002 1.67944ZM119.773 59.5113C120.306 60.8089 120.092 62.648 119.129 65.027C118.167 67.4073 117.094 68.8401 115.912 69.3256C115.148 69.6395 114.673 69.5668 114.485 69.1092C114.36 68.804 114.441 68.4584 114.728 68.0726C115.054 67.6714 115.503 66.8632 116.073 65.6471C116.645 64.4321 116.867 63.6716 116.742 63.366C116.694 63.2515 116.557 63.2411 116.328 63.3352C114.992 63.884 113.605 65.8815 112.166 69.326C110.728 72.7715 110.259 75.1045 110.761 76.3251C111.012 76.936 111.47 77.1039 112.138 76.8294C112.805 76.5555 113.723 75.7215 114.89 74.3278C116.057 72.935 117.453 71.1238 119.079 68.8943C119.608 68.1686 120.064 67.5467 120.448 67.0248C120.647 64.3803 121.273 61.1032 122.327 57.1909C124.367 49.6196 126.862 42.5848 129.812 36.0884C132.762 29.5919 134.904 26.0696 136.24 25.5208C136.888 25.2544 137.622 25.2771 138.441 25.5867C139.26 25.8974 139.861 26.5198 140.245 27.4545C140.629 28.3898 140.335 30.9294 139.362 35.075C138.389 39.2206 137.22 43.6479 135.855 48.356C134.124 54.2402 133.338 57.3731 133.494 57.7538C133.557 57.9069 133.664 57.9518 133.817 57.8888C133.97 57.8263 134.489 57.2449 135.375 56.1449C136.261 55.0451 137.258 53.9448 138.366 52.8423C139.475 51.7412 140.267 51.0363 140.742 50.7293C141.218 50.4227 141.808 50.1237 142.515 49.8336C143.22 49.5436 143.989 49.4068 144.82 49.4214C145.652 49.4374 146.189 49.7402 146.432 50.3316C146.675 50.9237 146.068 53.3805 144.61 57.7025C143.152 62.0255 142.514 64.406 142.695 64.8443C142.875 65.2833 143.155 65.4241 143.537 65.2673C144.338 64.9383 145.558 63.4569 147.195 60.821C147.822 59.8508 148.196 59.2956 148.317 59.1561C148.438 59.0175 148.594 58.9086 148.785 58.83C149.319 58.6107 149.697 58.7684 149.916 59.3021C150.041 59.6079 149.638 60.5535 148.707 62.1398C147.776 63.7267 146.562 65.3856 145.065 67.1145C143.568 68.8437 142.181 69.972 140.903 70.497C139.624 71.0223 138.447 71.0595 137.371 70.6103C136.294 70.1612 135.529 69.383 135.074 68.276C134.322 66.4445 134.627 63.4427 135.99 59.2704C136.125 58.9475 136.166 58.7198 136.11 58.5855C136.055 58.4525 135.989 58.401 135.914 58.4325C135.836 58.4639 135.595 58.6633 135.19 59.0307C134.783 59.3988 133.837 60.8136 132.351 63.2742C130.864 65.736 129.475 68.2688 128.182 70.8736C126.888 73.4787 125.812 74.9574 124.954 75.3101C124.096 75.6625 123.317 75.559 122.619 74.9985C121.921 74.4389 121.383 73.7001 121.007 72.7845C120.753 72.1651 120.575 71.4314 120.475 70.5834C118.844 72.8831 116.913 75.2634 114.68 77.7253C112.102 80.5679 110.117 82.2755 108.724 82.8479C107.331 83.4201 105.963 83.4806 104.618 83.0294C103.273 82.5786 102.374 81.8001 101.92 80.6931C100.979 78.4037 101.032 75.629 102.078 72.3667C103.124 69.1058 104.682 66.1691 106.753 63.5564C108.824 60.9446 110.803 59.2503 112.692 58.4745C114.58 57.6985 116.099 57.3534 117.249 57.4382C118.399 57.5237 119.24 58.2146 119.773 59.5113ZM69.2153 67.8399C71.1836 63.7314 73.02 60.1676 74.723 57.1486L75.559 55.6013C76.1312 55.3661 76.59 55.669 76.9345 56.5078L78.201 59.265C78.2592 59.7327 77.9987 61.3781 77.4195 64.2017L80.2239 63.0497C81.4386 62.5508 82.5157 62.149 83.4647 61.838C84.1611 61.0722 84.8596 60.5432 85.5608 60.2552C86.8529 59.7244 87.8303 59.9492 88.4933 60.9246C91.2644 59.3138 94.261 57.7476 97.4845 56.2263C99.4528 52.118 101.289 48.554 102.992 45.535L103.828 43.9877C104.401 43.7526 104.86 44.0554 105.204 44.8944L106.47 47.6514C106.529 48.1187 106.268 49.7645 105.689 52.5883L108.493 51.4363C112.728 49.6964 115.348 49.0999 116.353 49.6455C117.357 50.1923 117.962 50.7131 118.165 51.2086C118.432 51.8577 117.924 52.4679 116.643 53.0381C115.361 53.6098 111.305 55.2978 104.476 58.1037C101.324 65.954 99.0966 72.6889 97.7928 78.3083C97.2682 80.3969 96.8258 82.2509 96.4656 83.8703C96.1049 85.4903 95.7923 86.6555 95.5272 87.3665C95.2612 88.0776 94.9192 88.5194 94.4996 88.6918C93.2406 89.2088 91.9993 89.2277 90.7777 88.7492C89.5549 88.271 88.6935 87.421 88.192 86.1993C86.8128 82.8422 88.986 74.8358 94.7135 62.1812L88.9419 64.5524C88.8517 64.9856 88.7271 65.4489 88.5664 65.9441C87.9555 67.8231 86.7739 69.234 85.0211 70.177C84.3717 70.4436 83.7626 70.4261 83.1935 70.1246C82.6235 69.8237 82.2066 69.4599 81.9426 69.0335L81.6267 68.4274C81.5408 68.136 81.4764 67.8496 81.4284 67.5666C79.9186 68.1905 78.1791 68.9071 76.2066 69.7175C73.0543 77.5682 70.8268 84.3027 69.5232 89.9221C68.9986 92.0108 68.5561 93.8648 68.196 95.4844C67.8353 97.1043 67.5229 98.2696 67.2576 98.9806C66.9917 99.6914 66.6496 100.133 66.2302 100.306C64.971 100.823 63.7298 100.842 62.5079 100.363C61.2855 99.8853 60.4239 99.0344 59.9222 97.8131C58.5432 94.4559 60.7162 86.4497 66.4437 73.7952L57.6303 77.4161C56.1798 78.0119 55.2599 77.8328 54.8679 76.8786C54.6172 76.2687 56.0301 75.0411 59.1078 73.1969C62.1856 71.3529 65.5543 69.5677 69.2153 67.8399ZM85.2944 81.1012C84.5651 84.2102 83.548 87.3269 82.2448 90.4482C80.9402 93.57 79.8312 95.3198 78.9154 95.6956C77.9998 96.0718 77.1418 96.1002 76.3427 95.7829C75.543 95.4641 74.9708 94.8863 74.6258 94.0464C73.5292 91.3761 73.8758 87.6885 75.6667 82.9831C77.457 78.2792 79.6247 75.114 82.1677 73.4892C83.8848 72.7841 85.1587 73.4426 85.9892 75.4647C86.2556 76.1136 86.0239 77.9919 85.2944 81.1012ZM43.9726 109.048C39.3772 112.897 35.0205 115.669 30.8999 117.362C22.354 120.872 16.9755 119.938 14.7655 114.558C13.7469 112.078 14.8738 109.229 18.1447 106.012C19.8583 106.602 22.8512 106.019 27.1247 104.263C30.1744 102.788 32.8717 101.156 35.214 99.3676C37.5569 97.5807 39.2955 95.9514 40.4309 94.482C41.5662 93.0123 42.3925 91.7144 42.9109 90.5868C43.4287 89.4604 43.6357 88.6061 43.5306 88.0244C43.1562 87.3314 42.1683 87.313 40.5657 87.9713L28.3965 92.7035C26.0533 93.622 23.8675 93.784 21.8404 93.1895C19.8126 92.5956 18.415 91.3637 17.6469 89.4939C16.5972 86.9381 17.4296 83.6192 20.1456 79.5374C22.8609 75.4566 26.5018 71.6193 31.0686 68.026C35.635 64.4336 39.7871 61.8686 43.5266 60.3324C50.9278 57.2917 55.405 57.6598 56.9564 61.4373C57.4584 62.6589 57.0833 65.4657 55.8339 69.8588C54.5839 74.2522 53.3099 76.7153 52.0135 77.2479C51.7459 77.3581 51.4377 77.3406 51.088 77.1934C50.7376 77.0476 50.4851 76.7837 50.3281 76.4019C50.1715 76.0211 50.3522 75.1326 50.872 73.737C51.3913 72.3426 51.5571 71.4152 51.369 70.9573C51.2279 70.6139 50.7183 70.6227 49.8411 70.9832C47.475 71.9552 44.1008 74.3782 39.7174 78.2527C35.333 82.1276 33.3535 84.5799 33.7765 85.6102C33.9489 86.0303 34.4744 86.1158 35.3528 85.8654C36.2309 85.6165 37.75 85.0812 39.9107 84.2606C42.0706 83.4401 43.9991 82.8148 45.6956 82.3853C47.3922 81.956 48.836 81.7537 50.0272 81.7764C51.2181 81.8003 52.1926 81.9467 52.9498 82.2147C53.7064 82.484 54.3902 82.872 54.9998 83.3791C55.9185 84.2058 56.5902 85.1341 57.0135 86.1644C58.1418 88.9114 57.3987 92.4505 54.7853 96.7788C52.1712 101.109 48.5671 105.199 43.9726 109.048ZM93.0426 135.757C91.1904 137.545 89.2482 139.167 87.2169 140.626L84.1123 142.838C82.1688 148.096 79.6467 152.321 76.5434 155.513C73.4397 158.705 70.4194 160.905 67.4818 162.112C65.8024 162.802 64.1987 163.103 62.6706 163.019C61.1411 162.934 59.8843 162.614 58.8987 162.06C57.9125 161.507 57.0173 160.792 56.2133 159.919C54.9761 158.644 54.1145 157.415 53.6285 156.232C52.2808 152.951 51.6685 149.534 51.7927 145.982C51.9165 142.431 52.6514 139.063 53.9969 135.879C55.3418 132.695 57.0923 129.601 59.2475 126.597C61.4023 123.594 63.809 120.877 66.4678 118.447C71.9433 113.433 77.3522 109.828 82.694 107.633C85.9365 106.301 88.7001 105.701 90.9843 105.833C93.268 105.965 94.7707 106.909 95.4914 108.664C96.0086 109.923 95.6199 112.179 94.3251 115.431C93.0295 118.683 91.7334 120.576 90.4366 121.109C89.7115 121.407 89.1928 121.175 88.879 120.411C88.5657 119.648 88.7948 118.361 89.5671 116.549C90.3389 114.739 90.6863 113.738 90.6076 113.547C90.5293 113.356 90.3758 113.307 90.1467 113.401C88.8492 113.934 87.122 115.212 84.9662 117.235C82.8092 119.258 80.5878 121.777 78.3033 124.789C76.0176 127.802 73.9528 130.969 72.1067 134.292C70.2612 137.615 68.9906 141.035 68.2954 144.554C67.6006 148.073 67.7936 151.148 68.8751 153.781C69.3299 154.888 70.0907 155.221 71.1593 154.782C72.876 154.077 74.6771 152.546 76.5626 150.188C78.4478 147.831 79.2919 146.357 79.0954 145.769C78.5389 146.043 78.0689 146.258 77.6883 146.414C76.2378 147.01 74.8279 147.132 73.4577 146.781C72.0867 146.43 71.1316 145.596 70.5911 144.279C70.0502 142.963 70.437 141.355 71.7527 139.454C73.0677 137.554 74.9059 135.707 77.268 133.911C79.6294 132.116 82.0597 130.705 84.5588 129.677C87.0574 128.651 89.2693 128.256 91.1946 128.49C93.1193 128.726 94.4662 129.778 95.2336 131.647C95.6258 132.601 94.8947 133.971 93.0426 135.757ZM157.398 108.515C157.109 109.928 156.263 113.487 154.86 119.191C153.458 124.895 152.639 128.007 152.408 128.526C152.175 129.045 151.753 129.43 151.143 129.681C150.532 129.932 149.711 129.835 148.681 129.389C147.651 128.942 146.987 128.356 146.689 127.632C146.392 126.907 146.192 126.096 146.092 125.201L145.965 123.915C145.903 123.763 145.785 123.722 145.614 123.792C145.442 123.863 144.658 124.776 143.261 126.532C141.864 128.287 140.631 129.385 139.563 129.823C138.495 130.262 137.498 130.226 136.575 129.713C135.65 129.201 135.017 128.525 134.672 127.686C133.812 125.591 133.734 123.207 134.433 120.536C133.405 121.419 132.582 121.988 131.967 122.241C131.166 122.57 130.598 122.792 130.267 122.906C129.934 123.021 129.759 123.326 129.741 123.825C129.096 130.288 127.663 134.779 125.442 137.296C124.471 138.408 123.31 139.243 121.956 139.799C120.601 140.356 119.311 140.362 118.084 139.818C116.858 139.275 115.844 138.029 115.045 136.083C114.16 133.93 113.886 131.659 114.216 129.274C113.684 129.665 113.229 129.939 112.852 130.094C112.051 130.424 111.484 130.645 111.152 130.759C110.82 130.874 110.645 131.18 110.627 131.678C109.981 138.142 108.548 142.632 106.328 145.15C105.357 146.261 104.195 147.096 102.841 147.652C101.487 148.209 100.196 148.214 98.9694 147.671C97.7432 147.128 96.7298 145.882 95.9302 143.936C94.8177 141.227 94.6663 138.335 95.4764 135.259C96.2867 132.184 97.5738 129.593 99.3393 127.485C101.105 125.378 102.903 123.947 104.734 123.195C107.966 122.269 109.895 122.569 110.522 124.095C110.695 124.515 110.742 124.93 110.666 125.34C110.589 125.751 110.495 126.012 110.386 126.124C110.275 126.236 110.133 126.351 109.958 126.467C109.547 126.77 109.428 127.131 109.6 127.55C110.024 128.581 110.845 128.845 112.066 128.343C112.993 127.963 113.918 127.359 114.84 126.542C115.655 123.844 116.857 121.538 118.454 119.632C120.219 117.525 122.017 116.094 123.848 115.342C127.08 114.416 129.01 114.716 129.636 116.242C129.808 116.662 129.856 117.077 129.78 117.487C129.703 117.898 129.61 118.159 129.5 118.271C129.389 118.384 129.247 118.498 129.072 118.614C128.661 118.916 128.542 119.278 128.715 119.697C129.138 120.727 129.959 120.992 131.181 120.49C132.325 120.02 133.467 119.217 134.605 118.08C135.052 117.634 135.419 117.273 135.708 116.994C136.794 114.544 138.187 112.354 139.889 110.424C142.049 107.976 144.14 106.337 146.162 105.506C147.421 104.988 148.437 104.75 149.211 104.788C149.986 104.827 150.41 104.831 150.487 104.799L150.602 104.752C150.678 104.721 150.708 104.686 150.693 104.648C152.395 99.132 154.676 92.9888 157.536 86.217C160.395 79.4463 162.549 75.7622 164 75.1664C164.641 74.9929 165.408 75.2566 166.299 75.9608C167.19 76.6647 167.874 77.5442 168.351 78.5961C168.468 79.53 166.743 84.3974 163.179 93.1965C159.614 101.997 157.687 107.104 157.398 108.515Z" fill="white"/>
</svg>
