<svg width="180" height="155" viewBox="0 0 180 155" fill="none" xmlns="http://www.w3.org/2000/svg">
<path d="M180 65.4805C180 65.4805 172.506 56.5112 158.694 47.542C148.849 41.0723 139.004 35.0438 119.02 26.9568C110.498 22.8398 109.469 20.046 109.616 18.7227C109.91 15.782 116.229 13.8705 118.286 13.4294L119.02 13.2823L119.902 5.19531C119.902 5.19531 116.816 2.54864 105.943 0.784198C95.0694 -0.980247 87.1348 0.784198 87.1348 0.784198L85.9592 8.72419L86.6939 9.1653C88.6041 10.1946 94.0408 13.7235 93.6 16.6642C93.4531 17.9875 91.6898 20.3401 82.2857 22.1046C42.4653 24.7512 9.99184 43.1309 0 51.806L9.99191 52.5412C9.84497 53.1294 9.84492 53.5705 9.84492 54.1586C9.84492 54.1586 16.4571 147.086 16.898 151.056C17.1918 152.968 18.8082 154.438 20.7184 154.438L160.604 151.791C161.192 151.791 161.78 151.35 161.927 150.615C161.927 150.615 171.331 72.0972 172.212 64.7453L180 65.4805ZM155.902 145.322C142.09 145.175 26.7429 144.733 26.7429 144.733C26.1551 138.852 21.0123 57.0994 21.0123 57.0994L163.69 67.686L155.902 145.322ZM104.914 30.7797C121.371 32.9853 138.857 40.4842 162.22 58.5698L17.9265 47.836C36.4408 38.4257 67.8857 25.9275 104.914 30.7797Z" fill="white"/>
</svg>
