<?xml version="1.0" encoding="utf-8"?>
<!-- Generator: Adobe Illustrator 24.0.0, SVG Export Plug-In . SVG Version: 6.00 Build 0)  -->
<svg version="1.1" id="Layer_1" xmlns="http://www.w3.org/2000/svg" xmlns:xlink="http://www.w3.org/1999/xlink" x="0px" y="0px"
	 viewBox="0 0 180 172" style="enable-background:new 0 0 180 172;" xml:space="preserve">
<style type="text/css">
	.st0{fill:#FFFFFF;}
</style>
<g>
	<path class="st0" d="M179.4,166.2l-65.6-70.4L136.4,80c1.1-0.7,1.7-2,1.6-3.3c-0.1-1.3-0.9-2.5-2-3.1l-23.7-12.2l48.5-55.1
		c1.2-1.4,1.2-3.5,0-4.9c-1.2-1.4-3.3-1.7-4.8-0.7L73.4,52.6L45.2,22.3C34.9,12,28.6,6.4,24.3,3.6c-3.5-2.2-8-4.2-12.4,0.2
		c-4.4,4.4-2.4,8.9-0.2,12.4c2.8,4.3,8.4,10.6,18.8,21l27.2,25.3l-4.5,2.8c-1.1,0.7-1.8,2-1.7,3.3c0.1,1.3,0.8,2.5,2,3.2l22.2,11.4
		L1,165.6c-1.3,1.4-1.3,3.5,0,5c0.7,0.8,1.7,1.3,2.8,1.3c0.8,0,1.5-0.2,2.1-0.7l96.3-67.3l72.2,67.3c1.1,1,3.1,0.8,4.5-0.6
		C180.1,169.3,180.4,167.3,179.4,166.2z M19.8,11.7c1-1,2.9-0.4,6.3,2c2.8,2,6.1,4.9,9.5,8.2c3.3,3.3,6.2,6.7,8.2,9.5
		c2.4,3.4,3,5.3,2,6.3l0,0c-0.3,0.3-0.7,0.4-1.1,0.4c-3.9,0-13.4-9.4-14.6-10.6C28.7,26.1,17.1,14.4,19.8,11.7z M82.9,83.3
		c0.4-0.4,0.5-0.9,0.4-1.5c-0.1-0.5-0.4-1-0.9-1.2L58.7,68.3l90-56.5L105,61.4c-0.4,0.4-0.5,0.9-0.4,1.5c0.1,0.5,0.4,1,0.9,1.2
		l25.3,13.1L15.4,157.8L82.9,83.3z"/>
</g>
</svg>
