<svg width="180" height="121" viewBox="0 0 180 121" fill="none" xmlns="http://www.w3.org/2000/svg">
<path d="M63.8639 20.1666C67.6029 20.4367 71.346 18.6173 73.3471 15.1527C76.1362 10.3213 74.4803 4.1442 69.6497 1.35509C64.8186 -1.43437 58.6414 0.220772 55.8518 5.0525C53.8515 8.51684 54.1476 12.6678 56.2512 15.7708L3.05017 107.991C1.66208 111.107 0 119.446 0 119.446C0.257532 120.406 1.24333 120.976 2.20372 120.719C2.20372 120.719 8.59523 115.11 10.5992 112.35L63.8639 20.1666ZM60.792 7.90394C62.0055 5.80134 64.6946 5.08037 66.7971 6.29418C68.9004 7.50882 69.6211 10.1975 68.4071 12.3006C67.3882 14.0654 65.3304 14.8512 63.4525 14.3419L61.5013 13.2153C60.1209 11.8434 59.7729 9.66868 60.792 7.90394Z" fill="white"/>
<path d="M47.9503 112.35L101.215 20.1666C104.955 20.4364 108.698 18.6173 110.699 15.1527C113.487 10.3213 111.831 4.1442 107 1.35509C102.17 -1.43437 95.9931 0.220772 93.2025 5.0525C91.2024 8.51707 91.4983 12.6684 93.602 15.7716L40.4008 107.991C39.0129 111.107 37.3508 119.446 37.3508 119.446C37.6081 120.406 38.5946 120.976 39.5546 120.719C39.5544 120.719 45.9459 115.11 47.9503 112.35ZM98.1426 7.90394C99.3561 5.80134 102.046 5.08037 104.147 6.29418C106.251 7.50882 106.972 10.1975 105.759 12.3006C104.739 14.0652 102.682 14.8512 100.805 14.3422L98.852 13.215C97.4724 11.8429 97.1241 9.66833 98.1426 7.90394Z" fill="white"/>
<path d="M176.979 105.077C174.862 105.077 173.824 103.774 171.792 100.576C169.722 97.3184 166.889 92.8566 160.658 92.8566C154.428 92.8566 151.594 97.3183 149.524 100.576C147.493 103.774 146.455 105.077 144.338 105.077C142.22 105.077 141.183 103.773 139.151 100.575C138.665 99.8099 138.169 99.0331 137.624 98.2748C138.844 95.1676 139.521 91.7883 139.521 88.2485C139.521 73.0775 127.222 60.7798 112.052 60.7798C96.8806 60.7798 84.5826 73.0775 84.5826 88.2485C84.5826 103.42 96.8807 115.718 112.052 115.718C121.236 115.718 129.361 111.206 134.349 104.283C136.369 107.444 138.958 111.118 144.338 111.118C149.984 111.118 152.557 107.069 154.624 103.815C156.619 100.674 157.883 98.8981 160.658 98.8981C163.434 98.8981 164.697 100.674 166.692 103.816C168.759 107.069 171.332 111.118 176.979 111.118C178.648 111.118 180 109.766 180 108.097C180 106.429 178.648 105.077 176.979 105.077ZM112.052 109.954C100.065 109.954 90.3465 100.236 90.3465 88.2486C90.3465 86.9545 90.4657 85.6892 90.6835 84.4576C101.708 81.3171 111.763 82.8276 120.576 88.9606C126.407 93.0192 129.833 97.9075 130.735 99.2931C126.956 105.674 120.005 109.954 112.052 109.954ZM133.316 92.6244C131.328 90.1947 128.31 87.0203 124.243 84.1533C117.671 79.5203 107.156 74.9278 93.1011 77.6693C96.8137 71.0325 103.908 66.5432 112.052 66.5432C124.039 66.5432 133.757 76.2612 133.757 88.2486C133.757 89.7481 133.606 91.2116 133.316 92.6244Z" fill="white"/>
</svg>
