<svg width="180" height="172" viewBox="0 0 180 172" fill="none" xmlns="http://www.w3.org/2000/svg">
<g clip-path="url(#clip0)">
<path d="M57 100.8H54.1V97.8C54.1 97 53.4 96.3 52.6 96.3H50.9C50.1 96.3 49.4 97 49.4 97.8V100.8H46.5C45.7 100.8 45 101.5 45 102.3V104.3C45 105.1 45.7 105.8 46.5 105.8H49.4V108.8C49.4 109.6 50.1 110.3 50.9 110.3H52.6C53.4 110.3 54.1 109.6 54.1 108.8V105.8H57C57.8 105.8 58.5 105.1 58.5 104.3V102.3C58.4 101.4 57.8 100.8 57 100.8Z" fill="white"/>
<path d="M133.4 100.9H122.5C121.7 100.9 121 101.6 121 102.4V104.1C121 104.9 121.7 105.6 122.5 105.6H133.4C134.2 105.6 134.9 104.9 134.9 104.1V102.4C134.8 101.5 134.2 100.9 133.4 100.9Z" fill="white"/>
<path d="M39.7001 69C37.9001 67.2 35.6 66.3 33.1 66.3C28 66.3 23.8 70.5 23.8 75.6C23.8 80.7 28 84.9 33.1 84.9C38.2 84.9 42.4001 80.7 42.4001 75.6C42.4001 73.1 41.5001 70.7 39.7001 69ZM38.4001 75.5C38.4001 76.9 37.9001 78.2 36.9001 79.2C35.9001 80.2 34.6001 80.7 33.2001 80.7C30.3001 80.7 27.9 78.3 27.9 75.4C27.9 72.5 30.3001 70.1 33.2001 70.1C36.0001 70.3 38.4001 72.6 38.4001 75.5Z" fill="white"/>
<path d="M146.5 66.2C141.4 66.2 137.2 70.4 137.2 75.5C137.2 80.6 141.4 84.8 146.5 84.8C151.6 84.8 155.8 80.6 155.8 75.5C155.8 70.4 151.7 66.2 146.5 66.2ZM146.5 80.8C143.6 80.8 141.2 78.4 141.2 75.5C141.2 72.6 143.6 70.2 146.5 70.2C149.4 70.2 151.8 72.6 151.8 75.5C151.8 78.5 149.5 80.8 146.5 80.8Z" fill="white"/>
<path d="M177.1 73.8C179.3 71.7 180.5 69.4 180.5 67.2C180.5 66.4 180.4 65.7 180.2 65C179.3 62.3 176.6 60.5 172.7 59.9L131.5 53.9C125.6 53 118.3 47.8 115.7 42.4L97.2 5.1C96.1 2.9 94.7 1.3 93.1 0.3C92.1 -0.3 91.1 -0.5 90 -0.5C87.6 -0.5 85.4 0.9 83.6 3.7L83.5 3.8C83.4 3.9 83.4 4 83.3 4.1L83.2 4.4C83.1 4.6 82.9 4.9 82.8 5.1L64.5 42.4C61.9 47.8 54.6 53 48.7 53.9L7.49996 59.9C3.49996 60.5 0.799964 62.3 -0.100036 65.1L-0.200036 65.3C-1.10004 67.9 -3.60012e-05 71 2.89996 73.8L32.8 102.6C37.1 106.8 39.9 115.3 38.8 121.2L31.7 162.2C31.1 165.5 31.6 168.2 33.2 170C34.2 171.2 35.7 172 37.5 172.1H37.7C38 172.1 38.4 172.1 38.7 172.1H38.9C39.3 172.1 39.6 172 40 171.9H40.1C40.2 171.9 40.3 171.9 40.4 171.8C40.5 171.8 40.7 171.7 40.8 171.7H40.9C41.8 171.4 42.5 171.1 43.2 170.7L80.1 151.3C82.7 150 86.1 149.2 89.9 149.2C93.7 149.2 97.1 149.9 99.7 151.3L136.6 170.7C138.5 171.7 140.3 172.2 141.9 172.2C143.9 172.2 145.6 171.5 146.7 170.1C148.2 168.3 148.7 165.6 148.2 162.3L141.1 121.2C140.1 115.3 142.9 106.8 147.1 102.6L177.1 73.8ZM47.7 80.8C45.2 88.4 38.6 93.9 30.6 94.9L5.79996 70.7C4.19996 69.1 3.39996 67.5 3.69996 66.4C4.09996 65.3 5.69996 64.5 7.89996 64.2L42 59.2C48 64.6 50.2 73.1 47.7 80.8ZM90 49.9C81.9 49.9 74.5 45.2 71.2 37.8L86.5 6.9L86.6 6.7C87.6 4.7 88.9 3.5 90 3.5C90.4 3.5 90.9 3.7 91.3 4C91.4 4 91.4 4.1 91.5 4.1L91.8 4.3C92.4 4.9 93.1 5.8 93.6 6.8L108.9 37.7C105.5 45.2 98.2 49.9 90 49.9ZM116.2 130.2C119.8 127.6 123.9 126.3 128.3 126.3C131.9 126.3 135.4 127.2 138.5 128.9L144.3 162.9C144.6 164.9 144.4 166.6 143.7 167.4C143.3 167.9 142.7 168.1 141.8 168.1C140.9 168.1 139.8 167.7 138.6 167.1L108.1 151.1C106.5 143.1 109.6 135 116.2 130.2ZM137.3 121.9L137.7 124.1C134.7 122.9 131.6 122.3 128.4 122.3C123.2 122.3 118.2 123.9 113.9 127C107 132 103.1 140.3 103.8 148.8L101.8 147.7C98.7 146.1 94.5 145.1 90.1 145.1C85.7 145.1 81.6 146 78.4 147.7L76.4 148.8C77 140.3 73.2 132 66.3 127C62.1 123.9 57 122.3 51.8 122.3C48.6 122.3 45.4 122.9 42.5 124.1L42.9 121.9C44.1 114.7 40.9 104.8 35.7 99.7L34.3 98.3C42.4 96.2 49.1 90.1 51.7 82C54.4 73.8 52.5 64.7 46.9 58.2L49.4 57.8C56.6 56.8 65 50.6 68.3 44.1L69.3 42.1C73.8 49.3 81.7 53.8 90.3 53.8C98.9 53.8 106.8 49.3 111.3 42.1L112.3 44.1C115.5 50.6 124 56.8 131.2 57.8L133.6 58.1C127.9 64.6 126.1 73.6 128.8 81.9C131.4 90 138.1 96.1 146.2 98.2L144.8 99.6C139.3 104.8 136 114.7 137.3 121.9ZM35.8 162.9L41.6 128.9C44.7 127.2 48.2 126.2 51.8 126.2C56.2 126.2 60.4 127.6 63.9 130.1C70.5 134.9 73.6 143 72 151L41.5 167.1C40.6 167.6 39.7 167.9 38.9 168C38.7 168 38.6 168 38.4 168.1H38.2C37.4 168.1 36.7 167.9 36.3 167.4C35.6 166.6 35.4 165 35.8 162.9ZM176.5 66.8C176.5 67.9 175.7 69.3 174.3 70.6L149.4 94.9C141.5 93.9 134.7 88.4 132.3 80.8C129.8 73.1 132 64.6 138 59.2L172.1 64.2C174.4 64.5 176 65.4 176.4 66.5C176.4 66.6 176.5 66.7 176.5 66.8Z" fill="white"/>
<path d="M108.2 70.5H71.9C70.8 70.5 69.9 71.4 69.9 72.5V104C69.9 105.1 70.8 106 71.9 106H108.2C109.3 106 110.2 105.1 110.2 104V72.5C110.2 71.4 109.3 70.5 108.2 70.5ZM106.2 74.5V102H73.9V74.5H106.2Z" fill="white"/>
<path d="M90.2 76.6001C83.8 76.6001 78.5 81.8001 78.5 88.3001C78.5 91.4001 79.7 94.3001 81.9 96.5001C84.1 98.7001 87 99.9001 90.1 99.9001C96.5 99.9001 101.8 94.7001 101.8 88.2001C101.9 81.8001 96.6 76.6001 90.2 76.6001ZM97.9 88.2001C97.9 92.5001 94.4 96.0001 90.1 96.0001C85.8 96.0001 82.3 92.5001 82.3 88.2001C82.3 86.1001 83.1 84.2001 84.6 82.7001C86.1 81.2001 88 80.4001 90.1 80.4001C94.5 80.5001 97.9 84.0001 97.9 88.2001Z" fill="white"/>
</g>
<defs>
<clipPath id="clip0">
<rect width="180" height="172" fill="white"/>
</clipPath>
</defs>
</svg>
