<svg width="181" height="172" viewBox="0 0 181 172" fill="none" xmlns="http://www.w3.org/2000/svg">
<path d="M180.615 167.759L113.503 95.7838L137.338 79.1338C138.134 78.5768 138.581 77.6438 138.517 76.6758C138.452 75.7068 137.884 74.8428 137.022 74.3968L111.948 61.4628L161.788 4.77578C162.697 3.74178 162.709 2.19678 161.817 1.14878C160.923 0.0997804 159.396 -0.13322 158.229 0.59878L74.063 53.4888L45.016 22.3378C34.594 11.9168 28.319 6.29778 24.036 3.54978C20.664 1.38678 16.689 -0.29922 12.781 3.60778C8.87497 7.51478 10.56 11.4888 12.724 14.8628C15.472 19.1458 21.091 25.4208 31.545 35.8728L59.948 62.3578L54.286 65.9148C53.444 66.4438 52.95 67.3848 52.991 68.3798C53.034 69.3748 53.606 70.2698 54.491 70.7258L78.057 82.8818L1.71497 167.192C0.768971 168.237 0.757971 169.828 1.69197 170.886C2.23597 171.504 3.00097 171.825 3.77197 171.825C4.32297 171.825 4.87697 171.661 5.35997 171.325L103.379 102.854L176.932 171.439C177.665 172.123 179.047 171.871 180.047 170.872C181.048 169.875 181.299 168.492 180.615 167.759ZM47.23 38.0568C45.874 39.4108 38.468 34.2048 30.689 26.4258C22.912 18.6478 17.705 11.2418 19.06 9.88678C20.415 8.53078 27.821 13.7378 35.599 21.5158C43.379 29.2948 48.586 36.7008 47.23 38.0568ZM22.281 152.743L84.588 83.9318C85.166 83.2938 85.414 82.4248 85.262 81.5778C85.108 80.7308 84.569 80.0028 83.804 79.6078L61.351 68.0248L145.024 15.4448L105.438 60.4698C104.875 61.1098 104.638 61.9748 104.796 62.8148C104.954 63.6538 105.49 64.3718 106.249 64.7638L130.396 77.2198L22.281 152.743Z" fill="white"/>
</svg>
