<svg width="160" height="153" viewBox="0 0 160 153" fill="none" xmlns="http://www.w3.org/2000/svg">
<path d="M50.6423 89.5555H48.0971V86.8609C48.0971 86.1506 47.516 85.5681 46.8057 85.5681H45.2788C44.5685 85.5681 43.9873 86.1506 43.9873 86.8609V89.5555H41.4394C40.7291 89.5555 40.1479 90.138 40.1479 90.8469V92.589C40.1479 93.2993 40.7291 93.8818 41.4394 93.8818H43.9873V96.5737C43.9873 97.284 44.5685 97.8652 45.2788 97.8652H46.8057C47.516 97.8652 48.0971 97.284 48.0971 96.5737V93.8818H50.6423C51.3526 93.8818 51.9338 93.2993 51.9338 92.589V90.8469C51.9338 90.138 51.3526 89.5555 50.6423 89.5555Z" fill="white"/>
<path d="M118.566 89.6616H108.853C108.143 89.6616 107.562 90.2428 107.562 90.9517V92.4813C107.562 93.1916 108.143 93.7741 108.853 93.7741H118.566C119.276 93.7741 119.857 93.1916 119.857 92.4813V90.9517C119.857 90.2428 119.276 89.6616 118.566 89.6616Z" fill="white"/>
<path d="M29.4477 59.3235C25.1294 59.3235 21.6156 62.836 21.6156 67.1529C21.6156 71.4712 25.1294 74.9837 29.4477 74.9837C33.7647 74.9837 37.2771 71.4712 37.2771 67.1529C37.2785 62.836 33.766 59.3235 29.4477 59.3235ZM29.4477 72.2945C26.6133 72.2945 24.3061 69.9887 24.3061 67.1543C24.3061 64.3211 26.6133 62.0154 29.4477 62.0154C32.2808 62.0154 34.5866 64.3211 34.5866 67.1543C34.588 69.9887 32.2822 72.2945 29.4477 72.2945Z" fill="white"/>
<path d="M130.259 59.3235C125.941 59.3235 122.427 62.836 122.427 67.1529C122.427 71.4712 125.941 74.9837 130.259 74.9837C134.576 74.9837 138.088 71.4712 138.088 67.1529C138.088 62.836 134.576 59.3235 130.259 59.3235ZM130.259 72.2945C127.424 72.2945 125.117 69.9887 125.117 67.1543C125.117 64.3211 127.424 62.0154 130.259 62.0154C133.092 62.0154 135.398 64.3211 135.398 67.1543C135.398 69.9887 133.092 72.2945 130.259 72.2945Z" fill="white"/>
<path d="M159.767 57.9243C159.043 55.6952 156.79 54.1979 153.423 53.7096L116.793 48.3864C111.398 47.6021 104.802 42.8116 102.392 37.9243L86.0105 4.73129C85.0688 2.82371 83.8877 1.45288 82.5626 0.69281C81.7675 0.236765 80.92 0 80.0402 0C78.0492 0 76.2224 1.22419 74.795 3.46136C74.7533 3.52594 74.7089 3.58109 74.6672 3.64836C74.5946 3.76539 74.53 3.90126 74.4614 4.02368C74.3309 4.25238 74.1977 4.47704 74.0753 4.72456L57.6887 37.9256C55.278 42.813 48.6835 47.6035 43.289 48.3878L6.65748 53.711C3.29163 54.2006 1.03831 55.6979 0.314563 57.9257C0.309182 57.9418 0.309183 57.9566 0.303801 57.9728C0.284968 58.0266 0.255372 58.0737 0.237884 58.1275C-0.485867 60.3539 0.454468 62.887 2.8867 65.2627L29.4758 90.9034C33.3784 94.7078 35.8981 102.459 34.9766 107.831L28.674 144.313C28.1978 147.098 28.6135 149.362 29.8767 150.86C30.7498 151.896 31.9753 152.463 33.4161 152.561C33.4551 152.564 33.4941 152.569 33.5331 152.572C33.6367 152.576 33.7322 152.6 33.8385 152.6C34.078 152.6 34.3255 152.57 34.5717 152.545C34.5999 152.542 34.6255 152.542 34.6524 152.538C34.9537 152.504 35.2631 152.445 35.5752 152.373C35.6869 152.347 35.7986 152.329 35.9116 152.3C36.0609 152.26 36.2142 152.203 36.3663 152.153C37.0201 151.949 37.6887 151.69 38.3774 151.329L71.14 134.103C73.4848 132.87 76.6448 132.192 80.0402 132.192C83.4357 132.192 86.5957 132.87 88.9405 134.103L121.704 151.329C123.309 152.172 124.82 152.599 126.196 152.599C126.202 152.599 126.206 152.597 126.211 152.597C126.223 152.597 126.235 152.6 126.246 152.6C127.876 152.6 129.245 151.999 130.205 150.862C131.468 149.365 131.887 147.102 131.412 144.318L125.107 107.828C124.184 102.455 126.702 94.7038 130.605 90.9007L157.117 65.2587C158.991 63.4291 159.968 61.5054 159.992 59.7014C160.026 59.0947 159.956 58.4988 159.767 57.9243ZM155.235 63.1359L132.948 84.8605C125.598 84.0332 119.443 79.0503 117.143 71.9756C114.825 64.8403 116.925 57.1199 122.491 52.137L153.037 56.5737C155.302 56.9033 156.822 57.771 157.209 58.9561C157.256 59.1001 157.285 59.2508 157.299 59.4068C157.307 60.4965 156.592 61.8135 155.235 63.1359ZM97.2582 33.6006C94.2395 40.4346 87.5454 44.8161 80.0429 44.8161C72.5417 44.8161 65.8477 40.4346 62.8249 33.602L76.486 5.9205C76.517 5.85593 76.5519 5.80077 76.5842 5.73754C77.5838 3.80306 78.8362 2.69053 80.0429 2.69053C80.5097 2.69053 80.9846 2.856 81.4474 3.17079C81.5388 3.23267 81.6276 3.31204 81.7178 3.38468C81.7796 3.4358 81.8442 3.47751 81.9074 3.53401C82.5142 4.08557 83.0913 4.89272 83.5971 5.91916L95.5282 30.0949L97.2582 33.6006ZM4.8481 63.1372C3.23647 61.566 2.51945 59.9974 2.86114 58.8189C3.31853 57.7077 4.79563 56.8925 6.96823 56.5764L37.5138 52.1397C43.0805 57.1225 45.1804 64.8417 42.8625 71.9783C40.5702 79.0315 34.4466 84.0036 27.1256 84.8538L4.8481 63.1372ZM64.4042 134.584L37.0752 148.952C36.2102 149.405 35.3896 149.698 34.6511 149.829C34.4963 149.854 34.347 149.869 34.2004 149.88C34.1412 149.884 34.078 149.892 34.0201 149.895C33.1484 149.92 32.4394 149.669 31.9807 149.125C31.2543 148.263 31.0377 146.716 31.3726 144.766L36.595 114.32C39.4577 112.67 42.7065 111.798 46.032 111.798C50.0153 111.798 53.8318 113.04 57.0672 115.389C63.1329 119.8 65.9741 127.279 64.4042 134.584ZM128.713 144.766C129.048 146.714 128.832 148.263 128.105 149.124C127.646 149.67 126.935 149.921 126.062 149.895C125.179 149.857 124.133 149.538 123.007 148.946L95.6856 134.583C94.113 127.278 96.9515 119.798 103.019 115.39C106.255 113.04 110.075 111.797 114.061 111.797C117.382 111.797 120.627 112.666 123.49 114.314L128.713 144.766ZM122.456 108.284L122.923 111.008C120.149 109.761 117.133 109.106 114.061 109.106C109.503 109.106 105.139 110.527 101.438 113.213C95.0829 117.832 91.8395 125.395 92.722 133.051L90.1943 131.721C87.4714 130.29 83.8648 129.502 80.0429 129.502C76.221 129.502 72.6144 130.29 69.8916 131.721L67.3705 133.046C68.2476 125.393 65.0029 117.83 58.6492 113.212C54.9511 110.527 50.5897 109.108 46.0333 109.108C42.9567 109.108 39.9393 109.763 37.164 111.014L37.6321 108.284C38.7016 102.052 35.886 93.3895 31.3565 88.9743L29.5175 87.1825C36.9501 85.5816 43.024 80.1911 45.4239 72.8083C47.8736 65.2681 45.9956 57.1669 40.6738 51.4859L43.6805 51.0487C49.9386 50.1393 57.3066 44.7851 60.1061 39.1135L61.3437 36.6059C65.1347 43.304 72.1987 47.5053 80.0456 47.5053C87.8925 47.5053 94.9565 43.3027 98.7448 36.6059L99.981 39.1122C102.781 44.7838 110.15 50.1366 116.408 51.0473L119.346 51.4738C114.018 57.1548 112.135 65.2614 114.587 72.8056C116.995 80.2099 123.095 85.6085 130.558 87.1919L128.732 88.9717C124.201 93.3882 121.387 102.05 122.456 108.284Z" fill="white"/>
<path d="M96.1698 63.0723H63.9104C63.1679 63.0723 62.5652 63.6749 62.5652 64.4175V92.4286C62.5652 93.1712 63.1679 93.7739 63.9104 93.7739H96.1698C96.9124 93.7739 97.5151 93.1712 97.5151 92.4286V64.4175C97.5151 63.6749 96.9124 63.0723 96.1698 63.0723ZM94.8246 91.0833H65.2557V65.7628H94.8246V91.0833Z" fill="white"/>
<path d="M80.1707 88.75C85.8652 88.75 90.4983 84.1183 90.4983 78.4238C90.4983 72.7293 85.8652 68.0962 80.1707 68.0962C74.4762 68.0962 69.8445 72.7293 69.8445 78.4238C69.8431 84.1183 74.4762 88.75 80.1707 88.75ZM80.1707 70.7881C84.3814 70.7881 87.8078 74.2131 87.8078 78.4251C87.8078 82.6358 84.3827 86.0608 80.1707 86.0608C75.9601 86.0608 72.535 82.6358 72.535 78.4251C72.5337 74.2131 75.9601 70.7881 80.1707 70.7881Z" fill="white"/>
</svg>
