<svg width="180" height="168" viewBox="0 0 180 168" fill="none" xmlns="http://www.w3.org/2000/svg">
<path fill-rule="evenodd" clip-rule="evenodd" d="M22.0166 44.3549C8.30152 54.8852 0 68.6334 0 83.6742C0 98.7992 8.39475 112.617 22.2475 123.17C24.5793 140.124 32.3144 154.022 45.2347 161.481C58.1839 168.957 74.1289 168.69 90.0128 162.19C105.982 168.793 122.03 169.105 135.05 161.588C148.062 154.075 155.815 140.033 158.086 122.915C171.74 112.395 180 98.6774 180 83.6742C180 68.7551 171.832 55.1078 158.315 44.6112C156.103 27.338 148.333 13.1591 135.235 5.59668C122.165 -1.949 106.044 -1.60627 90.0138 5.07092C74.0684 -1.50319 58.0495 -1.80216 45.0499 5.7032C32.0431 13.2127 24.2912 27.2461 22.0166 44.3549ZM26.0665 121.58L26.2102 122.625C28.4252 138.73 35.674 151.343 47.2347 158.017C58.8211 164.707 73.4075 164.663 88.4979 158.488L89.3774 158.128C77.3378 157.765 66.3484 150.983 57.8685 139.969C43.9198 138.161 32.4164 131.973 26.0665 121.58ZM25.5019 120.621C19.3758 109.81 19.7108 96.5146 25.2387 83.2997C19.9353 70.284 19.685 57.2243 25.6993 46.5704L24.4526 47.5276C11.4179 57.5355 4 70.2169 4 83.6742C4 97.2063 11.5014 109.955 24.6715 119.988L25.5019 120.621ZM25.775 46.437C25.8038 46.3866 25.8327 46.3362 25.8617 46.2859C32.0774 35.52 43.6874 29.0992 57.8433 27.207C66.2636 16.2559 77.1625 9.4795 89.1089 9.02447L88.4891 8.76895C73.3367 2.52176 58.6811 2.45201 47.0499 9.1673C35.4123 15.8862 28.1433 28.6235 25.9817 44.8821L25.775 46.437ZM90.972 9.00492C103.203 9.21359 114.373 16.0475 122.961 27.2263C136.765 29.1036 148.133 35.2969 154.414 45.6353L154.348 45.1195C152.244 28.6976 144.954 15.8268 133.235 9.06078C121.541 2.30966 106.79 2.41616 91.5519 8.76339L90.972 9.00492ZM155.435 47.4393C160.959 57.9301 160.582 70.6357 155.422 83.2997C160.803 96.1638 161.264 109.104 155.633 119.755L155.645 119.746C168.619 109.749 176 97.0981 176 83.6742C176 70.325 168.702 57.7413 155.862 47.7705L155.435 47.4393ZM154.13 122.318C147.715 132.232 136.487 138.162 122.936 139.95C114.285 151.195 103.02 158.034 90.6914 158.142L91.5413 158.493C106.718 164.769 121.401 164.849 133.05 158.124C144.692 151.402 151.963 138.657 154.121 122.388L154.13 122.318ZM47.9262 108.907L48.1513 110.543C49.6264 121.269 54.4208 129.471 61.8819 133.779C69.3594 138.096 78.8863 138.138 88.9367 134.025L90.4595 133.402L91.98 134.031C102.09 138.211 111.681 138.192 119.198 133.852C126.712 129.514 131.522 121.224 132.96 110.388L133.177 108.752L134.484 107.745C143.126 101.087 147.886 92.7877 147.886 84.1243C147.886 75.509 143.18 67.2557 134.629 60.6155L133.324 59.6025L133.114 57.9644C131.713 47.0233 126.888 38.6514 119.325 34.285C111.778 29.928 102.142 29.9258 91.9903 34.1545L90.4601 34.7919L88.9276 34.1601C78.8346 29.9989 69.2618 30.024 61.7554 34.3578C54.245 38.694 49.4356 46.9784 47.9958 57.8083L47.7779 59.4471L46.4666 60.4538C37.7838 67.1204 33 75.4395 33 84.1243C33 92.8573 37.8378 101.222 46.6125 107.906L47.9262 108.907ZM29.0052 84.6609L28.9288 84.8434C23.6917 97.363 23.6317 109.384 29.1014 118.857C34.4819 128.177 44.6719 134.094 57.8163 135.926C50.2332 130.606 45.6521 121.729 44.1886 111.088C34.8952 104.009 29.2 94.7768 29.0052 84.6609ZM29.073 82.1096C29.7617 72.6306 35.2834 63.9972 44.0306 57.2811C45.5714 45.6923 50.7933 36.1703 59.548 31.0147L58.3732 31.1717C45.0675 32.9503 34.7518 38.8877 29.3258 48.2859C23.93 57.6316 23.9157 69.4523 28.943 81.7904L29.073 82.1096ZM60.2823 30.5971C69.0611 25.7796 79.7808 26.0624 90.4522 30.4621C100.945 26.0915 111.494 25.696 120.21 30.2108L119.79 29.6633C111.589 18.9891 101.269 13 90.395 13C79.5273 13 69.213 18.9823 61.0143 29.6452L60.2823 30.5971ZM121.808 31.1062C130.458 36.3356 135.599 45.8776 137.082 57.4562C145.557 64.0372 150.951 72.4324 151.776 81.6482C156.745 69.3615 156.71 57.5956 151.335 48.2857C145.927 38.9192 135.663 32.9906 122.422 31.1898L121.808 31.1062ZM151.866 85.1674C151.498 95.0022 145.929 103.976 136.925 110.914C135.514 121.553 131.001 130.452 123.501 135.831C136.328 133.895 146.269 128.021 151.56 118.857C156.982 109.465 156.97 97.5703 151.866 85.1674ZM119.035 138.442C110.564 142.387 100.485 141.876 90.4516 137.727C80.2534 141.9 70.0184 142.31 61.4824 138.099C69.604 148.385 79.7331 154.143 90.395 154.143C100.938 154.143 110.96 148.513 119.035 138.442Z" fill="white"/>
</svg>
