<svg width="160" height="160" viewBox="0 0 160 160" fill="none" xmlns="http://www.w3.org/2000/svg">
<path fill-rule="evenodd" clip-rule="evenodd" d="M80 160C124.183 160 160 124.183 160 80C160 35.8172 124.183 0 80 0C35.8172 0 0 35.8172 0 80C0 124.183 35.8172 160 80 160ZM65.6824 114.295L65.7085 114.323L65.7358 114.35C66.731 115.346 67.9932 115.831 69.3929 115.831C70.5244 115.831 71.6028 115.522 72.5035 114.802C73.2988 114.165 73.8733 113.349 74.1969 112.383L74.1995 112.376L95.3973 50.382L95.3995 50.3755C95.589 49.8068 95.7307 49.2022 95.7307 48.6133C95.7307 47.2488 95.2333 46.0329 94.2768 45.0633C93.319 44.0347 92.0597 43.5556 90.6729 43.5556C89.5415 43.5556 88.463 43.8646 87.5623 44.5851C86.7668 45.2216 86.1921 46.0381 85.8686 47.0046L85.8664 47.0112L64.6685 109.005L64.6664 109.011C64.4768 109.58 64.3351 110.184 64.3351 110.773C64.3351 112.103 64.7809 113.311 65.6824 114.295ZM20.8043 88.8688L52.7901 103.218L52.8424 103.238C53.455 103.468 54.0927 103.591 54.7467 103.591C56.0767 103.591 57.2911 103.143 58.2437 102.19C59.2178 101.216 59.7244 99.9906 59.7244 98.6133C59.7244 97.5742 59.3777 96.628 58.7545 95.8187C58.1947 94.9726 57.4294 94.3366 56.4916 93.9412L31.3639 82.7733L56.4914 71.6056C57.4073 71.2198 58.1795 70.621 58.7536 69.8063C59.3649 68.961 59.7244 67.9929 59.7244 66.9333C59.7244 65.5789 59.2321 64.3685 58.2445 63.4355C57.3115 62.4479 56.1011 61.9556 54.7467 61.9556C54.0927 61.9556 53.455 62.079 52.8424 62.3088L52.79 62.3284L20.8043 76.6779L20.7897 76.6848C19.6337 77.2288 18.6662 78.0034 17.94 79.02L17.9324 79.0307L17.925 79.0414C17.2235 80.0547 16.8889 81.2137 16.8889 82.4533V83.0933C16.8889 84.3332 17.2228 85.4948 17.8912 86.5347L17.9318 86.5978L17.9776 86.6573C18.707 87.6056 19.6645 88.3324 20.7897 88.8619L20.8043 88.8688ZM101.683 102.192L101.631 102.135C100.73 101.151 100.284 99.9431 100.284 98.6133C100.284 97.6019 100.587 96.6605 101.165 95.8338L101.174 95.8207L101.184 95.8077C101.789 94.9761 102.571 94.3399 103.517 93.9412L128.644 82.7733L103.517 71.6057C102.615 71.2258 101.845 70.6482 101.233 69.8839L101.173 69.8089L101.122 69.7278C100.583 68.8815 100.284 67.9406 100.284 66.9333C100.284 65.6033 100.732 64.3889 101.685 63.4363C102.659 62.4622 103.884 61.9556 105.262 61.9556C105.939 61.9556 106.611 62.0688 107.242 62.3393L107.256 62.3452L139.204 76.6779L139.219 76.6848C140.364 77.2239 141.316 77.9983 141.996 79.0295C142.747 80.0321 143.119 81.1952 143.119 82.4533V83.0933C143.119 84.3709 142.737 85.5541 141.996 86.5958C141.307 87.586 140.351 88.329 139.219 88.8619L139.204 88.8688L107.256 103.201L107.242 103.207C106.611 103.478 105.939 103.591 105.262 103.591C103.932 103.591 102.724 103.145 101.74 102.244L101.683 102.192Z" fill="white"/>
</svg>
