<?xml version="1.0" encoding="utf-8"?>
<!-- Generator: Adobe Illustrator 24.0.0, SVG Export Plug-In . SVG Version: 6.00 Build 0)  -->
<svg version="1.1" id="Layer_1" xmlns="http://www.w3.org/2000/svg" xmlns:xlink="http://www.w3.org/1999/xlink" x="0px" y="0px"
	 viewBox="0 0 180 180" style="enable-background:new 0 0 180 180;" xml:space="preserve">
<style type="text/css">
	.st0{fill:#FFFFFF;}
</style>
<g>
	<g>
		<path class="st0" d="M79.4,128.3c-2.1,0-3.9-0.8-5.4-2.2c0,0-0.1-0.1-0.1-0.1c0,0,0,0,0,0c-1.3-1.4-2-3.2-2-5.1
			c0-0.8,0.2-1.6,0.5-2.5l23.1-67.5c0,0,0,0,0,0c0.5-1.4,1.3-2.6,2.5-3.5c1.3-1,2.9-1.5,4.6-1.5c2.1,0,4,0.8,5.3,2.3
			c1.4,1.4,2.1,3.2,2.1,5.2c0,0.8-0.1,1.6-0.5,2.5c0,0,0,0,0,0.1l-23.1,67.5c-0.5,1.4-1.3,2.6-2.5,3.5
			C82.8,127.8,81.2,128.3,79.4,128.3z M76.8,123.4L76.8,123.4c0.7,0.7,1.6,1.1,2.6,1.1c0.9,0,1.6-0.2,2.2-0.7c0.6-0.5,1-1,1.2-1.7
			l23.1-67.5c0,0,0,0,0,0c0.2-0.5,0.3-1,0.3-1.3c0-1-0.3-1.8-1-2.5c-0.7-0.7-1.5-1.1-2.5-1.1c-0.9,0-1.6,0.2-2.2,0.7
			c-0.6,0.5-1,1-1.2,1.7c0,0,0,0.1,0,0.1l-23,67.4c-0.2,0.5-0.3,1-0.3,1.3C75.9,121.8,76.2,122.7,76.8,123.4z M118.5,115
			c-2,0-3.7-0.7-5.1-2c0,0-0.1-0.1-0.2-0.2l-0.1-0.1c-1.3-1.4-2-3.2-2-5.1c0-1.5,0.4-2.9,1.3-4.1c0,0,0.1-0.1,0.1-0.1
			c0.8-1.2,2-2.1,3.3-2.6l23.3-10.4L115.8,80c-1.3-0.5-2.3-1.4-3.2-2.4l-0.1-0.1c0-0.1-0.1-0.1-0.1-0.2l-0.1-0.1
			c-0.8-1.2-1.2-2.6-1.2-4.1c0-2,0.7-3.8,2.1-5.2c1.4-1.4,3.2-2.2,5.3-2.2c1,0,2,0.2,2.9,0.6L156.2,82c1.6,0.8,2.9,1.8,3.8,3.2
			c1,1.4,1.6,3.1,1.6,4.8v0.7c0,1.8-0.5,3.5-1.6,4.9c-0.9,1.3-2.2,2.3-3.8,3.1l-34.8,15.6c0,0-0.1,0-0.1,0
			C120.5,114.8,119.5,115,118.5,115z M116,110.1L116,110.1c0.7,0.6,1.5,1,2.5,1c0.5,0,1-0.1,1.4-0.3c0,0,0,0,0,0l34.7-15.6
			c1-0.5,1.7-1.1,2.2-1.8c0.6-0.8,0.9-1.7,0.9-2.7V90c0-1-0.3-1.8-0.8-2.6c0,0,0-0.1-0.1-0.1c-0.5-0.8-1.3-1.4-2.2-1.9l-34.8-15.6
			c-0.4-0.2-0.9-0.3-1.4-0.3c-1,0-1.8,0.4-2.5,1c-0.6,0.6-1,1.5-1,2.4c0,0.7,0.2,1.4,0.6,2l0,0c0.5,0.6,1,1,1.7,1.3l27.4,12.2
			c0.7,0.3,1.1,1,1.1,1.8c0,0.8-0.5,1.5-1.1,1.8l-27.4,12.2c-0.7,0.3-1.3,0.8-1.8,1.4c0,0,0,0,0,0c-0.4,0.6-0.6,1.2-0.6,1.9
			C115,108.6,115.3,109.4,116,110.1z M61.5,115c-0.9,0-1.9-0.2-2.8-0.5c0,0-0.1-0.1-0.2-0.1L23.8,98.8c0,0,0,0,0,0l0,0
			c-1.5-0.7-2.8-1.7-3.8-3c0,0-0.1-0.2-0.1-0.2c-1-1.5-1.4-3.1-1.4-4.9V90c0-1.8,0.5-3.4,1.5-4.8c1-1.4,2.3-2.5,3.9-3.2l34.9-15.6
			c0,0,0.1,0,0.1,0c3.1-1.1,6-0.4,8,1.6c1.4,1.4,2.2,3.2,2.2,5.2c0,1.5-0.5,3-1.4,4.3c-0.8,1.2-1.9,2-3.3,2.6L40.8,90.4l23.4,10.4
			c1.3,0.6,2.4,1.5,3.3,2.7c0.9,1.2,1.4,2.7,1.4,4.2c0,2-0.8,3.8-2.2,5.3C65.3,114.2,63.5,115,61.5,115z M60.1,110.8
			c1.6,0.6,2.9,0.2,3.8-0.7c0.7-0.7,1-1.5,1-2.5c0-0.7-0.2-1.3-0.7-1.9c0,0-0.1-0.1-0.1-0.1c-0.4-0.6-0.9-1-1.6-1.3L35.3,92.1
			c-0.7-0.3-1.1-1-1.1-1.8c0-0.8,0.5-1.5,1.1-1.8l27.4-12.2c0.7-0.3,1.3-0.7,1.7-1.3c0.5-0.7,0.7-1.3,0.7-2c0-1-0.3-1.8-1-2.4
			c0,0-0.1-0.1-0.1-0.1c-0.6-0.7-1.4-1-2.4-1c-0.5,0-0.9,0.1-1.4,0.3L25.4,85.5c-1,0.5-1.8,1.1-2.3,1.9c-0.5,0.8-0.8,1.6-0.8,2.6
			v0.7c0,1,0.3,1.9,0.8,2.7c0.6,0.8,1.4,1.4,2.4,1.8L60.1,110.8z"/>
	</g>
	<g>
		<path class="st0" d="M122.1,171.4H57.9c-9.2,0-17.7-4.9-22.3-12.9L3.4,102.9c-4.6-7.9-4.6-17.8,0-25.7l32.1-55.7
			c4.6-7.9,13.1-12.9,22.3-12.9h64.3c9.2,0,17.7,4.9,22.3,12.9l32.1,55.7c4.6,7.9,4.6,17.8,0,25.7l-32.1,55.7
			C139.8,166.5,131.3,171.4,122.1,171.4z M57.9,12.6c-7.8,0-15,4.2-18.9,10.9L6.9,79.1C3,85.8,3,94.2,6.9,100.9L39,156.6
			c3.9,6.7,11.1,10.9,18.9,10.9h64.3c7.8,0,15-4.2,18.9-10.9l32.1-55.7c3.9-6.7,3.9-15.1,0-21.8L141,23.4
			c-3.9-6.7-11.1-10.9-18.9-10.9H57.9z"/>
	</g>
</g>
</svg>
