<?xml version="1.0" encoding="utf-8"?>
<!-- Generator: Adobe Illustrator 16.0.0, SVG Export Plug-In . SVG Version: 6.00 Build 0)  -->
<!DOCTYPE svg PUBLIC "-//W3C//DTD SVG 1.1//EN" "http://www.w3.org/Graphics/SVG/1.1/DTD/svg11.dtd">
<svg version="1.1" id="Capa_1" xmlns="http://www.w3.org/2000/svg" xmlns:xlink="http://www.w3.org/1999/xlink" x="0px" y="0px"
	 width="200px" height="200px" viewBox="0 0 200 200" enable-background="new 0 0 200 200" xml:space="preserve">
<g>
	<path fill="#81BBB0" d="M199.818,72.072c-0.141-9.226-0.532-18.59-2.249-27.619c-3.797-19.983-15.599-33.613-35.035-40.318
		c-10.024-3.458-20.489-3.809-30.912-3.922C111.761-0.004,91.894-0.12,72.037,0.184c-9.234,0.141-18.612,0.526-27.646,2.26
		C24.498,6.263,10.881,17.994,4.174,37.32c-3.499,10.084-3.848,20.61-3.961,31.098C0,88.186-0.12,107.96,0.182,127.724
		c0.141,9.226,0.688,18.548,2.23,27.625c2.582,15.177,10.676,27.128,23.931,35.261c10.114,6.203,21.411,8.307,33.067,8.641
		c13.5,0.388,27.007,0.512,40.511,0.75c0.001-0.094,0.002-0.188,0.003-0.28c9.348,0,18.707,0.285,28.039-0.08
		c9.239-0.362,18.615-0.547,27.646-2.28c19.896-3.819,33.515-15.555,40.221-34.884c3.498-10.084,3.845-20.608,3.958-31.097
		C200,111.613,200.12,91.837,199.818,72.072z M181.003,143.99c-0.547,11.274-4.132,21.442-13.419,28.818
		c-5.729,4.549-12.396,6.876-19.521,7.577c-7.688,0.757-15.432,1.181-23.156,1.265c-16.577,0.184-33.163,0.281-49.735-0.031
		c-9.165-0.176-18.479-0.394-27.434-2.11c-16.658-3.194-26.808-14.799-28.287-31.751c-1-11.456-1.264-23.005-1.305-34.514
		c-0.063-18.086,0.203-36.178,0.633-54.26c0.112-4.761,0.859-9.629,2.14-14.218c3.993-14.325,13.868-22.608,28.327-24.851
		c8.469-1.313,17.144-1.615,25.734-1.749c16.648-0.257,33.307-0.298,49.954,0.013c9.093,0.169,18.327,0.401,27.219,2.082
		c16.657,3.148,26.719,14.792,28.436,31.678c0.766,7.532,1.057,15.125,1.257,22.699c0.207,7.875,0.045,15.76,0.045,23.639
		c0.136,0.004,0.271,0.006,0.406,0.008C181.893,113.521,181.741,128.77,181.003,143.99z"/>
	<path fill="#81BBB0" d="M98.732,46.853C69.867,46.82,46.807,69.427,46.795,97.767c-0.012,28.763,22.672,51.661,51.186,51.67
		c28.386,0.011,51.469-22.715,51.499-50.7C149.512,69.992,126.907,46.884,98.732,46.853z M98.181,131.423
		c-18.25,0.038-33.321-14.979-33.354-33.235c-0.032-18.25,14.959-33.266,33.269-33.322c18.24-0.057,33.321,14.97,33.355,33.232
		C131.483,116.342,116.466,131.386,98.181,131.423z"/>
	<path fill="#81BBB0" d="M151.723,32.845c-6.77-0.058-12.174,5.138-12.304,11.828c-0.129,6.563,5.312,12.112,11.988,12.231
		c6.504,0.115,12.019-5.272,12.095-11.817C163.582,38.218,158.468,32.902,151.723,32.845z"/>
</g>
</svg>
