<?xml version="1.0" encoding="utf-8"?>
<!-- Generator: Adobe Illustrator 16.0.0, SVG Export Plug-In . SVG Version: 6.00 Build 0)  -->
<!DOCTYPE svg PUBLIC "-//W3C//DTD SVG 1.1//EN" "http://www.w3.org/Graphics/SVG/1.1/DTD/svg11.dtd">
<svg version="1.1" id="Capa_1" xmlns="http://www.w3.org/2000/svg" xmlns:xlink="http://www.w3.org/1999/xlink" x="0px" y="0px"
	 width="200px" height="200px" viewBox="189.574 189.574 200 200" enable-background="new 189.574 189.574 200 200"
	 xml:space="preserve">
<g>
	<path fill-rule="evenodd" clip-rule="evenodd" fill="#3b3a36" d="M389.393,262.646c-0.141-9.225-0.533-18.59-2.249-27.618
		c-3.797-19.984-15.599-33.614-35.036-40.319c-10.024-3.458-20.489-3.808-30.912-3.922c-19.861-0.217-39.728-0.333-59.585-0.029
		c-9.234,0.141-18.612,0.526-27.645,2.26c-19.894,3.819-33.511,15.55-40.218,34.877c-3.499,10.083-3.847,20.61-3.961,31.097
		c-0.213,19.768-0.333,39.542-0.031,59.306c0.141,9.225,0.688,18.547,2.231,27.625c2.581,15.177,10.675,27.128,23.93,35.26
		c10.114,6.204,21.411,8.307,33.067,8.641c13.5,0.388,27.007,0.512,40.511,0.75c0.001-0.094,0.002-0.187,0.003-0.28
		c9.348,0,18.707,0.285,28.039-0.08c9.239-0.362,18.615-0.547,27.646-2.281c19.896-3.819,33.514-15.554,40.22-34.883
		c3.498-10.084,3.845-20.609,3.958-31.097C389.574,302.187,389.694,282.411,389.393,262.646z M370.577,334.564
		c-0.547,11.275-4.132,21.443-13.419,28.819c-5.728,4.548-12.396,6.876-19.52,7.577c-7.688,0.757-15.432,1.18-23.157,1.265
		c-16.577,0.183-33.162,0.281-49.735-0.032c-9.165-0.175-18.479-0.393-27.434-2.11c-16.658-3.194-26.807-14.799-28.286-31.751
		c-1-11.456-1.264-23.005-1.305-34.514c-0.064-18.086,0.203-36.178,0.632-54.26c0.113-4.76,0.86-9.628,2.14-14.217
		c3.994-14.325,13.868-22.609,28.328-24.851c8.468-1.313,17.143-1.615,25.734-1.749c16.648-0.257,33.307-0.297,49.954,0.013
		c9.093,0.169,18.327,0.401,27.219,2.082c16.657,3.149,26.718,14.792,28.435,31.678c0.766,7.532,1.057,15.125,1.257,22.699
		c0.207,7.875,0.045,15.759,0.045,23.639c0.136,0.003,0.271,0.006,0.406,0.008C371.467,304.096,371.315,319.344,370.577,334.564z"/>
	<path fill-rule="evenodd" clip-rule="evenodd" fill="#3b3a36" d="M288.307,237.427c-28.866-0.032-51.926,22.574-51.938,50.914
		c-0.012,28.762,22.672,51.661,51.185,51.67c28.386,0.01,51.469-22.715,51.5-50.701
		C339.086,260.567,316.481,237.458,288.307,237.427z M287.755,321.997c-18.25,0.038-33.321-14.979-33.354-33.236
		c-0.033-18.249,14.959-33.265,33.268-33.322c18.24-0.056,33.321,14.97,33.355,33.233
		C321.058,306.916,306.04,321.96,287.755,321.997z"/>
	<path fill-rule="evenodd" clip-rule="evenodd" fill="#3b3a36" d="M341.297,223.419c-6.77-0.058-12.174,5.137-12.304,11.828
		c-0.129,6.563,5.312,12.113,11.988,12.231c6.504,0.116,12.019-5.272,12.095-11.817
		C353.156,228.792,348.042,223.477,341.297,223.419z"/>
</g>
</svg>
