<?xml version="1.0" encoding="utf-8"?>
<!-- Generator: Adobe Illustrator 16.0.0, SVG Export Plug-In . SVG Version: 6.00 Build 0)  -->
<!DOCTYPE svg PUBLIC "-//W3C//DTD SVG 1.1//EN" "http://www.w3.org/Graphics/SVG/1.1/DTD/svg11.dtd">
<svg version="1.1" id="Layer_1" xmlns="http://www.w3.org/2000/svg" xmlns:xlink="http://www.w3.org/1999/xlink" x="0px" y="0px"
	 width="300px" height="200px" viewBox="0 0 300 200" enable-background="new 0 0 300 200" xml:space="preserve">
<g>
	<path fill="#3b3a36" d="M257.578,71.116c0.804-5.898-0.229-12.832-2.904-19.519c-4.599-11.569-13.508-17.435-26.478-17.435
		c-4.85,0-9.441,0.804-12.773,1.387c-0.587,0.098-1.253,0.196-1.919,0.293c-0.347,0.051-0.698,0.103-1.043,0.155
		c-2.938-5.466-10.46-17.74-26.139-17.74h-0.25c-15.747,0-24.213,8.234-29.309,15.617c-6.51-6.799-15.139-10.502-24.635-10.502
		c-1.089,0-2.2,0.05-3.271,0.146c-1.487,0.114-2.962,0.326-4.443,0.638c0.893-3.463,0.534-6.35,0.365-7.708l-0.026-0.166
		c-1.714-8.854-9.866-15.53-18.962-15.53c-3.369,0-14.367,1.262-18.925,16.973c-4.143-0.143-7.73-0.718-9.717-1.198
		C75.226,8.984,68.893-1.5,58.271-1.5c-2.861,0-5.467,0.675-7.93,2.044c-8.255,4.403-12.736,10.038-13.319,16.763
		c-0.539,6.74,3.554,12.208,6.302,15.073c-3.917,10.246-10.874,37.161-1.51,54.59c3.824,7.104,11.91,15.571,28.713,15.571
		c1.179,0,2.394,0,3.842-0.197c-2.753,12.644,1.4,23.881,11.714,31.247c6.461,4.598,14.984,7.13,23.998,7.13
		c9.831,0,19.286-2.994,26.97-8.486c5.763,11.987,15.119,17.827,28.513,17.827c1.276,0,2.596,0,4.201-0.25l0.439-0.03
		c8.334-1.301,19.815-6.546,27.59-12.495c6.161,4.761,15.554,8.069,25.141,8.769c1.174,0.073,2.343,0.11,3.475,0.11c0,0,0,0,0.001,0
		c11.23,0,20.155-3.613,25.814-10.449c10.721-11.35,8.854-37.639-0.062-52.853C254.94,80.22,256.87,76.082,257.578,71.116z
		 M56.052,34.966c2.018-2.827,1.323-6.666-1.582-8.739c-1.76-1.256-5.29-4.724-4.972-7.426l0.012-0.126
		c0.091-1.366,1.326-3.638,6.683-6.712c0.634-0.308,1.231-0.458,1.826-0.458c3.127,0,6.588,6.105,7.023,9.815
		c0.795,6.354,8.642,9.442,23.99,9.442h3.001c2.919,0,5.544-2.372,5.965-5.33c1.254-7.312,4.167-11.677,7.791-11.677
		c3.021,0,6.259,2.604,6.812,5.544c0.705,3.172-2.489,6.69-8.547,9.416c-2.152,0.889-3.767,3.263-3.767,5.511
		c-0.003,0.137-0.477,14.377-4.41,28.88c-1.751,6.308-5.769,17.702-13.109,23.736c-0.914,0.385-1.724,0.971-2.358,1.703
		c-2.406,1.149-4.62,1.803-6.747,1.993c-0.716,0.007-1.35,0.077-1.912,0.14c-0.53,0.059-0.988,0.11-1.476,0.11
		c-8.927,0-14.495-2.819-17.542-8.914C44.736,66.588,53.592,38.544,56.052,34.966z M89.491,97.709
		c13.446-9.888,19.22-30.902,21.699-47.085c0.144-0.257,0.232-0.511,0.284-0.746c2.502-7.233,9.772-12.474,18.569-13.376
		c0.777-0.076,1.559-0.114,2.323-0.114c8.242,0,15.347,4.399,19.494,12.071l0.056,0.098c1.19,1.982,3.258,3.213,5.396,3.213
		c2.496,0,4.592-1.306,5.51-3.421c5.226-9.694,10.287-17.113,23.253-17.336h0.248c8.77,0,12.886,7.13,15.609,11.849l0.214,0.37
		c1.312,2.364,2.797,5.041,6.006,5.502c0.756,0.159,1.541,0.237,2.396,0.237c2.026,0,4.233-0.441,6.949-0.985
		c3.269-0.544,7.075-1.102,10.529-1.102c7.885,0,12.37,2.857,15.02,9.609c1.952,4.64,2.714,9.324,2.087,12.877
		c-0.62,3.726-2.136,5.987-4.714,7.092c-1.976,0.79-3.352,2.461-3.773,4.579c-0.396,1.965,0.248,4.077,1.683,5.513
		c4.504,4.505,7.682,12.796,8.499,22.178c0.746,8.56-0.76,16.317-3.747,19.305l-0.437,0.458c-3.114,3.893-9.22,6.125-16.751,6.125
		c-0.712,0-1.435-0.021-2.133-0.058c-11.246-0.765-18.715-5.333-20.196-8.13c-0.909-1.813-3.006-3.13-4.985-3.13
		c-1.414,0-3.263,0.226-5.02,1.986l-0.069,0.072c-5.393,5.854-17.938,11.75-25.214,12.962c-1,0.068-1.965,0.104-2.868,0.104
		c-10.633,0.001-15.857-4.676-19.966-17.869l-0.065-0.186c-0.845-2.112-2.557-3.616-4.586-4.025c-0.37-0.073-0.754-0.11-1.143-0.11
		c-1.873,0-3.687,0.846-4.768,2.215c-6.116,6.826-15.245,10.739-25.061,10.74c-6.362,0-12.259-1.665-16.597-4.682
		C85.207,118.875,83.861,109.13,89.491,97.709z"/>
	<path fill="#3b3a36" d="M282.788,31.905c-0.702-2.798-3.185-4.753-6.038-4.753c-0.502,0-1.006,0.062-1.444,0.172
		c-5.751,1.307-12.088,4.184-17.407,7.908c-2.902,2.076-3.597,5.914-1.545,8.787c1.254,1.67,3.218,2.75,5.002,2.75
		c1.343,0,2.619-0.462,3.549-1.277c3.876-2.557,8.678-4.744,13.23-6.025c1.499-0.247,2.814-1.101,3.72-2.423
		C282.872,35.558,283.222,33.638,282.788,31.905z"/>
	<path fill="#3b3a36" d="M85.092,138.826c-3.305-0.416-6.361,2.226-6.792,5.672l-0.04,0.493c-0.735,10.069-1.496,20.48-8.663,26.975
		l-0.091,0.087c-2.354,2.36-2.526,6.065-0.401,8.619l0.154,0.168c1.261,1.261,2.908,1.984,4.519,1.984
		c1.728,0,3.083-0.551,4.223-1.689c10.774-10.238,11.792-24.881,12.522-35.595C90.891,142.254,88.472,139.252,85.092,138.826z"/>
	<path fill="#3b3a36" d="M133.801,142.059l-0.312,0.02c-3.43,0.433-5.812,3.511-5.422,7.02c1.484,12.86,1.484,26.205,1.484,37.979
		c0,3.389,2.863,6.252,6.252,6.252c3.388,0,6.251-2.863,6.251-6.252c0-12.022,0-25.648-1.52-39.327
		C140.134,144.559,137.176,142.059,133.801,142.059z"/>
	<path fill="#3b3a36" d="M191.826,148.811c-3.389,0-6.252,2.862-6.252,6.25v36.768c0,3.389,2.863,6.252,6.252,6.252
		c3.388,0,6.25-2.863,6.25-6.252v-36.768C198.076,151.673,195.214,148.811,191.826,148.811z"/>
	<path fill="#3b3a36" d="M253.052,175.39l-0.836-1.554c-3.377-6.256-6.868-12.725-6.868-19.275c0-3.388-2.863-6.25-6.252-6.25
		s-6.251,2.862-6.251,6.25c0,10.301,4.959,19.284,8.944,26.503l0.096,0.173c0.266,0.53,0.532,0.997,0.799,1.465
		c0.226,0.395,0.453,0.79,0.679,1.241l0.091,0.165c1.188,1.984,3.257,3.217,5.396,3.217c0.999,0,2.143-0.398,2.88-0.771l0.109-0.059
		c1.459-0.832,2.55-2.237,2.991-3.856c0.403-1.477,0.247-3.004-0.437-4.33C254.07,177.415,253.546,176.371,253.052,175.39z"/>
</g>
</svg>
