<?xml version="1.0" encoding="utf-8"?>
<!-- Generator: Adobe Illustrator 23.0.6, SVG Export Plug-In . SVG Version: 6.00 Build 0)  -->
<svg version="1.1" id="Capa_1" xmlns="http://www.w3.org/2000/svg" xmlns:xlink="http://www.w3.org/1999/xlink" x="0px" y="0px"
	 viewBox="0 0 200 200" style="enable-background:new 0 0 200 200;" xml:space="preserve">
<style type="text/css">
	.st0{fill:#81BBB0;}
</style>
<g>
	<path id="LinkedIn_3_" class="st0" d="M200,121.6v73.9h-42.9v-69c0-17.4-6.2-29.1-21.7-29.1c-11.9,0-18.9,8-22,15.7
		c-1.1,2.8-1.5,6.6-1.5,10.5v72H69.1c0,0,0.6-116.8,0-128.9H112v18.3c-0.1,0.2-0.2,0.3-0.2,0.4h0.2v-0.4
		c5.7-8.8,15.9-21.3,38.6-21.3C178.9,63.6,200,82,200,121.6z M24.3,4.4C9.6,4.4,0,14.1,0,26.7C0,39.1,9.3,49,23.7,49H24
		c15,0,24.3-9.9,24.3-22.3C47.9,14.1,39,4.4,24.3,4.4z M2.6,195.6h42.9v-129H2.6V195.6z"/>
</g>
</svg>
