<?xml version="1.0" encoding="utf-8"?>
<!-- Generator: Adobe Illustrator 16.0.0, SVG Export Plug-In . SVG Version: 6.00 Build 0)  -->
<!DOCTYPE svg PUBLIC "-//W3C//DTD SVG 1.1//EN" "http://www.w3.org/Graphics/SVG/1.1/DTD/svg11.dtd">
<svg version="1.1" id="Layer_1" xmlns="http://www.w3.org/2000/svg" xmlns:xlink="http://www.w3.org/1999/xlink" x="0px" y="0px"
	 width="300px" height="200px" viewBox="-75 -50 300 200" enable-background="new -75 -50 300 200" xml:space="preserve">
<g>
	<path fill="#4C4C4D" d="M170.628,22.488c0.75-5.502-0.248-12.005-2.75-18.258c-7.755-19.507-26.513-16.256-36.517-14.505
		c-1.5,0.25-3.5,0.501-4.75,0.75c0-0.249-0.252-0.249-0.252-0.5c-2.75-5.252-9.503-17.507-24.51-17.507c0,0,0,0-0.249,0
		c-15.507,0-23.51,8.252-29.013,17.256c-6.752-8.503-16.756-13.006-28.011-12.004c-3.25,0.25-6.252,1-9.003,2.001
		c3.002-4.752,2.501-9.255,2.252-11.255c-1.501-7.753-8.754-13.505-16.507-13.505c-3.252,0-13.257,1.251-17.008,17.006
		c-6.002,0-11.754-1-13.755-1.75c-1.251-6.753-7.002-17.507-16.756-17.507c-2.251,0-4.502,0.499-6.753,1.75
		c-7.503,4.002-11.505,9.004-12.004,14.756c-0.5,6.253,3.751,11.505,6.752,14.256c-4.251,10.004-11.254,37.265-2.251,54.022
		c3.501,6.503,10.756,14.256,26.512,14.256l0,0c1.251,0,2.5,0,4.002-0.249c1,0,2.25-0.251,3.25-0.501
		c-4.251,13.255-0.75,24.761,9.754,32.263c13.006,9.254,35.265,9.505,50.522-3.253c4.001,10.007,11.254,19.261,27.51,19.261
		c1.253,0,2.502,0,4.001-0.251h0.253c8.004-1.25,20.257-6.752,28.011-13.254c5.501,5.001,15.007,8.754,25.262,9.503
		c12.002,0.75,21.506-2.501,27.261-9.503c10.502-11.006,7.753-38.017-1.501-51.772C167.627,31.992,169.879,27.742,170.628,22.488z
		 M-10.697,44.748c-1.25,0-2.25,0.25-3.501,0.25l0,0c-9.753,0-16.256-3.252-19.758-10.255c-8.503-16.256,0.75-45.519,3.501-49.52
		c1.25-1.751,0.751-4.002-1-5.252c-1.751-1.25-6.503-5.502-6.002-9.753c0.25-3.752,4.501-6.753,8.002-8.754
		c1.001-0.5,2.002-0.75,3.001-0.75c5.002,0,9.005,7.753,9.504,12.005c0.751,6.002,12.005,7.252,21.509,7.252c1,0,2.002,0,3.001,0
		c1.75,0,3.251-1.5,3.501-3.252c1.501-8.753,5.252-13.755,10.255-13.755c4.251,0,8.503,3.502,9.252,7.502
		c1.001,4.503-2.75,9.004-10.004,12.257c-1.25,0.499-2.251,2-2.251,3.25c0,0.25-0.499,14.756-4.501,29.512
		c-2.5,9.004-7.003,19.509-14.256,25.261c-0.75,0.25-1.501,0.751-2,1.5C-4.944,43.497-7.695,44.498-10.697,44.748z M160.375,81.513
		l-0.252,0.251c-4,5.001-11.752,7.502-21.006,7c-11.007-0.748-20.009-5.25-22.261-9.503c-0.501-0.999-1.752-1.75-2.75-1.75
		c-1.251,0-2.252,0.251-3.251,1.251c-5.755,6.251-19.01,12.505-26.762,13.755c-14.006,1.002-20.76-4.25-25.511-19.507
		c-0.5-1.251-1.501-2.25-2.751-2.503c-1.25-0.247-2.751,0.253-3.501,1.252C40.075,85.515,18.816,86.264,7.311,78.262
		c-9.254-6.503-10.753-17.758-4.252-30.513C16.565,38.245,22.067,16.486,24.318,1.48c0-0.25,0.25-0.25,0.25-0.501
		c2.751-8.252,11.004-14.256,20.76-15.256c10.253-1,19.257,4.002,24.259,13.256c0.751,1.251,2.002,2,3.252,2l0,0
		c1.5,0,2.75-0.75,3.251-2c5.251-9.754,11.006-18.508,25.511-18.757c0,0,0,0,0.249,0c10.506,0,15.258,8.754,18.009,13.506
		c1.249,2.25,2.251,4.002,4.252,4.251c2.249,0.5,4.751,0,8.502-0.75c12.007-2.001,23.261-2.751,28.265,10.004
		c1.999,4.752,2.999,10.004,2.248,14.256c-0.749,4.502-2.75,7.503-6.252,9.003c-1.251,0.5-2.001,1.501-2.25,2.752
		c-0.252,1.25,0.249,2.5,0.999,3.251C166.376,47.249,167.878,74.011,160.375,81.513z"/>
	<path fill="#4C4C4D" d="M194.89-14.777c-0.501-2.001-2.502-3.251-4.503-2.751c-5.502,1.25-11.506,4.002-16.507,7.503
		c-1.749,1.251-2.25,3.501-1,5.252c0.751,1,2,1.751,3.003,1.751c0.748,0,1.499-0.25,2-0.75c4.501-3.001,9.751-5.252,14.257-6.503
		C194.14-10.525,195.39-12.776,194.89-14.777z"/>
	<path fill="#4C4C4D" d="M1.31,90.017c-2.002-0.251-3.752,1.501-4.002,3.502c-0.75,10.253-1.501,21.759-9.504,29.01
		c-1.5,1.503-1.5,3.751-0.25,5.254c0.75,0.749,1.75,1.251,2.751,1.251c1,0,1.75-0.251,2.501-1.002
		C2.81,118.528,3.81,105.022,4.56,94.019C4.811,92.02,3.31,90.268,1.31,90.017z"/>
	<path fill="#4C4C4D" d="M49.328,96.268c-2,0.253-3.501,2.003-3.251,4.253c1.501,13.005,1.501,26.261,1.501,38.265
		c0,2.003,1.75,3.753,3.752,3.753c2,0,3.751-1.75,3.751-3.753c0-12.004,0-25.509-1.5-39.016C53.33,97.77,51.33,96.268,49.328,96.268
		z"/>
	<path fill="#4C4C4D" d="M107.353,103.021c-2,0-3.752,1.752-3.752,3.751v36.767c0,1.999,1.752,3.751,3.752,3.751
		s3.751-1.752,3.751-3.751v-36.767C111.104,104.773,109.353,103.021,107.353,103.021z"/>
	<path fill="#4C4C4D" d="M166.376,125.28c-3.752-7-8.001-14.256-8.001-22.008c0-2.003-1.751-3.751-3.752-3.751
		c-2.003,0-3.751,1.748-3.751,3.751c0,9.753,4.75,18.259,8.753,25.51c0.498,1.001,0.999,1.75,1.5,2.751
		c0.75,1.251,2,2.001,3.252,2.001c0.5,0,1.249-0.248,1.751-0.501c1.75-0.998,2.501-3.25,1.499-5.002
		C167.377,127.281,166.877,126.279,166.376,125.28z"/>
</g>
</svg>
