<svg width="1200" height="1000" viewBox="0 0 1200 1000" fill="none" xmlns="http://www.w3.org/2000/svg">
<path d="M783.374 477.586C783.374 461.08 796.749 447.7 813.248 447.7H1067.18C1083.68 447.7 1097.05 461.08 1097.05 477.586C1097.05 494.091 1083.68 507.471 1067.18 507.471H813.248C796.749 507.471 783.374 494.091 783.374 477.586Z" fill="white"/>
<path fill-rule="evenodd" clip-rule="evenodd" d="M1067.18 542.961H813.248C799.843 542.961 788.976 553.832 788.976 567.243C788.976 580.654 799.843 591.525 813.248 591.525H1067.18C1080.59 591.525 1091.45 580.654 1091.45 567.243C1091.45 553.832 1080.59 542.961 1067.18 542.961ZM813.248 537.357C796.749 537.357 783.374 550.737 783.374 567.243C783.374 583.748 796.749 597.129 813.248 597.129H1067.18C1083.68 597.129 1097.05 583.748 1097.05 567.243C1097.05 550.737 1083.68 537.357 1067.18 537.357H813.248Z" fill="white"/>
<path d="M100 245.971C100 241.845 103.344 238.5 107.469 238.5H447.289C451.413 238.5 454.757 241.845 454.757 245.971V320.686C454.757 324.812 451.413 328.157 447.289 328.157H107.469C103.344 328.157 100 324.812 100 320.686V245.971Z" fill="white"/>
<path d="M100 363.646C100 359.52 103.344 356.175 107.469 356.175H447.289C451.413 356.175 454.757 359.52 454.757 363.646V408.475C454.757 412.601 451.413 415.946 447.289 415.946H107.469C103.344 415.946 100 412.601 100 408.475V363.646Z" fill="white"/>
<path d="M100 451.436C100 447.309 103.344 443.964 107.469 443.964H447.289C451.413 443.964 454.757 447.309 454.757 451.436V481.321C454.757 485.448 451.413 488.793 447.289 488.793H107.469C103.344 488.793 100 485.448 100 481.321V451.436Z" fill="white"/>
<path d="M100 524.282C100 520.156 103.344 516.811 107.469 516.811H447.289C451.413 516.811 454.757 520.156 454.757 524.282V535.489C454.757 539.616 451.413 542.961 447.289 542.961H107.469C103.344 542.961 100 539.616 100 535.489V524.282Z" fill="white"/>
<path d="M100 578.45C100 574.324 103.344 570.979 107.469 570.979H447.289C451.413 570.979 454.757 574.324 454.757 578.45V589.657C454.757 593.783 451.413 597.129 447.289 597.129H107.469C103.344 597.129 100 593.783 100 589.657V578.45Z" fill="white"/>
<path fill-rule="evenodd" clip-rule="evenodd" d="M499.569 245.971C499.569 241.845 502.912 238.5 507.037 238.5H731.094C735.219 238.5 738.563 241.845 738.563 245.971V589.657C738.563 593.783 735.219 597.129 731.094 597.129H507.037C502.912 597.129 499.569 593.783 499.569 589.657V245.971ZM527.576 440.229C527.576 436.102 530.919 432.757 535.044 432.757H703.087C707.212 432.757 710.556 436.102 710.556 440.229V449.568C710.556 453.694 707.212 457.039 703.087 457.039H535.044C530.919 457.039 527.576 453.694 527.576 449.568V440.229ZM619.066 402.871C652.064 402.871 678.814 376.111 678.814 343.1C678.814 310.089 652.064 283.329 619.066 283.329C586.067 283.329 559.317 310.089 559.317 343.1C559.317 376.111 586.067 402.871 619.066 402.871Z" fill="white"/>
<path fill-rule="evenodd" clip-rule="evenodd" d="M230.7 754.029C259.574 754.029 282.98 730.613 282.98 701.729C282.98 672.844 259.574 649.429 230.7 649.429C201.826 649.429 178.42 672.844 178.42 701.729C178.42 730.613 201.826 754.029 230.7 754.029ZM230.7 761.5C263.699 761.5 290.449 734.739 290.449 701.729C290.449 668.718 263.699 641.957 230.7 641.957C197.701 641.957 170.951 668.718 170.951 701.729C170.951 734.739 197.701 761.5 230.7 761.5Z" fill="white"/>
<path fill-rule="evenodd" clip-rule="evenodd" d="M263.257 681.696C264.691 683.178 264.654 685.543 263.172 686.979L222.05 726.826C220.602 728.229 218.302 728.229 216.854 726.826L198.227 708.775C196.746 707.339 196.709 704.974 198.144 703.492C199.579 702.01 201.943 701.973 203.424 703.408L219.452 718.942L257.976 681.612C259.457 680.176 261.822 680.214 263.257 681.696Z" fill="white"/>
<path fill-rule="evenodd" clip-rule="evenodd" d="M380.071 754.029C408.945 754.029 432.351 730.613 432.351 701.729C432.351 672.844 408.945 649.429 380.071 649.429C351.198 649.429 327.791 672.844 327.791 701.729C327.791 730.613 351.198 754.029 380.071 754.029ZM380.071 761.5C413.07 761.5 439.82 734.739 439.82 701.729C439.82 668.718 413.07 641.957 380.071 641.957C347.073 641.957 320.323 668.718 320.323 701.729C320.323 734.739 347.073 761.5 380.071 761.5Z" fill="white"/>
<path fill-rule="evenodd" clip-rule="evenodd" d="M363.317 674.183C364.5 673.523 365.948 673.557 367.1 674.27L406.31 698.552C407.409 699.233 408.079 700.435 408.079 701.729C408.079 703.022 407.409 704.224 406.31 704.905L367.1 729.187C365.948 729.9 364.5 729.934 363.317 729.274C362.134 728.615 361.4 727.366 361.4 726.011V677.446C361.4 676.091 362.134 674.842 363.317 674.183ZM368.869 684.153V719.305L397.25 701.729L368.869 684.153Z" fill="white"/>
<path fill-rule="evenodd" clip-rule="evenodd" d="M529.443 754.029C558.317 754.029 581.723 730.613 581.723 701.729C581.723 672.844 558.317 649.429 529.443 649.429C500.569 649.429 477.163 672.844 477.163 701.729C477.163 730.613 500.569 754.029 529.443 754.029ZM529.443 761.5C562.441 761.5 589.191 734.739 589.191 701.729C589.191 668.718 562.441 641.957 529.443 641.957C496.444 641.957 469.694 668.718 469.694 701.729C469.694 734.739 496.444 761.5 529.443 761.5Z" fill="white"/>
<path fill-rule="evenodd" clip-rule="evenodd" d="M552.708 681.696C554.143 683.178 554.106 685.543 552.624 686.979L511.502 726.826C510.021 728.262 507.657 728.224 506.222 726.742C504.787 725.26 504.825 722.895 506.306 721.46L547.428 681.612C548.909 680.177 551.274 680.214 552.708 681.696Z" fill="white"/>
<path fill-rule="evenodd" clip-rule="evenodd" d="M506.951 680.967C508.432 679.531 510.796 679.569 512.231 681.051L552.064 722.189C553.499 723.671 553.461 726.036 551.98 727.471C550.498 728.907 548.134 728.869 546.699 727.387L506.867 686.249C505.432 684.767 505.47 682.402 506.951 680.967Z" fill="white"/>
<path d="M747.898 716.671C747.898 712.545 751.242 709.2 755.367 709.2H867.396C871.52 709.2 874.864 712.545 874.864 716.671C874.864 720.798 871.52 724.143 867.396 724.143H755.367C751.242 724.143 747.898 720.798 747.898 716.671Z" fill="white"/>
<path d="M747.898 683.05C747.898 678.924 751.242 675.579 755.367 675.579H949.55C953.675 675.579 957.018 678.924 957.018 683.05C957.018 687.176 953.675 690.521 949.55 690.521H755.367C751.242 690.521 747.898 687.176 747.898 683.05Z" fill="white"/>
<path fill-rule="evenodd" clip-rule="evenodd" d="M985.026 649.429H626.534V754.029H985.026V649.429ZM626.534 641.957C622.409 641.957 619.066 645.302 619.066 649.429V754.029C619.066 758.155 622.409 761.5 626.534 761.5H985.026C989.15 761.5 992.494 758.155 992.494 754.029V649.429C992.494 645.302 989.15 641.957 985.026 641.957H626.534Z" fill="white"/>
<path fill-rule="evenodd" clip-rule="evenodd" d="M663.011 700.447C663.011 698.384 664.682 696.711 666.745 696.711L708.993 696.711C711.056 696.711 712.728 698.383 712.728 700.447C712.728 702.51 711.056 704.182 708.993 704.182L666.745 704.182C664.682 704.182 663.011 702.51 663.011 700.447Z" fill="white"/>
<path fill-rule="evenodd" clip-rule="evenodd" d="M688.303 676.013C690.365 676.013 692.037 677.685 692.037 679.749L692.037 722.013C692.037 724.076 690.365 725.749 688.303 725.749C686.241 725.749 684.569 724.076 684.569 722.013L684.569 679.749C684.569 677.685 686.241 676.013 688.303 676.013Z" fill="white"/>
<path fill-rule="evenodd" clip-rule="evenodd" d="M865.528 247.839C822.218 247.839 787.108 282.963 787.108 326.289C787.108 369.616 822.218 404.739 865.528 404.739C908.839 404.739 943.948 369.616 943.948 326.289C943.948 282.963 908.839 247.839 865.528 247.839ZM779.64 326.289C779.64 278.836 818.094 240.368 865.528 240.368C912.963 240.368 951.417 278.836 951.417 326.289C951.417 373.742 912.963 412.211 865.528 412.211C818.094 412.211 779.64 373.742 779.64 326.289Z" fill="white"/>
<path fill-rule="evenodd" clip-rule="evenodd" d="M807.926 388.625L807.926 382.356L807.926 381.162H807.972C809.2 365.227 834.898 352.501 866.419 352.501C897.941 352.501 923.638 365.227 924.867 381.162H924.913V386.817C909.955 402.465 888.879 412.211 865.528 412.211C843.09 412.211 822.753 403.212 807.926 388.625ZM896.263 311.702C896.263 328.191 882.902 341.557 866.419 341.557C849.937 341.557 836.576 328.191 836.576 311.702C836.576 295.214 849.937 281.847 866.419 281.847C882.902 281.847 896.263 295.214 896.263 311.702Z" fill="white"/>
<path fill-rule="evenodd" clip-rule="evenodd" d="M813.527 386.227C827.186 398.881 845.45 406.607 865.528 406.607C886.492 406.607 905.48 398.184 919.311 384.523V381.879C919.299 381.784 919.289 381.689 919.282 381.592C918.898 376.618 914.434 370.755 904.531 365.884C894.923 361.158 881.495 358.104 866.419 358.104C851.344 358.104 837.916 361.158 828.307 365.884C818.405 370.755 813.94 376.618 813.557 381.592C813.549 381.689 813.54 381.784 813.527 381.879V382.335L813.527 382.351L813.527 386.227ZM807.926 382.356L807.926 381.162H807.972C809.2 365.227 834.898 352.501 866.419 352.501C897.941 352.501 923.638 365.227 924.867 381.162H924.913V386.817C909.955 402.465 888.879 412.211 865.528 412.211C843.09 412.211 822.753 403.212 807.926 388.625L807.926 382.356ZM866.419 335.953C879.808 335.953 890.662 325.096 890.662 311.702C890.662 298.308 879.808 287.451 866.419 287.451C853.031 287.451 842.177 298.308 842.177 311.702C842.177 325.096 853.031 335.953 866.419 335.953ZM866.419 341.557C882.902 341.557 896.263 328.191 896.263 311.702C896.263 295.214 882.902 281.847 866.419 281.847C849.937 281.847 836.576 295.214 836.576 311.702C836.576 328.191 849.937 341.557 866.419 341.557Z" fill="white"/>
<path fill-rule="evenodd" clip-rule="evenodd" d="M1037.84 272.121C1007.64 272.121 983.158 296.615 983.158 326.829C983.158 357.043 1007.64 381.536 1037.84 381.536C1068.05 381.536 1092.53 357.043 1092.53 326.829C1092.53 296.615 1068.05 272.121 1037.84 272.121ZM975.69 326.829C975.69 292.488 1003.52 264.65 1037.84 264.65C1072.17 264.65 1100 292.488 1100 326.829C1100 361.169 1072.17 389.008 1037.84 389.008C1003.52 389.008 975.69 361.169 975.69 326.829Z" fill="white"/>
<path fill-rule="evenodd" clip-rule="evenodd" d="M996.883 371.156V365.849H996.916C997.789 354.518 1016.06 345.468 1038.48 345.468C1060.89 345.468 1079.17 354.518 1080.04 365.849H1080.07V366.698V369.871C1069.44 380.998 1054.45 387.929 1037.84 387.929C1021.89 387.929 1007.43 381.529 996.883 371.156ZM1059.7 316.456C1059.7 328.181 1050.2 337.686 1038.48 337.686C1026.76 337.686 1017.26 328.181 1017.26 316.456C1017.26 304.731 1026.76 295.226 1038.48 295.226C1050.2 295.226 1059.7 304.731 1059.7 316.456Z" fill="white"/>
<path fill-rule="evenodd" clip-rule="evenodd" d="M1080.04 365.849C1079.17 354.518 1060.89 345.468 1038.48 345.468C1016.06 345.468 997.789 354.518 996.916 365.849H996.883V371.156C996.894 371.167 996.905 371.178 996.916 371.188C997.004 371.275 997.092 371.361 997.18 371.447C1007.7 381.649 1022.04 387.929 1037.84 387.929C1053.74 387.929 1068.14 381.582 1078.68 371.285C1079.14 370.832 1079.59 370.372 1080.04 369.905C1080.05 369.894 1080.06 369.882 1080.07 369.871V366.698V365.849H1080.04ZM1074.47 366.454C1074.47 366.396 1074.46 366.338 1074.46 366.28C1074.25 363.607 1071.73 359.814 1064.87 356.438C1058.3 353.207 1049 351.072 1038.48 351.072C1027.96 351.072 1018.66 353.207 1012.09 356.438C1005.23 359.814 1002.71 363.607 1002.5 366.28C1002.5 366.338 1002.49 366.396 1002.48 366.454V368.738C1011.85 377.189 1024.24 382.325 1037.84 382.325C1052.07 382.325 1064.97 376.708 1074.47 367.557V366.715V366.704V366.693V366.682V366.454ZM1038.48 332.082C1047.11 332.082 1054.1 325.086 1054.1 316.456C1054.1 307.825 1047.11 300.829 1038.48 300.829C1029.85 300.829 1022.86 307.825 1022.86 316.456C1022.86 325.086 1029.85 332.082 1038.48 332.082ZM1038.48 337.686C1050.2 337.686 1059.7 328.181 1059.7 316.456C1059.7 304.731 1050.2 295.226 1038.48 295.226C1026.76 295.226 1017.26 304.731 1017.26 316.456C1017.26 328.181 1026.76 337.686 1038.48 337.686Z" fill="white"/>
</svg>
