<svg width="600" height="400" viewBox="0 0 600 400" fill="none" xmlns="http://www.w3.org/2000/svg">
<g id="LUMA">
<rect id="Rectangle 12" x="400" y="139" width="168" height="32" rx="16" fill="#9A66FE"/>
<rect id="Rectangle 13" x="401.5" y="188.5" width="165" height="29" rx="14.5" stroke="#9A66FE" stroke-width="3"/>
<g id="Group 131">
<rect id="Rectangle 6" x="34" y="59" width="190" height="48" rx="4" fill="#6D7096"/>
<rect id="Rectangle 7" x="34" y="123" width="190" height="32" rx="4" fill="#6D7096"/>
<rect id="Rectangle 8" x="34" y="171" width="190" height="24" rx="4" fill="#6D7096"/>
<rect id="Rectangle 9" x="34" y="211" width="190" height="14" rx="4" fill="#6D7096"/>
<rect id="Rectangle 10" x="34" y="237" width="190" height="14" rx="4" fill="#6D7096"/>
</g>
<g id="Group 132">
<rect id="Rectangle 3" x="248" y="59" width="128" height="192" rx="4" fill="white"/>
<rect id="Rectangle 11" x="263" y="163" width="98" height="13" rx="4" fill="#9A66FE"/>
<circle id="Ellipse 3" cx="312" cy="115" r="32" fill="#38C0B8" stroke="#3F9F9A" stroke-width="4"/>
</g>
<g id="Frame 134">
<circle id="Ellipse 6" cx="104" cy="307" r="32" fill="#9A66FE"/>
<circle id="Ellipse 7" cx="184" cy="307" r="32" fill="#4C5EFF"/>
<circle id="Ellipse 5" cx="264" cy="307" r="32" fill="#3BF2DC"/>
<circle id="Ellipse 8" cx="344" cy="307" r="32" fill="#6D7096"/>
</g>
<g id="Group 133">
<circle id="Ellipse 4" cx="444" cy="293" r="44" stroke="#B1B5E3" stroke-width="4"/>
<path id="Intersect" fill-rule="evenodd" clip-rule="evenodd" d="M413.149 326.373V323.03L413.149 323.017L413.149 323.003V322.377H413.174C413.832 313.846 427.595 307.033 444.477 307.033C461.359 307.033 475.122 313.846 475.78 322.377H475.805V325.405C467.794 333.782 456.506 339 444 339C431.983 339 421.09 334.182 413.149 326.373ZM460.461 285.19C460.461 294.018 453.305 301.174 444.477 301.174C435.65 301.174 428.494 294.018 428.494 285.19C428.494 276.363 435.65 269.207 444.477 269.207C453.305 269.207 460.461 276.363 460.461 285.19Z" fill="#B1B5E3"/>
</g>
<g id="Group 2">
<g id="Group 3">
<path id="Stroke 1" fill-rule="evenodd" clip-rule="evenodd" d="M465 88C465 103.464 452.464 116 437 116C421.536 116 409 103.464 409 88C409 72.5361 421.536 60 437 60C452.464 60 465 72.5361 465 88Z" stroke="#3BF2DC" stroke-width="3"/>
</g>
<path id="Stroke 4" d="M451 79.8334L431.729 98.5L423 90.0439" stroke="#3BF2DC" stroke-width="3" stroke-linecap="round" stroke-linejoin="round"/>
</g>
</g>
</svg>
