<svg width="1200" height="1000" viewBox="0 0 1200 1000" fill="none" xmlns="http://www.w3.org/2000/svg">
<path d="M599.527 147.002C578.62 147.002 561.672 163.95 561.672 184.857V467.35C566.75 467.015 571.801 466.863 576.814 466.877V184.857C576.814 172.313 586.983 162.144 599.527 162.144H1012.15C1024.69 162.144 1034.86 172.313 1034.86 184.857V502.838C1034.86 515.382 1024.69 525.551 1012.15 525.551H728.128V540.693H1012.15C1033.05 540.693 1050 523.745 1050 502.838V184.857C1050 163.95 1033.05 147.002 1012.15 147.002H599.527Z" fill="white"/>
<path fill-rule="evenodd" clip-rule="evenodd" d="M1042.43 234.068H569.243V218.926H1042.43V234.068Z" fill="white"/>
<path fill-rule="evenodd" clip-rule="evenodd" d="M777.445 286.635C777.445 291.054 773.863 294.635 769.445 294.635L615.098 294.635C610.679 294.635 607.098 291.054 607.098 286.635L607.098 272.352C607.098 267.933 610.679 264.352 615.098 264.352L769.445 264.352C773.863 264.352 777.445 267.933 777.445 272.352L777.445 286.635Z" fill="white"/>
<path fill-rule="evenodd" clip-rule="evenodd" d="M777.445 317.348C777.445 321.53 774.055 324.919 769.874 324.919L614.669 324.919C610.487 324.919 607.098 321.53 607.098 317.348V317.348C607.098 313.167 610.487 309.777 614.669 309.777L769.874 309.777C774.055 309.777 777.445 313.167 777.445 317.348V317.348Z" fill="white"/>
<path fill-rule="evenodd" clip-rule="evenodd" d="M777.445 347.632C777.445 351.814 774.055 355.203 769.874 355.203L614.669 355.203C610.487 355.203 607.098 351.814 607.098 347.633V347.633C607.098 343.451 610.487 340.062 614.669 340.062L769.874 340.062C774.055 340.062 777.445 343.451 777.445 347.632V347.632Z" fill="white"/>
<path fill-rule="evenodd" clip-rule="evenodd" d="M727.014 376.965C727.056 381.146 723.701 384.562 719.52 384.596L614.668 385.427C610.487 385.46 607.063 382.097 607.021 377.916V377.916C606.979 373.735 610.335 370.319 614.516 370.286L719.367 369.454C723.549 369.421 726.972 372.784 727.014 376.965V376.965Z" fill="white"/>
<path d="M624.608 190.535C624.608 196.807 619.199 201.892 612.528 201.892C605.857 201.892 600.448 196.807 600.448 190.535C600.448 184.263 605.857 179.179 612.528 179.179C619.199 179.179 624.608 184.263 624.608 190.535Z" fill="white"/>
<path d="M668.901 190.535C668.901 196.807 663.492 201.892 656.821 201.892C650.149 201.892 644.741 196.807 644.741 190.535C644.741 184.263 650.149 179.179 656.821 179.179C663.492 179.179 668.901 184.263 668.901 190.535Z" fill="white"/>
<path d="M713.193 190.535C713.193 196.807 707.784 201.892 701.113 201.892C694.441 201.892 689.033 196.807 689.033 190.535C689.033 184.263 694.441 179.179 701.113 179.179C707.784 179.179 713.193 184.263 713.193 190.535Z" fill="white"/>
<path d="M892.902 347.962V327.76V307.558C892.902 301.568 899.529 297.95 904.567 301.189L935.993 321.391C940.628 324.372 940.628 331.148 935.993 334.128L904.567 354.33C899.529 357.569 892.902 353.952 892.902 347.962Z" fill="white"/>
<path fill-rule="evenodd" clip-rule="evenodd" d="M819.085 286.119C819.085 273.575 829.254 263.406 841.798 263.406H981.861C994.405 263.406 1004.57 273.575 1004.57 286.119V369.4C1004.57 381.944 994.405 392.113 981.861 392.113H841.798C829.254 392.113 819.085 381.944 819.085 369.4V286.119ZM841.798 278.548C837.617 278.548 834.227 281.938 834.227 286.119V369.4C834.227 373.581 837.617 376.971 841.798 376.971H981.861C986.042 376.971 989.432 373.581 989.432 369.4V286.119C989.432 281.938 986.042 278.548 981.861 278.548H841.798Z" fill="white"/>
<path fill-rule="evenodd" clip-rule="evenodd" d="M165.142 519.537V831.322C192.533 814.381 233.309 796.749 279.252 791.042C328.634 784.908 384.233 792.55 435.278 829.86V519.151C385.501 478.584 330.38 470.114 281.118 476.233C232.833 482.231 190.447 502.245 165.142 519.537ZM279.252 461.207C332.679 454.57 393.383 464.059 447.725 509.799C449.434 511.238 450.42 513.358 450.42 515.591V845.427C450.42 848.371 448.713 851.049 446.044 852.291C443.374 853.533 440.227 853.115 437.974 851.219C387.496 808.731 331.271 799.839 281.118 806.069C230.757 812.325 186.813 833.827 161.974 851.586C159.667 853.236 156.631 853.457 154.108 852.16C151.586 850.862 150 848.264 150 845.427V515.591C150 513.148 151.18 510.854 153.168 509.433C179.747 490.43 226.033 467.818 279.252 461.207Z" fill="white"/>
<path fill-rule="evenodd" clip-rule="evenodd" d="M720.557 519.537V831.322C693.166 814.381 652.39 796.749 606.448 791.042C557.065 784.908 501.466 792.55 450.421 829.86V519.151C500.199 478.584 555.319 470.114 604.581 476.233C652.867 482.231 695.253 502.245 720.557 519.537ZM606.448 461.207C553.02 454.57 492.316 464.059 437.974 509.799C436.265 511.238 435.279 513.358 435.279 515.591V845.427C435.279 848.371 436.986 851.049 439.655 852.291C442.325 853.533 445.473 853.115 447.725 851.219C498.203 808.731 554.428 799.839 604.581 806.069C654.942 812.325 698.886 833.827 723.725 851.586C726.032 853.236 729.069 853.457 731.591 852.16C734.114 850.862 735.699 848.264 735.699 845.427V515.591C735.699 513.148 734.52 510.854 732.532 509.433C705.952 490.43 659.666 467.818 606.448 461.207Z" fill="white"/>
<path fill-rule="evenodd" clip-rule="evenodd" d="M577.008 557.728C607.135 557.789 640.306 563.377 669.875 576.93C672.567 578.163 674.292 580.852 674.292 583.812V707.787C674.292 710.475 672.866 712.962 670.547 714.32C668.231 715.676 665.371 715.705 663.029 714.396C663.028 714.396 663.027 714.395 663.026 714.395C663.024 714.394 663.023 714.393 663.022 714.393L663.019 714.391C663.008 714.385 662.988 714.374 662.958 714.358L662.928 714.342C662.836 714.292 662.682 714.209 662.466 714.097C662.034 713.873 661.357 713.53 660.443 713.093C658.615 712.221 655.842 710.976 652.191 709.559C644.885 706.726 634.08 703.212 620.307 700.617C592.791 695.433 553.381 693.903 506.233 708.852C503.932 709.582 501.421 709.171 499.473 707.745C497.525 706.319 496.374 704.049 496.374 701.635V579.081C496.374 576.198 498.011 573.565 500.596 572.29C519.242 563.095 546.995 557.667 577.008 557.728ZM659.15 696.026V588.747C633.037 577.669 603.881 572.924 576.978 572.87C550.844 572.817 527.476 577.188 511.516 583.943V691.486C557.051 678.835 595.464 680.528 623.111 685.737C637.907 688.525 649.608 692.316 657.666 695.442C658.175 695.639 658.67 695.834 659.15 696.026Z" fill="white"/>
<path d="M565.459 648.908V628.706V608.504C565.459 602.514 572.085 598.897 577.124 602.136L608.549 622.338C613.185 625.318 613.185 632.094 608.549 635.075L577.124 655.277C572.085 658.516 565.459 654.898 565.459 648.908Z" fill="white"/>
<path d="M227.436 650.337C222.459 652.034 217.184 648.404 217.184 643.147C217.184 639.992 219.155 637.167 222.139 636.145C239.445 630.216 258.391 625.501 278.308 623.027C309.797 619.116 343.814 620.806 377.567 632.218C380.528 633.219 382.478 636.027 382.478 639.154C382.478 644.428 377.141 648.045 372.139 646.37C340.984 635.942 309.538 634.406 280.174 638.054C261.496 640.374 243.701 644.791 227.436 650.337Z" fill="white"/>
<path d="M227.436 687.696C222.459 689.393 217.184 685.763 217.184 680.506C217.184 677.351 219.155 674.526 222.139 673.504C239.445 667.576 258.391 662.86 278.308 660.386C309.797 656.475 343.814 658.165 377.567 669.577C380.528 670.578 382.478 673.386 382.478 676.513C382.478 681.787 377.141 685.404 372.139 683.729C340.984 673.301 309.538 671.765 280.174 675.413C261.496 677.733 243.701 682.15 227.436 687.696Z" fill="white"/>
<path d="M227.436 725.055C222.459 726.751 217.184 723.122 217.184 717.864C217.184 714.71 219.155 711.885 222.139 710.863C239.445 704.934 258.391 700.219 278.308 697.745C295.222 695.644 312.866 695.159 330.806 696.929C334.574 697.301 337.384 700.512 337.384 704.298C337.384 708.871 333.341 712.379 328.789 711.942C312.23 710.351 295.903 710.817 280.174 712.771C261.496 715.092 243.701 719.509 227.436 725.055Z" fill="white"/>
<path d="M382.478 582.976C382.478 579.764 380.453 576.888 377.397 575.899C322.165 558.017 266.623 565.103 222.252 579.853C219.204 580.866 217.184 583.736 217.184 586.948V607.756C217.184 610.71 220.164 612.737 222.934 611.709C265.774 595.82 319.44 587.771 371.845 606.029C376.955 607.809 382.478 604.13 382.478 598.719V582.976Z" fill="white"/>
<path d="M1035.11 703.242C1035.94 704.227 1036.36 705.249 1036.36 706.309C1036.36 706.763 1036.32 707.255 1036.25 707.785C1036.25 708.239 1036.21 708.656 1036.13 709.034C1035.9 709.867 1035.41 710.662 1034.66 711.419C1034.05 711.873 1033.22 712.214 1032.16 712.441C1031.63 712.592 1031.1 712.706 1030.57 712.782C1030.04 712.857 1029.47 712.971 1028.86 713.122C1028.33 713.198 1027.8 713.236 1027.27 713.236C1026.74 713.236 1026.18 713.236 1025.57 713.236H1019.78C1018.42 713.312 1017.05 713.35 1015.69 713.35C1014.4 713.35 1013.12 713.35 1011.83 713.35C1011.9 715.697 1011.94 718.233 1011.94 720.958C1011.94 723.608 1011.9 726.712 1011.83 730.271C1011.83 733.829 1011.79 737.955 1011.72 742.649C1011.72 747.343 1011.72 752.794 1011.72 759.003V767.633C1011.72 768.391 1011.75 768.958 1011.83 769.337C1011.83 769.64 1011.83 769.943 1011.83 770.245C1011.83 770.473 1011.79 770.775 1011.72 771.154C1011.56 771.835 1011.45 772.63 1011.37 773.539C1011.37 773.917 1011.34 774.296 1011.26 774.675C1011.19 774.977 1011.07 775.318 1010.92 775.697C1010.62 775.999 1010.47 776.227 1010.47 776.378L1010.13 777.059C1009.75 777.816 1009.03 778.536 1007.97 779.217C1006.3 780.05 1004.45 780.239 1002.4 779.785C1001.12 779.633 1000.13 779.293 999.45 778.763C998.769 778.081 998.277 777.4 997.974 776.719C997.52 775.886 997.255 775.091 997.179 774.334C996.952 773.652 996.838 772.933 996.838 772.176V713.804C996.384 713.804 995.438 713.804 993.999 713.804C992.561 713.804 991.009 713.804 989.343 713.804C987.753 713.728 986.239 713.652 984.8 713.577C983.362 713.501 982.378 713.425 981.848 713.35C981.393 713.274 980.674 713.16 979.69 713.009C978.781 712.857 978.024 712.706 977.419 712.555C975.829 712.1 974.58 711.381 973.671 710.397C972.838 709.413 972.422 708.315 972.422 707.104C972.422 706.649 972.422 706.195 972.422 705.741C972.422 705.286 972.498 704.87 972.649 704.492C972.876 703.583 973.482 702.826 974.466 702.22C974.769 701.993 975.223 701.728 975.829 701.425C976.51 701.047 977.154 700.782 977.759 700.63C978.668 700.327 979.804 700.1 981.166 699.949C981.772 699.873 982.378 699.835 982.983 699.835C983.589 699.835 984.233 699.835 984.914 699.835C987.564 699.835 990.062 699.835 992.409 699.835C994.832 699.835 997.368 699.798 1000.02 699.722C1004.41 699.646 1008.76 699.646 1013.08 699.722C1017.47 699.722 1021.82 699.798 1026.14 699.949C1027.12 700.025 1028.07 700.138 1028.98 700.29C1029.89 700.441 1030.79 700.706 1031.7 701.085C1032.38 701.312 1033.03 701.615 1033.63 701.993C1034.24 702.296 1034.73 702.712 1035.11 703.242Z" fill="white"/>
<path d="M961.179 690.428C962.15 691.577 962.636 692.769 962.636 694.006C962.636 694.536 962.592 695.11 962.504 695.728C962.504 696.258 962.459 696.744 962.371 697.185C962.106 698.157 961.532 699.085 960.649 699.968C959.942 700.498 958.97 700.895 957.734 701.16C957.116 701.337 956.497 701.469 955.879 701.558C955.261 701.646 954.598 701.779 953.892 701.955C953.273 702.044 952.655 702.088 952.037 702.088C951.418 702.088 950.756 702.088 950.049 702.088H943.292C941.702 702.176 940.112 702.22 938.522 702.22C937.021 702.22 935.519 702.22 934.018 702.22C934.106 704.958 934.15 707.917 934.15 711.097C934.15 714.189 934.106 717.81 934.018 721.962C934.018 726.113 933.974 730.927 933.885 736.403C933.885 741.88 933.885 748.239 933.885 755.482V765.551C933.885 766.435 933.929 767.097 934.018 767.539C934.018 767.892 934.018 768.245 934.018 768.599C934.018 768.864 933.974 769.217 933.885 769.659C933.709 770.454 933.576 771.381 933.488 772.441C933.488 772.883 933.444 773.324 933.355 773.766C933.267 774.119 933.134 774.517 932.958 774.958C932.604 775.312 932.428 775.577 932.428 775.753L932.03 776.548C931.589 777.432 930.75 778.271 929.513 779.066C927.57 780.037 925.406 780.258 923.021 779.728C921.519 779.551 920.371 779.154 919.576 778.536C918.781 777.741 918.207 776.946 917.854 776.151C917.324 775.179 917.015 774.252 916.926 773.368C916.661 772.574 916.529 771.734 916.529 770.851V702.75C915.999 702.75 914.895 702.75 913.216 702.75C911.538 702.75 909.728 702.75 907.784 702.75C905.929 702.662 904.163 702.574 902.485 702.485C900.806 702.397 899.658 702.309 899.04 702.22C898.51 702.132 897.671 701.999 896.522 701.823C895.463 701.646 894.579 701.469 893.873 701.293C892.018 700.763 890.56 699.924 889.5 698.775C888.529 697.627 888.043 696.346 888.043 694.933C888.043 694.403 888.043 693.873 888.043 693.343C888.043 692.813 888.131 692.327 888.308 691.886C888.573 690.826 889.28 689.943 890.428 689.236C890.781 688.971 891.311 688.662 892.018 688.309C892.813 687.867 893.563 687.558 894.27 687.381C895.33 687.028 896.655 686.763 898.245 686.586C898.951 686.498 899.658 686.454 900.365 686.454C901.071 686.454 901.822 686.454 902.617 686.454C905.709 686.454 908.623 686.454 911.362 686.454C914.188 686.454 917.147 686.409 920.239 686.321C925.362 686.233 930.44 686.233 935.475 686.321C940.598 686.321 945.677 686.409 950.712 686.586C951.86 686.674 952.964 686.807 954.024 686.984C955.084 687.16 956.144 687.469 957.204 687.911C957.999 688.176 958.75 688.529 959.456 688.971C960.163 689.324 960.737 689.81 961.179 690.428Z" fill="white"/>
<path d="M880.941 664.8C882.19 666.277 882.815 667.81 882.815 669.4C882.815 670.081 882.758 670.819 882.644 671.614C882.644 672.296 882.587 672.92 882.474 673.488C882.133 674.737 881.395 675.93 880.259 677.065C879.351 677.747 878.102 678.258 876.512 678.599C875.717 678.826 874.922 678.996 874.127 679.11C873.332 679.223 872.48 679.394 871.572 679.621C870.777 679.734 869.982 679.791 869.187 679.791C868.392 679.791 867.54 679.791 866.632 679.791H857.944C855.9 679.905 853.856 679.961 851.811 679.961C849.881 679.961 847.95 679.961 846.02 679.961C846.133 683.482 846.19 687.286 846.19 691.375C846.19 695.349 846.133 700.006 846.02 705.343C846.02 710.681 845.963 716.87 845.849 723.911C845.849 730.952 845.849 739.129 845.849 748.441V761.387C845.849 762.523 845.906 763.375 846.02 763.942C846.02 764.397 846.02 764.851 846.02 765.305C846.02 765.646 845.963 766.1 845.849 766.668C845.622 767.69 845.452 768.883 845.338 770.245C845.338 770.813 845.281 771.381 845.168 771.949C845.054 772.403 844.884 772.914 844.657 773.482C844.203 773.936 843.975 774.277 843.975 774.504L843.464 775.526C842.897 776.662 841.818 777.741 840.228 778.763C837.729 780.012 834.947 780.296 831.881 779.614C829.95 779.387 828.474 778.876 827.452 778.081C826.43 777.059 825.692 776.037 825.237 775.015C824.556 773.766 824.158 772.573 824.045 771.438C823.704 770.416 823.534 769.337 823.534 768.201V680.643C822.852 680.643 821.433 680.643 819.275 680.643C817.117 680.643 814.789 680.643 812.291 680.643C809.906 680.529 807.635 680.416 805.477 680.302C803.319 680.189 801.843 680.075 801.048 679.961C800.367 679.848 799.288 679.677 797.811 679.45C796.449 679.223 795.313 678.996 794.404 678.769C792.02 678.088 790.146 677.009 788.783 675.532C787.534 674.056 786.909 672.409 786.909 670.592C786.909 669.911 786.909 669.23 786.909 668.548C786.909 667.867 787.023 667.242 787.25 666.674C787.591 665.312 788.499 664.176 789.975 663.267C790.43 662.927 791.111 662.529 792.02 662.075C793.042 661.507 794.007 661.11 794.915 660.883C796.278 660.428 797.982 660.088 800.026 659.86C800.934 659.747 801.843 659.69 802.751 659.69C803.66 659.69 804.625 659.69 805.647 659.69C809.622 659.69 813.37 659.69 816.89 659.69C820.524 659.69 824.329 659.633 828.304 659.52C834.89 659.406 841.42 659.406 847.893 659.52C854.48 659.52 861.01 659.633 867.483 659.86C868.96 659.974 870.379 660.144 871.742 660.371C873.105 660.599 874.468 660.996 875.83 661.564C876.852 661.905 877.818 662.359 878.726 662.927C879.635 663.381 880.373 664.006 880.941 664.8Z" fill="white"/>
<path fill-rule="evenodd" clip-rule="evenodd" d="M395.802 322.646C430.221 259.576 418.704 197.245 369.24 169.443C314.588 138.716 243.339 155.434 212.626 221.244C191.472 266.557 201.078 345.307 250.299 373.54C299.513 401.758 365.557 378.081 395.802 322.646ZM379.111 255.626C380.789 242.934 377.777 227.462 368.093 217.264L367.953 217.125C349.35 196.397 323.522 195.096 307.167 195.496C289.088 195.95 276.104 201.839 265.484 207.304C256.214 212.068 247.857 220.266 244.462 224.337C242.301 226.931 238.626 232.289 240.6 237.092C242.223 241.079 248.317 240.817 250.611 239.116C251.819 238.217 253.066 237.071 254.438 235.811C255.662 234.686 256.986 233.47 258.469 232.258C272.428 220.866 284.804 213.692 313.636 213.692C342.468 213.692 358.09 231.427 358.09 247.26C358.09 263.093 350.505 273.845 336.171 280.865C329.078 284.337 321.494 287.023 311.943 287.385C312.637 272.037 312.996 257.512 312.996 257.512C313.03 255.693 313.109 253.93 313.185 252.246C313.569 243.709 313.86 237.232 307.597 235.991C300.113 234.505 286.326 235.968 286.068 244.396C285.732 243.142 287.488 313.463 287.808 314.848L287.933 316.464C288.081 318.25 288.721 319.82 289.853 321.075C290.984 322.314 292.818 323.084 294.464 323.269C294.722 323.292 294.979 323.315 295.237 323.315C296.805 323.315 299.013 323.038 301.237 322.422C304.046 321.629 306.871 320.282 308.502 318.181C309.329 317.119 310.008 316.087 310.359 314.186C310.601 312.893 311.077 304.726 311.202 302.356C326.363 302.217 341.774 299.415 353.502 292.365C368.288 283.49 377.184 270.097 379.111 255.626ZM300.66 331.412C302.369 331.743 304.054 332.536 305.56 333.691C308.291 335.784 309.93 339.056 309.961 342.404C309.984 345.29 308.759 347.869 306.504 349.693C304.561 351.232 302.064 352.064 299.287 352.064H299.279C298.007 352.064 296.735 351.879 295.494 351.54C293.34 350.932 291.608 349.924 290.477 348.615C289.462 347.453 288.783 345.891 288.487 344.082C288.034 341.265 288.744 338.347 290.461 335.915C292.521 332.983 295.681 331.235 298.896 331.235C299.481 331.235 300.082 331.297 300.66 331.412Z" fill="white"/>
</svg>
