<svg width="1200" height="500" viewBox="0 0 1200 500" fill="none" xmlns="http://www.w3.org/2000/svg">
<path d="M114.157 245.934L71.851 184.066C69.473 180.067 72.3552 175 77.0083 175H244.259C246.281 175 248.168 176.019 249.277 177.711L295.018 245.711C296.327 247.708 296.327 250.292 295.018 252.289L249.277 320.289C248.168 321.981 246.281 323 244.259 323H77.0083C72.3552 323 69.473 317.933 71.851 313.934L114.157 252.066C115.281 250.177 115.281 247.823 114.157 245.934Z" fill="#FFBB1C"/>
<path d="M323.175 246.964L280.833 184.036C278.486 180.036 281.371 175 286.008 175H453.235C455.271 175 457.168 176.032 458.273 177.742L504.038 246.742C505.321 248.725 505.321 251.275 504.038 253.258L458.273 322.258C457.168 323.968 455.271 325 453.235 325H286.008C281.371 325 278.486 319.964 280.833 315.964L323.175 253.036C324.275 251.161 324.275 248.839 323.175 246.964Z" fill="#9DD82C"/>
<path d="M531.175 246.964L488.833 184.036C486.486 180.036 489.371 175 494.008 175H660.235C662.271 175 664.168 176.032 665.273 177.742L711.038 246.742C712.321 248.725 712.321 251.275 711.038 253.258L665.273 322.258C664.168 323.968 662.271 325 660.235 325H494.008C489.371 325 486.486 319.964 488.833 315.964L531.175 253.036C532.275 251.161 532.275 248.839 531.175 246.964Z" fill="#6BD8EB"/>
<path d="M739.175 246.964L696.833 184.036C694.486 180.036 697.371 175 702.008 175H869.235C871.271 175 873.168 176.032 874.273 177.742L920.038 246.742C921.321 248.725 921.321 251.275 920.038 253.258L874.273 322.258C873.168 323.968 871.271 325 869.235 325H702.008C697.371 325 694.486 319.964 696.833 315.964L739.175 253.036C740.275 251.161 740.275 248.839 739.175 246.964Z" fill="#FFA9FF"/>
<path d="M948.175 246.964L905.833 184.036C903.486 180.036 906.371 175 911.008 175H1077.23C1079.27 175 1081.17 176.032 1082.27 177.742L1128.04 246.742C1129.32 248.725 1129.32 251.275 1128.04 253.258L1082.27 322.258C1081.17 323.968 1079.27 325 1077.23 325H911.008C906.371 325 903.486 319.964 905.833 315.964L948.175 253.036C949.275 251.161 949.275 248.839 948.175 246.964Z" fill="#A0C9FF"/>
<path fill-rule="evenodd" clip-rule="evenodd" d="M607.749 124.648C620.157 77.6345 666.509 46.8195 715.617 54.6824C746.776 59.6715 774.834 77.1065 789.125 103.386L792.266 83.768C792.948 79.5075 796.955 76.6068 801.215 77.2889C805.475 77.9711 808.376 81.9779 807.694 86.2383L801.58 124.424C801.031 127.851 799.144 130.919 796.333 132.955C793.521 134.99 790.017 135.825 786.59 135.276L748.308 129.147C744.047 128.465 741.147 124.458 741.829 120.197C742.511 115.937 746.518 113.036 750.778 113.718L778.823 118.209C768.869 93.0085 743.579 74.9836 713.147 70.1109C672.017 63.5255 633.228 89.3369 622.856 128.635C621.755 132.807 617.481 135.297 613.309 134.196C609.137 133.095 606.648 128.82 607.749 124.648Z" fill="white"/>
<path fill-rule="evenodd" clip-rule="evenodd" d="M795.965 384.06C781.546 430.496 733.911 459.289 685.187 449.321C654.271 442.996 626.989 424.37 613.842 397.501L609.86 416.965C608.995 421.192 604.867 423.918 600.64 423.053C596.413 422.188 593.687 418.06 594.552 413.833L602.303 375.946C602.999 372.546 605.017 369.561 607.913 367.649C610.809 365.736 614.346 365.053 617.746 365.749L655.729 373.519C659.956 374.384 662.682 378.512 661.817 382.739C660.952 386.966 656.825 389.692 652.597 388.827L624.771 383.134C633.633 408.739 658.123 427.836 688.318 434.013C729.127 442.362 768.99 418.243 781.043 379.427C782.322 375.306 786.7 373.003 790.82 374.282C794.941 375.562 797.244 379.94 795.965 384.06Z" fill="white"/>
</svg>
