<svg width="1200" height="850" viewBox="0 0 1200 850" fill="none" xmlns="http://www.w3.org/2000/svg">
<path d="M620 372.5V112C620 94.3269 605.673 80 588 80H152C134.327 80 120 94.3269 120 112V448C120 465.673 134.327 480 152 480H474.5" stroke="white" stroke-width="16"/>
<line x1="120" y1="156" x2="620" y2="156" stroke="white" stroke-width="16"/>
<line x1="160" y1="212" x2="340" y2="212" stroke="white" stroke-width="32"/>
<line x1="160" y1="252" x2="340" y2="252" stroke="white" stroke-width="16"/>
<line x1="160" y1="284" x2="340" y2="284" stroke="white" stroke-width="16"/>
<line y1="-8" x2="126.796" y2="-8" transform="matrix(0.999969 -0.00792743 0.0100553 0.999949 160 324)" stroke="white" stroke-width="16"/>
<ellipse cx="165.738" cy="118" rx="12.7642" ry="12" fill="white"/>
<ellipse cx="212.541" cy="118" rx="12.7642" ry="12" fill="white"/>
<ellipse cx="259.342" cy="118" rx="12.7642" ry="12" fill="white"/>
<path d="M462 284.347V263V241.653C462 235.324 469.002 231.501 474.326 234.924L507.532 256.271C512.431 259.42 512.431 266.58 507.532 269.729L474.326 291.076C469.002 294.499 462 290.676 462 284.347Z" fill="white"/>
<rect x="392" y="203" width="180" height="120" rx="16" stroke="white" stroke-width="16"/>
<path d="M778.443 421.476C667.684 328.248 531.331 382.631 476.999 421.476V770.002C531.331 731.157 667.684 676.774 778.443 770.002V421.476Z" stroke="white" stroke-width="16" stroke-linejoin="round"/>
<path d="M1015 624.563C1015 624.563 945.5 585.563 843 618.063V488.563C879.5 470.563 955 466.063 1015 493.563V624.563Z" stroke="white" stroke-width="16" stroke-linejoin="round"/>
<path d="M908 562.347V541V519.653C908 513.324 915.002 509.501 920.326 512.924L953.532 534.271C958.431 537.42 958.431 544.58 953.532 547.729L920.326 569.076C915.002 572.499 908 568.676 908 562.347Z" fill="white"/>
<path d="M1079.89 421.476C1025.55 382.631 889.201 328.248 778.442 421.476M1079.89 421.476C1025.55 382.631 889.201 328.248 778.442 421.476V770.002C889.201 676.774 1025.55 731.157 1079.89 770.002V421.476Z" stroke="white" stroke-width="16" stroke-linejoin="round"/>
<path d="M550.821 563.857C545.563 565.65 539.988 561.815 539.988 556.259V556.259C539.988 552.926 542.072 549.941 545.225 548.861C563.511 542.596 583.53 537.614 604.576 535C637.85 530.866 673.794 532.652 709.46 544.711C712.589 545.769 714.649 548.736 714.649 552.04V552.04C714.649 557.613 709.01 561.435 703.724 559.666C670.804 548.647 637.576 547.023 606.548 550.878C586.812 553.329 568.008 557.997 550.821 563.857Z" fill="white"/>
<path d="M550.821 603.333C545.563 605.126 539.988 601.291 539.988 595.735V595.735C539.988 592.402 542.072 589.417 545.225 588.337C563.511 582.072 583.53 577.09 604.576 574.476C637.85 570.342 673.794 572.128 709.46 584.187C712.589 585.245 714.649 588.212 714.649 591.516V591.516C714.649 597.089 709.01 600.911 703.724 599.142C670.804 588.123 637.576 586.499 606.548 590.354C586.812 592.805 568.008 597.473 550.821 603.333Z" fill="white"/>
<path d="M550.821 642.809C545.563 644.601 539.988 640.766 539.988 635.211V635.211C539.988 631.878 542.072 628.893 545.225 627.812C563.511 621.548 583.53 616.566 604.576 613.951C622.449 611.731 641.093 611.219 660.05 613.089C664.031 613.482 667 616.876 667 620.876V620.876C667 625.708 662.728 629.415 657.918 628.953C640.421 627.272 623.169 627.765 606.548 629.829C586.812 632.281 568.008 636.949 550.821 642.809Z" fill="white"/>
<path d="M714.649 492.679C714.649 489.285 712.509 486.246 709.28 485.2C650.919 466.306 592.229 473.793 545.344 489.379C542.124 490.449 539.988 493.482 539.988 496.876V518.863C539.988 521.985 543.137 524.126 546.064 523.041V523.041C591.332 506.25 648.039 497.746 703.413 517.038C708.813 518.919 714.649 515.032 714.649 509.314V492.679Z" fill="white"/>
<ellipse cx="744.814" cy="227" rx="48.8136" ry="48" fill="#FFBB1C"/>
<ellipse cx="816.407" cy="227" rx="48.8136" ry="48" fill="#9DD82C"/>
<ellipse cx="888" cy="227" rx="48.8136" ry="48" fill="#6BD8EB"/>
<ellipse cx="959.593" cy="227" rx="48.8136" ry="48" fill="#FFA9FF"/>
<ellipse cx="1031.19" cy="227" rx="48.8136" ry="48" fill="#A0C9FF"/>
<path d="M390.698 619.759C391.578 620.799 392.018 621.879 392.018 622.999C392.018 623.479 391.978 623.999 391.898 624.559C391.898 625.039 391.858 625.479 391.778 625.879C391.538 626.759 391.018 627.599 390.218 628.399C389.578 628.879 388.698 629.239 387.578 629.479C387.018 629.639 386.458 629.759 385.898 629.839C385.338 629.919 384.738 630.039 384.098 630.199C383.538 630.279 382.978 630.319 382.418 630.319C381.858 630.319 381.258 630.319 380.618 630.319H374.498C373.058 630.399 371.618 630.439 370.178 630.439C368.818 630.439 367.458 630.439 366.098 630.439C366.178 632.919 366.218 635.599 366.218 638.479C366.218 641.279 366.178 644.559 366.098 648.319C366.098 652.079 366.058 656.439 365.978 661.399C365.978 666.359 365.978 672.119 365.978 678.679V687.799C365.978 688.599 366.018 689.2 366.098 689.6C366.098 689.92 366.098 690.239 366.098 690.559C366.098 690.799 366.058 691.12 365.978 691.52C365.818 692.24 365.698 693.079 365.618 694.039C365.618 694.439 365.578 694.84 365.498 695.24C365.418 695.56 365.298 695.92 365.138 696.32C364.818 696.64 364.658 696.879 364.658 697.039L364.298 697.759C363.898 698.559 363.138 699.319 362.018 700.039C360.258 700.919 358.298 701.119 356.138 700.639C354.778 700.479 353.738 700.119 353.018 699.559C352.298 698.839 351.778 698.119 351.458 697.399C350.978 696.519 350.698 695.68 350.618 694.88C350.378 694.16 350.258 693.4 350.258 692.6V630.919C349.778 630.919 348.778 630.919 347.258 630.919C345.738 630.919 344.098 630.919 342.338 630.919C340.658 630.839 339.058 630.759 337.538 630.679C336.018 630.599 334.978 630.519 334.418 630.439C333.938 630.359 333.178 630.239 332.138 630.079C331.178 629.919 330.378 629.759 329.738 629.599C328.058 629.119 326.738 628.359 325.778 627.319C324.898 626.279 324.458 625.119 324.458 623.839C324.458 623.359 324.458 622.879 324.458 622.399C324.458 621.919 324.538 621.479 324.698 621.079C324.938 620.119 325.578 619.319 326.618 618.679C326.938 618.439 327.418 618.159 328.058 617.839C328.778 617.439 329.458 617.159 330.098 616.999C331.058 616.679 332.258 616.439 333.698 616.279C334.338 616.199 334.978 616.159 335.618 616.159C336.258 616.159 336.938 616.159 337.658 616.159C340.458 616.159 343.098 616.159 345.578 616.159C348.138 616.159 350.818 616.119 353.618 616.039C358.258 615.959 362.858 615.959 367.418 616.039C372.058 616.039 376.658 616.119 381.218 616.279C382.258 616.359 383.258 616.479 384.218 616.639C385.178 616.799 386.138 617.079 387.098 617.479C387.818 617.719 388.498 618.039 389.138 618.439C389.778 618.759 390.298 619.199 390.698 619.759Z" fill="white"/>
<path d="M312.577 606.22C313.604 607.433 314.117 608.693 314.117 610C314.117 610.56 314.07 611.166 313.977 611.82C313.977 612.38 313.93 612.893 313.837 613.36C313.557 614.386 312.95 615.366 312.017 616.3C311.27 616.86 310.244 617.28 308.937 617.56C308.284 617.746 307.63 617.886 306.977 617.98C306.324 618.073 305.624 618.213 304.877 618.4C304.224 618.493 303.57 618.54 302.917 618.54C302.264 618.54 301.564 618.54 300.817 618.54H293.677C291.997 618.633 290.317 618.68 288.637 618.68C287.05 618.68 285.464 618.68 283.877 618.68C283.97 621.573 284.017 624.7 284.017 628.06C284.017 631.326 283.97 635.153 283.877 639.54C283.877 643.926 283.83 649.013 283.737 654.8C283.737 660.586 283.737 667.306 283.737 674.96V685.6C283.737 686.533 283.784 687.233 283.877 687.7C283.877 688.073 283.877 688.446 283.877 688.82C283.877 689.1 283.83 689.473 283.737 689.94C283.55 690.78 283.41 691.76 283.317 692.88C283.317 693.346 283.27 693.813 283.177 694.28C283.084 694.653 282.944 695.073 282.757 695.54C282.384 695.913 282.197 696.193 282.197 696.38L281.777 697.22C281.31 698.153 280.424 699.04 279.117 699.88C277.064 700.906 274.777 701.14 272.257 700.58C270.67 700.393 269.457 699.973 268.617 699.32C267.777 698.48 267.17 697.64 266.797 696.8C266.237 695.773 265.91 694.793 265.817 693.86C265.537 693.02 265.397 692.133 265.397 691.2V619.24C264.837 619.24 263.67 619.24 261.897 619.24C260.124 619.24 258.21 619.24 256.157 619.24C254.197 619.146 252.33 619.053 250.557 618.96C248.784 618.866 247.57 618.773 246.917 618.68C246.357 618.586 245.47 618.446 244.257 618.26C243.137 618.073 242.204 617.886 241.457 617.7C239.497 617.14 237.957 616.253 236.837 615.04C235.81 613.826 235.297 612.473 235.297 610.98C235.297 610.42 235.297 609.86 235.297 609.3C235.297 608.74 235.39 608.226 235.577 607.76C235.857 606.64 236.604 605.706 237.817 604.96C238.19 604.68 238.75 604.353 239.497 603.98C240.337 603.513 241.13 603.186 241.877 603C242.997 602.626 244.397 602.346 246.077 602.16C246.824 602.066 247.57 602.02 248.317 602.02C249.064 602.02 249.857 602.02 250.697 602.02C253.964 602.02 257.044 602.02 259.937 602.02C262.924 602.02 266.05 601.973 269.317 601.88C274.73 601.786 280.097 601.786 285.417 601.88C290.83 601.88 296.197 601.973 301.517 602.16C302.73 602.253 303.897 602.393 305.017 602.58C306.137 602.766 307.257 603.093 308.377 603.56C309.217 603.84 310.01 604.213 310.757 604.68C311.504 605.053 312.11 605.566 312.577 606.22Z" fill="white"/>
<path d="M227.793 579.14C229.113 580.7 229.773 582.32 229.773 584C229.773 584.72 229.713 585.5 229.593 586.34C229.593 587.06 229.533 587.72 229.413 588.32C229.053 589.64 228.273 590.9 227.073 592.1C226.113 592.82 224.793 593.36 223.113 593.72C222.273 593.96 221.433 594.14 220.593 594.26C219.753 594.38 218.853 594.56 217.893 594.8C217.053 594.92 216.213 594.98 215.373 594.98C214.533 594.98 213.633 594.98 212.673 594.98H203.493C201.333 595.1 199.173 595.16 197.013 595.16C194.973 595.16 192.933 595.16 190.893 595.16C191.013 598.88 191.073 602.9 191.073 607.22C191.073 611.42 191.013 616.34 190.893 621.98C190.893 627.62 190.833 634.16 190.713 641.6C190.713 649.04 190.713 657.68 190.713 667.52V681.2C190.713 682.4 190.773 683.3 190.893 683.9C190.893 684.38 190.893 684.86 190.893 685.34C190.893 685.7 190.833 686.18 190.713 686.78C190.473 687.86 190.293 689.12 190.173 690.56C190.173 691.16 190.113 691.76 189.993 692.36C189.873 692.84 189.693 693.38 189.453 693.98C188.973 694.46 188.733 694.82 188.733 695.06L188.193 696.14C187.593 697.34 186.453 698.48 184.773 699.56C182.133 700.88 179.193 701.18 175.953 700.46C173.913 700.22 172.353 699.68 171.273 698.84C170.193 697.76 169.413 696.68 168.933 695.6C168.213 694.28 167.793 693.02 167.673 691.82C167.313 690.74 167.133 689.6 167.133 688.4V595.88C166.413 595.88 164.913 595.88 162.633 595.88C160.353 595.88 157.893 595.88 155.253 595.88C152.733 595.76 150.333 595.64 148.053 595.52C145.773 595.4 144.213 595.28 143.373 595.16C142.653 595.04 141.513 594.86 139.953 594.62C138.513 594.38 137.313 594.14 136.353 593.9C133.833 593.18 131.853 592.04 130.413 590.48C129.093 588.92 128.433 587.18 128.433 585.26C128.433 584.54 128.433 583.82 128.433 583.1C128.433 582.38 128.553 581.72 128.793 581.12C129.153 579.68 130.113 578.48 131.673 577.52C132.153 577.16 132.873 576.74 133.833 576.26C134.913 575.66 135.933 575.24 136.893 575C138.333 574.52 140.133 574.16 142.293 573.92C143.253 573.8 144.213 573.74 145.173 573.74C146.133 573.74 147.153 573.74 148.233 573.74C152.433 573.74 156.393 573.74 160.113 573.74C163.953 573.74 167.973 573.68 172.173 573.56C179.133 573.44 186.033 573.44 192.873 573.56C199.833 573.56 206.733 573.68 213.573 573.92C215.133 574.04 216.633 574.22 218.073 574.46C219.513 574.7 220.953 575.12 222.393 575.72C223.473 576.08 224.493 576.56 225.453 577.16C226.413 577.64 227.193 578.3 227.793 579.14Z" fill="white"/>
</svg>
