<?xml version="1.0" encoding="utf-8"?>
<!-- Generator: Adobe Illustrator 16.0.0, SVG Export Plug-In . SVG Version: 6.00 Build 0)  -->
<!DOCTYPE svg PUBLIC "-//W3C//DTD SVG 1.1//EN" "http://www.w3.org/Graphics/SVG/1.1/DTD/svg11.dtd">
<svg version="1.1" id="Capa_1" xmlns="http://www.w3.org/2000/svg" xmlns:xlink="http://www.w3.org/1999/xlink" x="0px" y="0px"
	 width="200px" height="200px" viewBox="189.574 189.574 200 200" enable-background="new 189.574 189.574 200 200"
	 xml:space="preserve">
<g>
	<g>
		<path fill="#3b3a36" d="M339.769,202.984c-15.32-8.942-32.053-13.413-50.194-13.413c-18.144,0-34.876,4.47-50.197,13.413
			c-15.32,8.942-27.452,21.074-36.392,36.393c-8.942,15.323-13.412,32.056-13.412,50.199c0,20.227,5.51,38.587,16.536,55.078
			c11.024,16.497,25.476,28.691,43.359,36.589c-0.349-9.288,0.216-16.969,1.693-23.045l12.89-54.43
			c-2.171-4.253-3.255-9.547-3.255-15.886c0-7.378,1.866-13.543,5.599-18.489c3.73-4.95,8.289-7.425,13.671-7.425
			c4.339,0,7.683,1.431,10.027,4.299c2.344,2.864,3.517,6.468,3.517,10.807c0,2.693-0.501,5.971-1.497,9.833
			c-0.999,3.863-2.301,8.333-3.905,13.412c-1.606,5.077-2.756,9.135-3.451,12.174c-1.217,5.295-0.218,9.83,2.995,13.607
			c3.209,3.776,7.464,5.664,12.761,5.664c9.288,0,16.905-5.164,22.853-15.494c5.945-10.331,8.919-22.875,8.919-37.634
			c0-11.371-3.667-20.618-11.003-27.736c-7.335-7.116-17.559-10.677-30.664-10.677c-14.671,0-26.542,4.711-35.611,14.127
			c-9.071,9.42-13.606,20.685-13.606,33.789c0,7.813,2.215,14.37,6.64,19.665c1.476,1.736,1.953,3.602,1.433,5.597
			c-0.175,0.521-0.522,1.823-1.042,3.905c-0.52,2.082-0.869,3.431-1.042,4.037c-0.695,2.779-2.344,3.647-4.95,2.604
			c-6.685-2.777-11.763-7.594-15.233-14.453c-3.473-6.856-5.208-14.799-5.208-23.827c0-5.816,0.932-11.633,2.798-17.45
			s4.772-11.436,8.725-16.864c3.948-5.421,8.68-10.221,14.194-14.387c5.512-4.168,12.218-7.507,20.118-10.029
			c7.898-2.515,16.407-3.775,25.522-3.775c12.325,0,23.394,2.735,33.202,8.203c9.808,5.47,17.296,12.546,22.461,21.226
			c5.163,8.681,7.748,17.967,7.748,27.867c0,13.021-2.259,24.741-6.771,35.159c-4.515,10.418-10.896,18.599-19.142,24.545
			c-8.25,5.945-17.625,8.919-28.126,8.919c-5.296,0-10.244-1.236-14.845-3.712c-4.604-2.475-7.771-5.404-9.506-8.79
			c-3.906,15.363-6.25,24.526-7.031,27.475c-1.651,6.165-5.037,13.28-10.158,21.354c9.289,2.777,18.75,4.166,28.386,4.166
			c18.142,0,34.874-4.47,50.194-13.41c15.32-8.943,27.451-21.074,36.394-36.397c8.94-15.321,13.412-32.053,13.412-50.197
			s-4.472-34.875-13.412-50.198C367.222,224.059,355.089,211.927,339.769,202.984z"/>
	</g>
</g>
</svg>
