<?xml version="1.0" encoding="utf-8"?>
<!-- Generator: Adobe Illustrator 16.0.0, SVG Export Plug-In . SVG Version: 6.00 Build 0)  -->
<!DOCTYPE svg PUBLIC "-//W3C//DTD SVG 1.1//EN" "http://www.w3.org/Graphics/SVG/1.1/DTD/svg11.dtd">
<svg version="1.1" id="Capa_1" xmlns="http://www.w3.org/2000/svg" xmlns:xlink="http://www.w3.org/1999/xlink" x="0px" y="0px"
	 width="200px" height="200px" viewBox="0 0 200 200" enable-background="new 0 0 200 200" xml:space="preserve">
<g>
	<g>
		<path fill="#81BBB0" d="M150.194,13.412C134.875,4.47,118.142-0.002,100.001-0.002c-18.144,0-34.876,4.471-50.197,13.414
			c-15.319,8.941-27.452,21.074-36.392,36.393C4.47,65.128,0,81.861,0,100.004c0,20.227,5.51,38.587,16.535,55.078
			c11.024,16.496,25.477,28.691,43.359,36.589c-0.349-9.288,0.217-16.97,1.693-23.046l12.891-54.43
			c-2.172-4.252-3.256-9.547-3.256-15.886c0-7.378,1.866-13.543,5.6-18.489c3.729-4.949,8.289-7.425,13.67-7.425
			c4.34,0,7.684,1.431,10.027,4.3c2.344,2.863,3.518,6.467,3.518,10.807c0,2.693-0.502,5.971-1.497,9.833
			c-0.999,3.862-2.302,8.333-3.905,13.411c-1.605,5.078-2.756,9.136-3.451,12.175c-1.217,5.295-0.218,9.83,2.995,13.606
			c3.209,3.776,7.464,5.664,12.761,5.664c9.288,0,16.905-5.164,22.854-15.494c5.945-10.33,8.919-22.875,8.919-37.633
			c0-11.371-3.667-20.619-11.003-27.736c-7.335-7.116-17.559-10.678-30.664-10.678c-14.671,0-26.542,4.711-35.611,14.127
			c-9.07,9.42-13.605,20.686-13.605,33.789c0,7.813,2.215,14.37,6.64,19.666c1.476,1.735,1.953,3.602,1.433,5.596
			c-0.175,0.521-0.521,1.824-1.041,3.906c-0.521,2.082-0.869,3.431-1.043,4.037c-0.695,2.778-2.344,3.646-4.949,2.604
			c-6.686-2.777-11.764-7.594-15.233-14.453c-3.474-6.855-5.208-14.799-5.208-23.827c0-5.815,0.932-11.633,2.798-17.45
			c1.866-5.816,4.772-11.436,8.726-16.863c3.947-5.422,8.68-10.222,14.193-14.388c5.512-4.168,12.219-7.507,20.118-10.028
			c7.897-2.516,16.407-3.775,25.522-3.775c12.324,0,23.394,2.734,33.201,8.203c9.809,5.47,17.297,12.546,22.461,21.226
			c5.163,8.681,7.748,17.968,7.748,27.867c0,13.021-2.259,24.741-6.771,35.159c-4.515,10.418-10.896,18.599-19.142,24.545
			c-8.25,5.945-17.625,8.919-28.127,8.919c-5.295,0-10.244-1.235-14.845-3.712c-4.604-2.475-7.771-5.404-9.506-8.79
			c-3.905,15.362-6.25,24.526-7.03,27.476c-1.652,6.164-5.037,13.279-10.158,21.354c9.289,2.777,18.75,4.166,28.386,4.166
			c18.142,0,34.874-4.471,50.193-13.41c15.32-8.943,27.451-21.074,36.395-36.396c8.939-15.322,13.412-32.054,13.412-50.197
			c0-18.145-4.473-34.875-13.412-50.198C177.647,34.486,165.515,22.354,150.194,13.412z"/>
	</g>
</g>
</svg>
