<svg width="1200" height="850" viewBox="0 0 1200 850" fill="none" xmlns="http://www.w3.org/2000/svg">
<path d="M571 86C571 83.2386 573.239 81 576 81C578.761 81 581 83.2386 581 86V403H1026L1026.26 403.007C1028.9 403.141 1031 405.325 1031 408C1031 410.675 1028.9 412.859 1026.26 412.993L1026 413H576C573.239 413 571 410.761 571 408V86Z" fill="white"/>
<path d="M995 102.16C997.761 102.16 1000 104.399 1000 107.16C1000 109.922 997.761 112.16 995 112.16C983.705 112.16 973.508 118.52 963.282 129.659C953.051 140.805 943.536 155.904 933.452 171.936C923.49 187.774 913.011 204.453 901.096 217.927C889.172 231.41 875.349 242.228 858.479 245.664C842.113 248.997 829.6 246.844 818.984 241.866C808.654 237.022 800.268 229.519 792.37 222.982C784.283 216.289 776.455 210.353 766.526 207.129C757.031 204.046 745.166 203.316 728.836 207.675L727.241 208.112C714.268 211.774 704.194 222.879 695.567 239.014C686.972 255.09 680.358 275.105 673.737 295.148C667.204 314.929 660.63 334.865 652.146 349.809C643.693 364.696 632.434 376.2 616 376.2C613.239 376.2 611 373.962 611 371.2C611 368.439 613.239 366.2 616 366.2C626.873 366.2 635.526 358.827 643.449 344.871C651.341 330.972 657.608 312.097 664.241 292.013C670.788 272.192 677.666 251.286 686.749 234.299C695.8 217.37 707.589 203.268 724.525 198.488L726.267 198.01C744.126 193.245 757.984 193.842 769.614 197.618C781.492 201.475 790.572 208.514 798.746 215.279C807.109 222.201 814.338 228.642 823.23 232.812C831.838 236.849 842.157 238.783 856.483 235.865C870.305 233.05 882.339 224.041 893.604 211.302C904.879 198.553 914.923 182.611 924.987 166.611C934.93 150.805 944.944 134.848 955.916 122.896C966.894 110.938 979.574 102.16 995 102.16Z" fill="white"/>
<path d="M884.619 294.949C887.129 294.115 889.88 295.388 890.852 297.88C891.854 300.453 890.581 303.352 888.008 304.354L886.725 304.839C883.706 305.941 880.52 306.846 877.149 307.532C873.862 308.202 870.744 308.639 867.776 308.862L867.52 308.876C864.875 308.941 862.617 306.919 862.416 304.252C862.209 301.498 864.273 299.098 867.026 298.891L867.979 298.812C870.221 298.605 872.607 298.252 875.153 297.733C878.457 297.06 881.521 296.15 884.377 295.037L884.619 294.949ZM830.688 290.862C832.33 288.751 835.33 288.316 837.497 289.833L837.704 289.986L838.488 290.587C842.427 293.551 846.614 295.927 851.474 297.396C854.117 298.196 855.611 300.986 854.812 303.629C854.013 306.272 851.223 307.768 848.58 306.969C842.326 305.078 837.099 302.055 832.479 298.58L831.563 297.879L831.364 297.716C829.361 295.988 829.045 292.974 830.688 290.862ZM913.692 270.274C915.3 268.029 918.423 267.513 920.668 269.12C922.913 270.728 923.431 273.85 921.823 276.096C917.566 282.042 912.816 287.694 907.226 292.586L907.027 292.751C904.951 294.39 901.932 294.129 900.17 292.116C898.351 290.038 898.562 286.879 900.641 285.061L901.541 284.258C906.009 280.198 909.975 275.467 913.692 270.274ZM825.152 278.489C827.132 280.415 827.176 283.58 825.251 285.56C823.326 287.539 820.16 287.583 818.181 285.658L825.152 278.489ZM804.163 267.886C805.659 265.668 808.622 265.032 810.887 266.398L811.104 266.537L812.089 267.215C816.968 270.645 821.212 274.657 825.152 278.489L818.181 285.658C814.256 281.841 810.5 278.322 806.348 275.402L805.512 274.827L805.302 274.678C803.186 273.089 802.667 270.103 804.163 267.886ZM756.164 262.344C758.794 261.503 761.608 262.954 762.449 265.584C763.29 268.214 761.839 271.028 759.209 271.869C756.978 272.582 754.652 273.398 752.225 274.325L751.178 274.729C747.634 276.112 744.153 277.095 740.728 277.708L740.473 277.747C737.849 278.08 735.396 276.3 734.925 273.667C734.439 270.949 736.249 268.351 738.967 267.864L740.003 267.665C742.433 267.166 744.944 266.427 747.543 265.413L748.657 264.982C751.246 263.994 753.747 263.117 756.164 262.344ZM698.316 260.635C699.844 258.334 702.948 257.708 705.248 259.235C710.624 262.805 716.037 265.499 721.598 267.033C724.259 267.768 725.822 270.521 725.088 273.183C724.354 275.844 721.6 277.407 718.938 276.673C712.096 274.785 705.715 271.55 699.716 267.566C697.416 266.039 696.789 262.935 698.316 260.635ZM775.498 258.108C781.683 257.476 787.217 257.713 792.246 258.657L793.316 258.87L793.566 258.93C796.124 259.605 797.729 262.176 797.178 264.794C796.626 267.411 794.12 269.116 791.508 268.702L791.254 268.655L790.405 268.486C786.115 267.68 781.179 267.482 775.361 268.185L775.104 268.209C772.466 268.392 770.118 266.476 769.798 263.82C769.467 261.079 771.422 258.588 774.163 258.257L775.498 258.108ZM933.292 258.09C931.886 260.466 928.82 261.253 926.443 259.847C924.067 258.44 923.28 255.374 924.687 252.997L933.292 258.09ZM935.594 234.923C937.089 232.602 940.184 231.932 942.505 233.428C944.826 234.923 945.496 238.018 944 240.339C940.328 246.039 936.9 251.993 933.292 258.09L924.687 252.997C928.21 247.042 931.786 240.833 935.594 234.923ZM669.315 233.759C671.211 231.871 674.241 231.818 676.2 233.595L676.387 233.772L679.892 237.279C682.807 240.182 685.713 243.027 688.643 245.756L690.402 247.379L690.589 247.557C692.451 249.435 692.532 252.465 690.729 254.442C688.927 256.419 685.903 256.618 683.86 254.938L683.666 254.769L681.832 253.079C678.785 250.241 675.785 247.302 672.828 244.358L669.302 240.83L669.125 240.643C667.356 238.676 667.42 235.647 669.315 233.759ZM639.364 208.027C640.882 205.825 643.852 205.218 646.104 206.606L646.318 206.748L647.342 207.463C652.443 211.079 657.363 215.314 662.146 219.78C664.164 221.665 664.271 224.828 662.387 226.847C660.502 228.865 657.339 228.973 655.32 227.089C650.708 222.782 646.153 218.878 641.563 215.624L640.645 214.982L640.437 214.831C638.337 213.222 637.846 210.23 639.364 208.027ZM956.066 224.377C954.186 226.399 951.022 226.513 949 224.632C946.978 222.751 946.863 219.587 948.744 217.565L956.066 224.377ZM966.597 203.558C968.985 202.421 971.872 203.346 973.142 205.7C974.453 208.131 973.545 211.164 971.114 212.475L970.056 213.062C964.808 216.056 960.232 219.898 956.066 224.377L948.744 217.565C953.775 212.158 959.528 207.363 966.367 203.674L966.597 203.558ZM616 196C619.563 196 623.021 196.455 626.378 197.284L627.048 197.454L627.295 197.526C629.816 198.327 631.293 200.974 630.613 203.562C629.933 206.149 627.346 207.727 624.757 207.186L624.507 207.126L623.981 206.992C621.355 206.343 618.702 206 616 206C613.239 206 611 203.761 611 201C611 198.239 613.239 196 616 196ZM999 196C1001.76 196 1004 198.239 1004 201C1004 203.761 1001.76 206 999 206C995.517 206 992.267 206.229 989.226 206.656L988.97 206.686C986.335 206.921 983.95 205.049 983.578 202.4C983.194 199.666 985.099 197.137 987.834 196.753L989.166 196.578C992.295 196.197 995.569 196 999 196Z" fill="white"/>
<path d="M721.974 316.51C724.734 316.45 727.022 318.639 727.082 321.4C727.142 324.16 724.953 326.447 722.192 326.507C721.799 326.516 721.405 326.521 721.009 326.521L720.006 326.516L719.748 326.507C717.108 326.348 715.028 324.143 715.054 321.468C715.08 318.707 717.34 316.49 720.102 316.516L721.009 316.521C721.332 316.521 721.654 316.517 721.974 316.51ZM695.12 317.349C695.877 314.783 698.509 313.282 701.081 313.901L701.33 313.967L702.151 314.202L702.987 314.427L703.235 314.498C705.758 315.294 707.24 317.938 706.565 320.527C705.891 323.115 703.307 324.699 700.717 324.162L700.466 324.104L699.477 323.838L698.502 323.559L698.257 323.48C695.761 322.604 694.364 319.915 695.12 317.349ZM741.944 310.875C744.309 309.69 747.214 310.554 748.532 312.882C749.893 315.285 749.048 318.336 746.646 319.697L745.635 320.256C745.296 320.439 744.955 320.619 744.612 320.795C742.156 322.057 739.142 321.089 737.88 318.633C736.618 316.177 737.586 313.163 740.042 311.901C740.604 311.612 741.163 311.31 741.717 310.996L741.944 310.875ZM677.943 306.47C679.632 304.286 682.773 303.884 684.957 305.573C685.403 305.917 685.855 306.257 686.313 306.589C688.549 308.21 689.047 311.336 687.427 313.572C685.806 315.807 682.68 316.306 680.444 314.686C679.9 314.291 679.365 313.89 678.84 313.484C676.655 311.794 676.254 308.655 677.943 306.47ZM764.127 305.527C762.237 307.54 759.073 307.639 757.06 305.749C755.046 303.859 754.947 300.695 756.837 298.682L764.127 305.527ZM758.206 297.194C760.055 295.143 763.216 294.979 765.268 296.827C767.318 298.676 767.483 301.838 765.634 303.889C765.136 304.442 764.633 304.988 764.127 305.527L756.837 298.682C757.295 298.194 757.752 297.698 758.206 297.194ZM664.082 291.502C666.082 289.726 669.111 289.846 670.966 291.733L671.142 291.92L672.363 293.293C674.203 295.352 674.026 298.513 671.967 300.353C669.908 302.193 666.746 302.015 664.906 299.956L663.664 298.561L663.498 298.365C661.844 296.3 662.082 293.279 664.082 291.502ZM778.926 286.709C777.363 288.985 774.25 289.563 771.974 288C769.697 286.437 769.12 283.324 770.683 281.048L778.926 286.709ZM649.225 277.591C650.91 275.514 653.918 275.141 656.054 276.701L656.258 276.859L657.031 277.496C657.287 277.71 657.541 277.926 657.792 278.142C659.885 279.943 660.122 283.1 658.321 285.193C656.52 287.286 653.363 287.523 651.27 285.722C651.053 285.536 650.836 285.351 650.617 285.168L649.957 284.624L649.761 284.457C647.794 282.689 647.539 279.668 649.225 277.591ZM771.853 279.329C773.398 277.041 776.507 276.439 778.795 277.985C781.083 279.53 781.685 282.639 780.14 284.927C779.737 285.524 779.332 286.118 778.926 286.709L770.683 281.048C771.073 280.479 771.463 279.906 771.853 279.329ZM630.455 269.796C631.218 267.233 633.855 265.738 636.425 266.364L636.674 266.431L637.649 266.731L638.609 267.044L638.852 267.132C641.313 268.102 642.607 270.843 641.754 273.378C640.901 275.913 638.213 277.314 635.666 276.598L635.42 276.522L634.628 276.263L633.82 276.015L633.576 275.936C631.082 275.054 629.692 272.36 630.455 269.796ZM617.009 263.676L617.266 263.685C619.906 263.847 621.984 266.054 621.955 268.729C621.926 271.404 619.802 273.565 617.159 273.671L616.901 273.675L616 273.67L615.743 273.664C613.101 273.531 611 271.346 611 268.67C611 265.909 613.239 263.67 616 263.67L617.009 263.676ZM784.401 259.727C785.914 257.557 788.88 256.933 791.149 258.35C793.491 259.813 794.204 262.897 792.741 265.24L791.625 267.028C790.162 269.37 787.077 270.083 784.735 268.62C782.393 267.158 781.68 264.073 783.143 261.731C783.514 261.137 783.888 260.537 784.26 259.942L784.401 259.727ZM796.945 240.266C798.504 237.987 801.615 237.403 803.895 238.961C806.174 240.52 806.759 243.631 805.2 245.91C804.81 246.481 804.421 247.054 804.033 247.63C802.491 249.921 799.383 250.527 797.093 248.985C794.802 247.442 794.196 244.335 795.738 242.044C796.139 241.45 796.541 240.857 796.945 240.266ZM973.423 232.157L975.315 232.208L975.573 232.221C978.211 232.413 980.264 234.642 980.206 237.316C980.148 239.99 978 242.129 975.355 242.205L975.099 242.206L973.091 242.152L972.834 242.136C970.198 241.915 968.171 239.662 968.26 236.989C968.348 234.315 970.52 232.201 973.165 232.155L973.423 232.157ZM995.614 231.58C998.367 231.368 1000.77 233.427 1000.99 236.18C1001.2 238.933 999.139 241.337 996.386 241.55C996.038 241.577 995.692 241.603 995.348 241.628C992.594 241.83 990.198 239.761 989.996 237.007C989.794 234.253 991.863 231.857 994.617 231.656C994.948 231.631 995.28 231.606 995.614 231.58ZM946.792 233.853C947.308 231.228 949.79 229.489 952.408 229.867L952.662 229.91L953.578 230.086L954.507 230.256L954.759 230.307C957.336 230.903 959.02 233.422 958.551 236.056C958.081 238.689 955.629 240.471 953.005 240.139L952.75 240.1L951.736 239.914L950.734 239.723L950.482 239.666C947.916 239.026 946.277 236.478 946.792 233.853ZM926.431 226.308C927.522 223.866 930.331 222.728 932.798 223.683L933.036 223.782L933.895 224.159L934.767 224.533L935.001 224.638C937.384 225.785 938.475 228.612 937.438 231.078C936.402 233.545 933.619 234.745 931.132 233.845L930.892 233.751L929.917 233.335L928.957 232.912L928.725 232.801C926.367 231.601 925.34 228.75 926.431 226.308ZM817.605 229.581C815.796 231.667 812.639 231.892 810.553 230.082C808.467 228.273 808.243 225.116 810.052 223.03L817.605 229.581ZM811.498 221.389C813.342 219.334 816.503 219.162 818.559 221.005C820.614 222.849 820.786 226.011 818.942 228.067C818.495 228.566 818.049 229.071 817.605 229.581L810.052 223.03C810.53 222.478 811.012 221.931 811.498 221.389ZM908.175 214.556C909.758 212.294 912.875 211.743 915.138 213.326L916.724 214.426L916.933 214.577C919.035 216.183 919.531 219.173 918.018 221.378C916.504 223.584 913.536 224.196 911.282 222.812L911.066 222.672L909.404 221.52C907.142 219.936 906.591 216.818 908.175 214.556ZM829.875 205.269C832.191 203.765 835.287 204.423 836.791 206.739C838.295 209.055 837.637 212.152 835.321 213.656C834.777 214.009 834.236 214.371 833.699 214.743C831.43 216.317 828.315 215.754 826.741 213.485C825.168 211.216 825.731 208.1 828 206.527C828.618 206.098 829.244 205.679 829.875 205.269ZM889.827 202.985C891.097 200.63 893.983 199.705 896.372 200.841L896.602 200.957L897.533 201.469L898.453 201.993L898.673 202.126C900.893 203.564 901.619 206.506 900.281 208.823C898.943 211.139 896.031 211.98 893.677 210.774L893.451 210.651L892.654 210.199L891.854 209.759L891.631 209.631C889.369 208.259 888.557 205.339 889.827 202.985ZM853.229 195.852C855.847 195.479 858.326 197.222 858.837 199.847C859.364 202.557 857.595 205.183 854.885 205.71L853.926 205.902C853.608 205.967 853.291 206.034 852.976 206.105C850.281 206.708 847.607 205.012 847.004 202.318C846.401 199.623 848.097 196.95 850.791 196.347L851.926 196.104C852.277 196.032 852.627 195.962 852.975 195.895L853.229 195.852ZM874.989 194.394L876.061 194.497L876.315 194.532C878.929 194.943 880.788 197.336 880.506 199.996C880.224 202.657 877.905 204.607 875.264 204.462L875.007 204.442L874.119 204.356C873.82 204.33 873.518 204.306 873.214 204.285L873.902 194.309C874.267 194.334 874.63 194.362 874.989 194.394ZM873.902 194.309L873.214 204.285C870.459 204.095 868.38 201.708 868.57 198.953C868.76 196.199 871.148 194.119 873.902 194.309Z" fill="white"/>
<path d="M209 590L209.257 590.007C211.899 590.141 214 592.325 214 595V770C214 772.761 211.761 775 209 775H164C161.239 775 159 772.761 159 770V595L159.007 594.743C159.141 592.101 161.325 590 164 590H209ZM169 765H204V600H169V765Z" fill="white"/>
<path d="M284 524L284.257 524.007C286.899 524.141 289 526.325 289 529V770C289 772.761 286.761 775 284 775H239C236.239 775 234 772.761 234 770V529L234.007 528.743C234.141 526.101 236.325 524 239 524H284ZM244 765H279V534H244V765Z" fill="white"/>
<path d="M359 571L359.257 571.007C361.899 571.141 364 573.325 364 576V770C364 772.761 361.761 775 359 775H314C311.239 775 309 772.761 309 770V576L309.007 575.743C309.141 573.101 311.325 571 314 571H359ZM319 765H354V581H319V765Z" fill="white"/>
<path d="M434 465L434.257 465.007C436.899 465.141 439 467.325 439 470V770C439 772.761 436.761 775 434 775H389C386.239 775 384 772.761 384 770V470L384.007 469.743C384.141 467.101 386.325 465 389 465H434ZM394 765H429V475H394V765Z" fill="white"/>
<path d="M509 506L509.257 506.007C511.899 506.141 514 508.325 514 511V770C514 772.761 511.761 775 509 775H464C461.239 775 459 772.761 459 770V511L459.007 510.743C459.141 508.101 461.325 506 464 506H509ZM469 765H504V516H469V765Z" fill="white"/>
<path d="M554 765L554.257 765.007C556.899 765.141 559 767.325 559 770C559 772.675 556.899 774.859 554.257 774.993L554 775H119C116.239 775 114 772.761 114 770C114 767.239 116.239 765 119 765H554Z" fill="white"/>
<path d="M236 238.5C236 197.208 268.292 163.461 309 161.13V94.0869C231.234 96.7222 169 160.592 169 239C169 284.157 189.644 324.492 222.008 351.085L263.217 297.474C246.561 283.259 236 262.113 236 238.5ZM370.23 291.3C356.081 306.495 335.901 316 313.5 316C297.903 316 283.383 311.392 271.226 303.464L229.947 357.165C253.657 374.061 282.668 384 314 384C357.557 384 396.626 364.792 423.205 334.388L370.23 291.3ZM355.83 173.571C369.06 182.214 379.485 194.791 385.447 209.642L449.602 187.538C437.895 156.708 415.977 130.908 387.978 114.267L355.83 173.571ZM319 161.193C329.019 161.896 338.512 164.502 347.121 168.653L379.21 109.458C361.006 100.276 340.603 94.819 319 94.0869V161.193ZM469 239C469 324.604 399.604 394 314 394C228.396 394 159 324.604 159 239C159 153.396 228.396 84 314 84C399.604 84 469 153.396 469 239ZM246 238.5C246 275.779 276.221 306 313.5 306C350.779 306 381 275.779 381 238.5C381 201.221 350.779 171 313.5 171C276.221 171 246 201.221 246 238.5ZM391 238.5C391 255.306 385.65 270.862 376.561 283.56L429.524 326.638C448.02 302.295 459 271.93 459 239C459 224.397 456.838 210.298 452.822 197.005L388.563 219.146C390.154 225.332 391 231.817 391 238.5Z" fill="white"/>
<path fill-rule="evenodd" clip-rule="evenodd" d="M963.356 665.007C965.999 665.141 968.1 667.325 968.1 670V688H1099.82V671C1099.82 668.239 1102.06 666 1104.82 666C1107.58 666 1109.82 668.239 1109.82 671V716C1109.82 718.761 1107.58 721 1104.82 721C1102.06 721 1099.82 718.761 1099.82 716V698H968.1V714L968.093 714.257C967.959 716.899 965.775 719 963.1 719H717.653C714.892 719 712.653 716.761 712.653 714V698H647.956V715C647.956 717.761 645.717 720 642.956 720C640.195 720 637.956 717.761 637.956 715V670C637.956 667.239 640.195 665 642.956 665C645.717 665 647.956 667.239 647.956 670V688H712.653V670C712.653 667.239 714.892 665 717.653 665H963.1L963.356 665.007ZM722.653 709H958.1V675H722.653V709Z" fill="white"/>
<path d="M1070.39 580C1073.15 580 1075.39 582.239 1075.39 585V630C1075.39 632.761 1073.15 635 1070.39 635C1067.63 635 1065.39 632.761 1065.39 630V585C1065.39 582.239 1067.63 580 1070.39 580Z" fill="white"/>
<path fill-rule="evenodd" clip-rule="evenodd" d="M995.013 578.007C997.655 578.141 999.756 580.325 999.756 583V602H1065.39L1065.39 612H999.756V628L999.749 628.257C999.615 630.899 997.431 633 994.756 633H775C772.239 633 770 630.761 770 628V612H610V629C610 631.761 607.761 634 605 634C602.239 634 600 631.761 600 629V584C600 581.239 602.239 579 605 579C607.761 579 610 581.239 610 584V602H770V583C770 580.239 772.239 578 775 578H994.756L995.013 578.007ZM780 623H989.756V588H780V623Z" fill="white"/>
<path fill-rule="evenodd" clip-rule="evenodd" d="M925.951 494.007C928.593 494.141 930.694 496.325 930.694 499V516H1114.2V499C1114.2 496.239 1116.44 494 1119.2 494C1121.97 494 1124.2 496.239 1124.2 499V544C1124.2 546.761 1121.97 549 1119.2 549C1116.44 549 1114.2 546.761 1114.2 544V526H930.694V544L930.688 544.257C930.554 546.899 928.37 549 925.694 549H735.37C732.609 549 730.37 546.761 730.37 544V527H681.823V544C681.823 546.761 679.585 549 676.823 549C674.062 549 671.823 546.761 671.823 544V499C671.823 496.239 674.062 494 676.823 494C679.585 494 681.823 496.239 681.823 499V517H730.37V499C730.37 496.239 732.61 494 735.371 494H925.695L925.951 494.007ZM740.37 539H920.694V504H740.37V539Z" fill="white"/>
</svg>
