<svg width="32" height="32" viewBox="0 0 32 32" fill="none" xmlns="http://www.w3.org/2000/svg">
<path fill-rule="evenodd" clip-rule="evenodd" d="M0 4C0 2.89543 0.895431 2 2 2H30C31.1046 2 32 2.89543 32 4C32 5.10457 31.1046 6 30 6H2C0.895431 6 0 5.10457 0 4Z" fill="black"/>
<path fill-rule="evenodd" clip-rule="evenodd" d="M0 16C0 14.8954 0.895431 14 2 14H30C31.1046 14 32 14.8954 32 16C32 17.1046 31.1046 18 30 18H2C0.895431 18 0 17.1046 0 16Z" fill="black"/>
<path fill-rule="evenodd" clip-rule="evenodd" d="M0 28C0 26.8954 0.895431 26 2 26H30C31.1046 26 32 26.8954 32 28C32 29.1046 31.1046 30 30 30H2C0.895431 30 0 29.1046 0 28Z" fill="black"/>
</svg>
