<svg width="32" height="32" viewBox="0 0 32 32" fill="none" xmlns="http://www.w3.org/2000/svg">
<path fill-rule="evenodd" clip-rule="evenodd" d="M4.58579 4.41421C5.36683 3.63317 6.63317 3.63317 7.41421 4.41421L27.2132 24.2132C27.9943 24.9943 27.9943 26.2606 27.2132 27.0416C26.4322 27.8227 25.1658 27.8227 24.3848 27.0416L4.58579 7.24264C3.80474 6.46159 3.80474 5.19526 4.58579 4.41421Z" fill="black"/>
<path fill-rule="evenodd" clip-rule="evenodd" d="M4.41421 27.4142C3.63317 26.6332 3.63317 25.3668 4.41421 24.5858L24.2132 4.7868C24.9943 4.00575 26.2606 4.00575 27.0416 4.7868C27.8227 5.56785 27.8227 6.83417 27.0416 7.61522L7.24264 27.4142C6.46159 28.1953 5.19526 28.1953 4.41421 27.4142Z" fill="black"/>
</svg>
