<?xml version="1.0" encoding="UTF-8"?>
<svg width="1300px" height="400px" viewBox="0 0 1300 400" version="1.1" xmlns="http://www.w3.org/2000/svg" xmlns:xlink="http://www.w3.org/1999/xlink">
    <!-- Generator: Sketch 58 (84663) - https://sketch.com -->
    <title>Artboard</title>
    <desc>Created with Sketch.</desc>
    <g id="Artboard" stroke="none" stroke-width="1" fill="none" fill-rule="evenodd">
        <rect id="Rectangle" stroke="#979797" fill="#1F2453" x="0" y="0" width="1300" height="400"></rect>
        <g id="Group-11" transform="translate(423.000000, 174.000000)" fill="#FFFFFF">
            <path d="M17.3842207,45.6816325 C30.0498189,45.6816325 38.1339182,36.9392913 38.1339182,25.6441036 L38.1339182,25.498474 C38.1339182,14.2062903 30.0498189,5.31826901 17.3842207,5.31826901 L5.65167506,5.31826901 L5.65167506,45.6816325 L17.3842207,45.6816325 L17.3842207,45.6816325 Z M0,0 L17.3842207,0 C33.1260078,0 44,11.0007803 44,25.3528444 L44,25.498474 C44,39.853566 33.1260078,51 17.3842207,51 L0,51 L0,0 L0,0 Z" id="Fill-1"></path>
            <polygon id="Fill-3" points="59 0 95.6380036 0 95.6380036 5.24541083 64.7196889 5.24541083 64.7196889 22.6572266 92.3800355 22.6572266 92.3800355 27.9025413 64.7196889 27.9025413 64.7196889 45.7546829 96 45.7546829 96 51 59 51"></polygon>
            <path d="M107,43.9115131 L110.546428,39.7229122 C115.829715,44.489194 120.896076,46.8723384 127.919362,46.8723384 C134.722581,46.8723384 139.209908,43.2616495 139.209908,38.2785885 L139.209908,38.1339872 C139.209908,33.4398858 136.676848,30.7677841 126.034665,28.5290027 C114.382253,25.9984031 109.026496,22.24312 109.026496,13.9380461 L109.026496,13.793614 C109.026496,5.84965618 116.046883,0 125.675698,0 C133.05795,0 138.341479,2.09430164 143.480068,6.2107246 L140.150807,10.6160356 C135.446312,6.78847695 130.742059,5.1274717 125.531,5.1274717 C118.941808,5.1274717 114.744118,8.73837028 114.744118,13.2880896 L114.744118,13.4325218 C114.744118,18.198925 117.352546,20.870979 128.498395,23.2541211 C139.788941,25.7125404 145,29.8289634 145,37.5563111 L145,37.700667 C145,46.3668355 137.762445,52 127.702194,52 C119.66868,52 113.079488,49.3278967 107,43.9115131" id="Fill-4"></path>
            <polygon id="Fill-5" points="160 51 166 51 166 0 160 0"></polygon>
            <path d="M182,26.1435203 L182,25.9999653 C182,12.2085232 192.181304,0 207.345286,0 C215.868911,0 221.140321,2.44169043 226.194821,6.67876586 L222.512161,10.9876662 C218.61283,7.61237079 214.280402,5.24248155 207.13175,5.24248155 C195.936268,5.24248155 187.920938,14.6532221 187.920938,25.8564103 L187.920938,25.9999653 C187.920938,37.9929665 195.647295,46.8981116 207.925884,46.8981116 C213.702696,46.8981116 219.046169,44.6718247 222.512161,41.8710857 L222.512161,29.3751659 L207.13175,29.3751659 L207.13175,24.2763578 L228,24.2763578 L228,44.3127004 C223.306536,48.4779296 216.229946,52 207.706322,52 C191.820268,52 182,40.5066003 182,26.1435203" id="Fill-6"></path>
            <polygon id="Fill-7" points="245 0 250.24704 0 281.53749 40.8734402 281.53749 0 287 0 287 51 282.529597 51 250.46251 9.17945694 250.46251 51 245 51"></polygon>
            <polygon id="Fill-8" points="305 0 316.024746 0 316.024746 40.8006253 341 40.8006253 341 51 305 51"></polygon>
            <path d="M380.998066,29.8039225 L374.356976,13.3844484 L367.715886,29.8039225 L380.998066,29.8039225 Z M369.429792,0 L379.572592,0 L401,51 L389.498471,51 L384.926464,39.640962 L363.787488,39.640962 L359.213097,51 L348,51 L369.429792,0 Z" id="Fill-9"></path>
            <path d="M436.063888,41.16494 C440.981826,41.16494 443.943684,39.4164217 443.943684,35.6281279 L443.943684,35.4822602 C443.943684,32.0582763 441.415975,29.9454433 435.706922,29.9454433 L422.839242,29.9454433 L422.839242,41.16494 L436.063888,41.16494 Z M433.104442,20.6174488 C438.015145,20.6174488 441.126543,19.0146083 441.126543,15.22624 L441.126543,15.0805381 C441.126543,11.7293234 438.521651,9.83515132 433.823199,9.83515132 L422.839242,9.83515132 L422.839242,20.6174488 L433.104442,20.6174488 Z M412,0 L435.489847,0 C441.266435,0 445.820171,1.60276843 448.714494,4.51687754 C451.025129,6.84817926 452.182858,9.68942544 452.182858,13.186366 L452.182858,13.3320678 C452.182858,19.0904751 449.146231,22.2929119 445.53315,24.3358139 C451.386919,26.5942767 455,30.0184985 455,36.8664638 L455,37.0123315 C455,46.3374422 447.484407,51 436.063888,51 L412,51 L412,0 Z" id="Fill-10"></path>
        </g>
        <g id="Group-2" transform="translate(1103.000000, 98.000000)" stroke="#726FC5">
            <g id="Group-3">
                <path d="M48,24 C48,37.2548 37.255,48 24,48 C10.745,48 0,37.2548 0,24 C0,10.7452 10.745,0 24,0 C37.255,0 48,10.7452 48,24 Z" id="Stroke-1"></path>
            </g>
            <polyline id="Stroke-4" stroke-linecap="round" stroke-linejoin="round" points="36 17 19.482 33 12 25.7518857"></polyline>
        </g>
        <polygon id="Stroke-143" stroke="#726FC5" stroke-linejoin="round" points="202.206127 254.794661 210.99188 274.637499 203.483115 278 194.660454 258.075512 185 266.923417 185 226 215 253.573621"></polygon>
        <g id="Group-23" transform="translate(307.000000, 98.000000) rotate(-1.000000) translate(-307.000000, -98.000000) translate(265.000000, 72.000000)" stroke="#726FC5" stroke-linecap="round" stroke-linejoin="round">
            <path d="M16.7360586,28.2806294 L21.7400312,49.8875777 C38.6631725,54.7550485 55.5367611,50.8806417 66.7360586,39.5567979 L61.7320861,17.9490168" id="Stroke-17"></path>
            <polygon id="Stroke-19" points="0.365563729 24.2404294 36.0537363 0.627214058 77.3655637 6.4274116 42.8464186 31.6272141"></polygon>
            <path d="M76.4274357,6.21011277 L83.4274357,28.2101128" id="Stroke-21"></path>
        </g>
        <g id="Fill-11" transform="translate(981.000000, 252.000000)" fill="#565495">
            <path d="M0.5,47.25 L0,47.25 C0,47.5261 0.223858,47.75 0.5,47.75 L0.5,47.25 Z M47,47.25 L47,47.75 C47.2761,47.75 47.5,47.5261 47.5,47.25 L47,47.25 Z M23.75,24 C30.3786924,24 35.75,18.631657 35.75,12 L34.3383183,12 C34.3383183,17.851844 29.599303,22.5883183 23.75,22.5883183 L23.75,24 Z M35.75,12 C35.75,5.3694652 30.3785513,0 23.75,0 L23.75,1.41201388 C29.599303,1.41201388 34.3383183,6.14974407 34.3383183,12 L35.75,12 Z M23.75,0 C17.1214331,0 11.75,5.3694652 11.75,12 L13.161685,12 C13.161685,6.14974407 17.9006833,1.41201388 23.75,1.41201388 L23.75,0 Z M11.75,12 C11.75,18.631657 17.121292,24 23.75,24 L23.75,22.5883183 C17.9008244,22.5883183 13.161685,17.851844 13.161685,12 L11.75,12 Z M23.75,28 C19.9415268,28 14.2776077,28.9626816 9.54825626,30.8815525 C7.183002,31.8412702 5.00764168,33.0574302 3.41243227,34.548521 C1.81248318,36.0439871 0.75,37.8633578 0.75,40 L2.14402388,40 C2.14402388,38.3816054 2.93909146,36.9118259 4.35805443,35.5854396 C5.78174314,34.2548192 7.78665616,33.116848 10.0668331,32.1917083 C14.6283441,30.3408645 20.1159191,29.4113496 23.75,29.4113496 L23.75,28 Z M0.75,40 L0.75,46 L1.75,46 L1.75,40 L0.75,40 Z M0.75,47 L46.75,47 L46.75,46 L0.75,46 L0.75,47 Z M46.75,46 L46.75,40 L45.75,40 L45.75,46 L46.75,46 Z M47.75,40 C47.75,37.8633578 46.6414126,36.0439871 44.972132,34.548521 C43.3076511,33.0574302 41.0379704,31.8412702 38.5699018,30.8815525 C33.6352191,28.9626816 27.7250318,28 23.75,28 L23.75,29.4113496 C27.5430792,29.4113496 33.2694231,30.3408645 38.0289892,32.1917083 C40.4081904,33.116848 42.4999909,34.2548192 43.9854282,35.5854396 C45.4660657,36.9118259 46.2955427,38.3816054 46.2955427,40 L47.75,40 Z" id="Fill-5"></path>
        </g>
        <g id="Group-125" transform="translate(35.000000, 0.000000)" fill="#726FC5" fill-opacity="0.6">
            <path d="M0,2.5 C0,3.88 1.12,5 2.5,5 C3.88,5 5,3.88 5,2.5 C5,1.12 3.88,0 2.5,0 C1.12,0 0,1.12 0,2.5 Z" id="Fill-99"></path>
            <path d="M29,2.5 C29,3.88 30.12,5 31.5,5 C32.88,5 34,3.88 34,2.5 C34,1.12 32.88,0 31.5,0 C30.12,0 29,1.12 29,2.5 Z" id="Fill-101"></path>
            <path d="M58,2.5 C58,3.88 59.12,5 60.5,5 C61.88,5 63,3.88 63,2.5 C63,1.12 61.88,0 60.5,0 C59.12,0 58,1.12 58,2.5 Z" id="Fill-102"></path>
            <path d="M88,2.5 C88,3.88 89.12,5 90.5,5 C91.88,5 93,3.88 93,2.5 C93,1.12 91.88,0 90.5,0 C89.12,0 88,1.12 88,2.5 Z" id="Fill-103"></path>
            <path d="M117,2.5 C117,3.88 118.12,5 119.5,5 C120.88,5 122,3.88 122,2.5 C122,1.12 120.88,0 119.5,0 C118.12,0 117,1.12 117,2.5 Z" id="Fill-104"></path>
            <path d="M0,31.5 C0,32.88 1.12,34 2.5,34 C3.88,34 5,32.88 5,31.5 C5,30.12 3.88,29 2.5,29 C1.12,29 0,30.12 0,31.5 Z" id="Fill-105"></path>
            <path d="M29,31.5 C29,32.88 30.12,34 31.5,34 C32.88,34 34,32.88 34,31.5 C34,30.12 32.88,29 31.5,29 C30.12,29 29,30.12 29,31.5 Z" id="Fill-106"></path>
            <path d="M58,31.5 C58,32.88 59.12,34 60.5,34 C61.88,34 63,32.88 63,31.5 C63,30.12 61.88,29 60.5,29 C59.12,29 58,30.12 58,31.5 Z" id="Fill-107"></path>
            <path d="M88,31.5 C88,32.88 89.12,34 90.5,34 C91.88,34 93,32.88 93,31.5 C93,30.12 91.88,29 90.5,29 C89.12,29 88,30.12 88,31.5 Z" id="Fill-108"></path>
            <path d="M117,31.5 C117,32.88 118.12,34 119.5,34 C120.88,34 122,32.88 122,31.5 C122,30.12 120.88,29 119.5,29 C118.12,29 117,30.12 117,31.5 Z" id="Fill-109"></path>
            <path d="M0,60.5 C0,61.88 1.12,63 2.5,63 C3.88,63 5,61.88 5,60.5 C5,59.12 3.88,58 2.5,58 C1.12,58 0,59.12 0,60.5 Z" id="Fill-110"></path>
            <path d="M29,60.5 C29,61.88 30.12,63 31.5,63 C32.88,63 34,61.88 34,60.5 C34,59.12 32.88,58 31.5,58 C30.12,58 29,59.12 29,60.5 Z" id="Fill-111"></path>
            <path d="M58,60.5 C58,61.88 59.12,63 60.5,63 C61.88,63 63,61.88 63,60.5 C63,59.12 61.88,58 60.5,58 C59.12,58 58,59.12 58,60.5 Z" id="Fill-112"></path>
            <path d="M88,60.5 C88,61.88 89.12,63 90.5,63 C91.88,63 93,61.88 93,60.5 C93,59.12 91.88,58 90.5,58 C89.12,58 88,59.12 88,60.5 Z" id="Fill-113"></path>
            <path d="M117,60.5 C117,61.88 118.12,63 119.5,63 C120.88,63 122,61.88 122,60.5 C122,59.12 120.88,58 119.5,58 C118.12,58 117,59.12 117,60.5 Z" id="Fill-114"></path>
            <path d="M0,90.5 C0,91.88 1.12,93 2.5,93 C3.88,93 5,91.88 5,90.5 C5,89.12 3.88,88 2.5,88 C1.12,88 0,89.12 0,90.5 Z" id="Fill-115"></path>
            <path d="M29,90.5 C29,91.88 30.12,93 31.5,93 C32.88,93 34,91.88 34,90.5 C34,89.12 32.88,88 31.5,88 C30.12,88 29,89.12 29,90.5 Z" id="Fill-116"></path>
            <path d="M58,90.5 C58,91.88 59.12,93 60.5,93 C61.88,93 63,91.88 63,90.5 C63,89.12 61.88,88 60.5,88 C59.12,88 58,89.12 58,90.5 Z" id="Fill-117"></path>
            <path d="M88,90.5 C88,91.88 89.12,93 90.5,93 C91.88,93 93,91.88 93,90.5 C93,89.12 91.88,88 90.5,88 C89.12,88 88,89.12 88,90.5 Z" id="Fill-118"></path>
            <path d="M117,90.5 C117,91.88 118.12,93 119.5,93 C120.88,93 122,91.88 122,90.5 C122,89.12 120.88,88 119.5,88 C118.12,88 117,89.12 117,90.5 Z" id="Fill-119"></path>
            <path d="M0,119.5 C0,120.88 1.12,122 2.5,122 C3.88,122 5,120.88 5,119.5 C5,118.12 3.88,117 2.5,117 C1.12,117 0,118.12 0,119.5 Z" id="Fill-120"></path>
            <path d="M29,119.5 C29,120.88 30.12,122 31.5,122 C32.88,122 34,120.88 34,119.5 C34,118.12 32.88,117 31.5,117 C30.12,117 29,118.12 29,119.5 Z" id="Fill-121"></path>
            <path d="M58,119.5 C58,120.88 59.12,122 60.5,122 C61.88,122 63,120.88 63,119.5 C63,118.12 61.88,117 60.5,117 C59.12,117 58,118.12 58,119.5 Z" id="Fill-122"></path>
            <path d="M88,119.5 C88,120.88 89.12,122 90.5,122 C91.88,122 93,120.88 93,119.5 C93,118.12 91.88,117 90.5,117 C89.12,117 88,118.12 88,119.5 Z" id="Fill-123"></path>
            <path d="M117,119.5 C117,120.88 118.12,122 119.5,122 C120.88,122 122,120.88 122,119.5 C122,118.12 120.88,117 119.5,117 C118.12,117 117,118.12 117,119.5 Z" id="Fill-124"></path>
        </g>
        <g id="Group-125-Copy" transform="translate(1151.000000, 254.000000)" fill="#726FC5" fill-opacity="0.6">
            <path d="M0,2.5 C0,3.88 1.12,5 2.5,5 C3.88,5 5,3.88 5,2.5 C5,1.12 3.88,0 2.5,0 C1.12,0 0,1.12 0,2.5 Z" id="Fill-106"></path>
            <path d="M29,2.5 C29,3.88 30.12,5 31.5,5 C32.88,5 34,3.88 34,2.5 C34,1.12 32.88,0 31.5,0 C30.12,0 29,1.12 29,2.5 Z" id="Fill-107"></path>
            <path d="M59,2.5 C59,3.88 60.12,5 61.5,5 C62.88,5 64,3.88 64,2.5 C64,1.12 62.88,0 61.5,0 C60.12,0 59,1.12 59,2.5 Z" id="Fill-108"></path>
            <path d="M88,2.5 C88,3.88 89.12,5 90.5,5 C91.88,5 93,3.88 93,2.5 C93,1.12 91.88,0 90.5,0 C89.12,0 88,1.12 88,2.5 Z" id="Fill-109"></path>
            <path d="M0,31.5 C0,32.88 1.12,34 2.5,34 C3.88,34 5,32.88 5,31.5 C5,30.12 3.88,29 2.5,29 C1.12,29 0,30.12 0,31.5 Z" id="Fill-111"></path>
            <path d="M29,31.5 C29,32.88 30.12,34 31.5,34 C32.88,34 34,32.88 34,31.5 C34,30.12 32.88,29 31.5,29 C30.12,29 29,30.12 29,31.5 Z" id="Fill-112"></path>
            <path d="M59,31.5 C59,32.88 60.12,34 61.5,34 C62.88,34 64,32.88 64,31.5 C64,30.12 62.88,29 61.5,29 C60.12,29 59,30.12 59,31.5 Z" id="Fill-113"></path>
            <path d="M88,31.5 C88,32.88 89.12,34 90.5,34 C91.88,34 93,32.88 93,31.5 C93,30.12 91.88,29 90.5,29 C89.12,29 88,30.12 88,31.5 Z" id="Fill-114"></path>
            <path d="M0,61.5 C0,62.88 1.12,64 2.5,64 C3.88,64 5,62.88 5,61.5 C5,60.12 3.88,59 2.5,59 C1.12,59 0,60.12 0,61.5 Z" id="Fill-116"></path>
            <path d="M29,61.5 C29,62.88 30.12,64 31.5,64 C32.88,64 34,62.88 34,61.5 C34,60.12 32.88,59 31.5,59 C30.12,59 29,60.12 29,61.5 Z" id="Fill-117"></path>
            <path d="M59,61.5 C59,62.88 60.12,64 61.5,64 C62.88,64 64,62.88 64,61.5 C64,60.12 62.88,59 61.5,59 C60.12,59 59,60.12 59,61.5 Z" id="Fill-118"></path>
            <path d="M88,61.5 C88,62.88 89.12,64 90.5,64 C91.88,64 93,62.88 93,61.5 C93,60.12 91.88,59 90.5,59 C89.12,59 88,60.12 88,61.5 Z" id="Fill-119"></path>
            <path d="M0,90.5 C0,91.88 1.12,93 2.5,93 C3.88,93 5,91.88 5,90.5 C5,89.12 3.88,88 2.5,88 C1.12,88 0,89.12 0,90.5 Z" id="Fill-121"></path>
            <path d="M29,90.5 C29,91.88 30.12,93 31.5,93 C32.88,93 34,91.88 34,90.5 C34,89.12 32.88,88 31.5,88 C30.12,88 29,89.12 29,90.5 Z" id="Fill-122"></path>
            <path d="M59,90.5 C59,91.88 60.12,93 61.5,93 C62.88,93 64,91.88 64,90.5 C64,89.12 62.88,88 61.5,88 C60.12,88 59,89.12 59,90.5 Z" id="Fill-123"></path>
            <path d="M88,90.5 C88,91.88 89.12,93 90.5,93 C91.88,93 93,91.88 93,90.5 C93,89.12 91.88,88 90.5,88 C89.12,88 88,89.12 88,90.5 Z" id="Fill-124"></path>
        </g>
    </g>
</svg>