<svg height="300" viewBox="0 0 500 300" width="500" xmlns="http://www.w3.org/2000/svg"><g fill="none" fill-rule="evenodd"><path d="m0 0h500v300h-500z" fill="#60bbd5"/><g fill="#fff"><path d="m108.780004 85.6659984-4.067484 1.7500779v-4.0024345l4.067484-1.7696637zm0 6.9845167-4.067484 1.7500779v-4.0024345l4.067484-1.7696636zm0 6.983885-4.067484 1.7500779v-4.0024345l4.067484-1.7696636zm-5.905636-11.5479871-4.0668296 1.7507097v-4.0024345l4.0668296-1.7702954zm0 6.9845168-4.0668296 1.7500779v-4.0024346l4.0668296-1.7696636zm0 6.9838852-4.0668296 1.750078v-4.0024349l4.0668296-1.7696636zm-6.1463617-11.290846-4.0668296 1.750078v-4.0024346l4.0668296-1.7696636zm0 6.983885-4.0668296 1.7507097v-4.0030663l4.0668296-1.7696636zm0 6.984517-4.0668296 1.750078v-4.002435l4.0668296-1.769663zm-13.3537491-48.6313172-20.8816683 9.0865057v-3.8760751l20.8816683-9.0865057zm0 7.3737038-20.8816683 9.0902964v-3.8811294l20.8816683-9.0852421zm0 7.3749674-20.8816683 9.0839784v-3.8779705l20.8816683-9.0871374zm0 7.3705447-20.8816683 9.0871375v-3.8779705l20.8816683-9.0884011zm0 7.3755992-20.8816683 9.0871374v-3.8817612l20.8816683-9.0846103zm0 7.3705448-20.8816683 9.0871373v-3.8748114l20.8816683-9.09156zm0 7.3737033-20.8816683 9.085242v-3.874811l20.8816683-9.0915601zm0 7.372441-20.8816683 9.086505v-3.879866l20.8816683-9.08461zm0 7.373072-20.8816683 9.085242v-3.87418l20.8816683-9.092192zm0 5.690596-.0098122.004422v1.515682l-20.8718561 9.083978v-3.713703l20.8816683-9.089665zm0 8.792088-20.77308 9.041016v-3.603138l20.77308-9.039121zm-30.3595987-95.9845082-18.814565-8.1880902v-3.4976287l18.814565 8.1868266zm0 6.6420827-18.814565-8.1880902v-3.4976286l18.814565 8.1899856zm0 6.6433464-18.814565-8.1899856v-3.4919425l18.814565 8.1861948zm-.9982277 19.2559115-20.8816684-9.0865057v-3.8798659l20.8816684 9.0890329zm0 7.3705447-20.8816684-9.085242v-3.8779705l20.8816684 9.085242zm0 7.3737038-20.8816684-9.0852421v-3.879234l20.8816684 9.088401zm0 7.3737038-20.8816684-9.0865057v-3.8798659l20.8816684 9.0871375zm0 7.3768627-20.8816684-9.0896646v-3.8760751l20.8816684 9.0833466zm0 7.3692816-20.8816684-9.0884014v-3.876707l20.8816684 9.0871375zm0 7.371808-20.8816684-9.083347v-3.8811292l20.8816684 9.0884012zm0 7.373704-20.8816684-9.086506v-3.87797l20.8816684 9.086505zm0 7.373703-20.8816684-9.086505v-3.879866l20.8816684 9.085242zm0 4.771964v2.60174l-20.8816684-9.088401v-3.881129l20.8816684 9.088401zm-.1190547 9.874988-20.7626137-9.034698v-3.834377l20.7626137 9.036594zm-31.5632285-63.7786517-6.9457288-2.9959818v-6.5751122l6.9457288 3.0212536zm0 13.1104213-6.9457288-2.9940864v-6.5757441l6.9457288 3.0218855zm0 12.7540874-6.9457288-2.9953497v-6.575744l6.9457288 3.0212536zm0 13.111685-6.9457288-2.99535v-6.577007l6.9457288 3.023149zm-9.4491479-43.0519167-6.94376633-2.99535v-6.61302l6.94376633 3.023149zm0 13.1123167-6.94376633-2.9959818v-6.6111247l6.94376633 3.0218855zm0 12.7521923-6.94376633-2.9934546v-6.61302l6.94376633 3.01999zm0 13.1123167-6.94376633-2.99535v-6.61302l6.94376633 3.023149zm48.7836382-67.0621015 18.8178358-8.1899855v3.4988922l-18.8178358 8.1899856zm0-6.6439781 18.8178358-8.1861948v3.4957333l-18.8178358 8.1880902zm0-6.6414509 18.8178358-8.1868266v3.4925742l-18.8178358 8.1880902zm28.3768803 22.0554044v63.7830741l-1.2886688.577463v-73.7907404l-29.2109173 12.8191628v73.3996576l-1.2023214.601471v-74.7302224l30.2300776-13.4339014-6.0717889-2.7982293v-22.5450471l-23.0632473 10.5149988.058219 24.0733643-1.2199834.4586847v-25.2958916l24.1229648-10.9041859-6.6173472-2.892367v-3.18867993l-5.3110163-2.3603939v-2.85825001l-12.1278783-4.01570226-11.5934406 4.43332014v2.08556217l-6.237288 2.67566065v3.25754574l-6.5336164 2.874045v23.8086413l-6.0593601 2.6769242v75.5787258l-1.2435327-.515546v-75.4163544l-24.6763729 11.3357033v71.8024751l57.2378291 25.403297 55.4487379-24.975571v-61.1048863z" transform="translate(194 75)"/><text font-family="Karla-Regular, Karla" font-size="20"><tspan x="24" y="38">2014</tspan></text></g></g></svg>