<svg width="500" height="300" viewBox="0 0 500 300" fill="none" xmlns="http://www.w3.org/2000/svg">
<g id="nationbuilder_rebrand1">
<rect width="500" height="300" fill="white"/>
<rect id="Rectangle" width="500" height="300" fill="#60BBD5"/>
<g id="Group Copy">
<path id="Fill-3" fill-rule="evenodd" clip-rule="evenodd" d="M302.78 160.666L298.713 162.416V158.414L302.78 156.644V160.666ZM302.78 167.651L298.713 169.401V165.398L302.78 163.628V167.651ZM302.78 174.634L298.713 176.384V172.382L302.78 170.612V174.634ZM296.874 163.086L292.808 164.837V160.835L296.874 159.064V163.086ZM296.874 170.071L292.808 171.821V167.819L296.874 166.049V170.071ZM296.874 177.055L292.808 178.805V174.802L296.874 173.033V177.055ZM290.728 165.764L286.661 167.514V163.512L290.728 161.742V165.764ZM290.728 172.748L286.661 174.499V170.495L290.728 168.726V172.748ZM290.728 179.732L286.661 181.482V177.48L290.728 175.71V179.732ZM277.374 131.101L256.493 140.188V136.311L277.374 127.225V131.101ZM277.374 138.475L256.493 147.565V143.684L277.374 134.599V138.475ZM277.374 145.85L256.493 154.934V151.056L277.374 141.969V145.85ZM277.374 153.22L256.493 162.307V158.429L277.374 149.341V153.22ZM277.374 160.596L256.493 169.683V165.801L277.374 156.717V160.596ZM277.374 167.966L256.493 177.054V173.179L277.374 164.087V167.966ZM277.374 175.34L256.493 184.425V180.551L277.374 171.459V175.34ZM277.374 182.713L256.493 191.799V187.919L277.374 178.835V182.713ZM277.374 190.086L256.493 199.171V195.297L277.374 186.204V190.086ZM277.374 195.776L277.364 195.781V197.296L256.493 206.38V202.667L277.374 193.577V195.776ZM277.374 204.568L256.601 213.609V210.006L277.374 200.967V204.568ZM247.015 108.584L228.2 100.396V96.8981L247.015 105.085V108.584ZM247.015 115.226L228.2 107.038V103.54L247.015 111.73V115.226ZM247.015 121.869L228.2 113.679V110.187L247.015 118.374V121.869ZM246.016 141.125L225.135 132.039V128.159L246.016 137.248V141.125ZM246.016 148.496L225.135 139.41V135.532L246.016 144.618V148.496ZM246.016 155.869L225.135 146.784V142.905L246.016 151.993V155.869ZM246.016 163.243L225.135 154.157V150.277L246.016 159.364V163.243ZM246.016 170.62L225.135 161.53V157.654L246.016 166.738V170.62ZM246.016 177.989L225.135 168.901V165.024L246.016 174.111V177.989ZM246.016 185.361L225.135 176.278V172.397L246.016 181.485V185.361ZM246.016 192.735L225.135 183.648V179.77L246.016 188.857V192.735ZM246.016 200.108L225.135 191.022V187.142L246.016 196.227V200.108ZM246.016 204.88V207.482L225.135 198.394V194.513L246.016 203.601V204.88ZM245.897 214.755L225.135 205.721V201.886L245.897 210.923V214.755ZM214.334 150.977L207.388 147.981V141.406L214.334 144.427V150.977ZM214.334 164.087L207.388 161.093V154.517L214.334 157.539V164.087ZM214.334 176.841L207.388 173.846V167.27L214.334 170.291V176.841ZM214.334 189.953L207.388 186.958V180.381L214.334 183.404V189.953ZM204.885 146.901L197.941 143.906V137.293L204.885 140.316V146.901ZM204.885 160.013L197.941 157.017V150.406L204.885 153.428V160.013ZM204.885 172.766L197.941 169.772V163.159L204.885 166.179V172.766ZM204.885 185.878L197.941 182.883V176.269L204.885 179.293V185.878ZM253.669 118.816L272.486 110.626V114.125L253.669 122.315V118.816ZM253.669 112.172L272.486 103.986V107.481L253.669 115.669V112.172ZM253.669 105.53L272.486 97.3435V100.836L253.669 109.024V105.53ZM282.046 127.586V191.369L280.757 191.946V118.156L251.546 130.975V204.374L250.344 204.976V130.246L280.574 116.812L274.502 114.013V91.4684L251.439 101.983L251.497 126.057L250.277 126.515V101.22L274.4 90.3154L267.783 87.423V84.2343L262.471 81.874V79.0157L250.344 75L238.75 79.4333V81.5189L232.513 84.1945V87.4521L225.979 90.3261V114.135L219.92 116.812V192.39L218.676 191.875V116.459L194 127.794V199.597L251.238 225L306.687 200.024V138.92L282.046 127.586Z" fill="white"/>
</g>
<g id="2014">
<path d="M26.86 36.54H34.16V38H25.28V36.14C25.28 34.66 25.84 33.5733 26.96 32.88C27.32 32.6533 27.72 32.4533 28.16 32.28L30.64 31.28C31.92 30.7733 32.56 29.94 32.56 28.78C32.56 28.14 32.34 27.62 31.9 27.22C31.46 26.8067 30.84 26.6 30.04 26.6C29.2533 26.6 28.6067 26.7667 28.1 27.1C27.6067 27.4333 27.32 27.9333 27.24 28.6H25.5C25.5667 27.5067 26.0067 26.6667 26.82 26.08C27.6333 25.4933 28.6733 25.2 29.94 25.2C31.22 25.2 32.26 25.5467 33.06 26.24C33.86 26.9333 34.26 27.7933 34.26 28.82C34.26 29.8333 33.9933 30.64 33.46 31.24C32.94 31.84 32.22 32.32 31.3 32.68L28.76 33.7C28.12 33.9667 27.64 34.2733 27.32 34.62C27.0133 34.9533 26.86 35.3933 26.86 35.94V36.54Z" fill="white"/>
<path d="M41.5616 25.2C43.0816 25.2 44.2816 25.76 45.1616 26.88C46.0416 28 46.4816 29.6133 46.4816 31.72C46.4816 33.8133 46.0416 35.42 45.1616 36.54C44.2816 37.66 43.0816 38.22 41.5616 38.22C40.0416 38.22 38.8349 37.6667 37.9416 36.56C37.0616 35.4533 36.6216 33.84 36.6216 31.72C36.6216 29.5867 37.0616 27.9667 37.9416 26.86C38.8349 25.7533 40.0416 25.2 41.5616 25.2ZM44.8416 31.72C44.8416 30.08 44.5616 28.8267 44.0016 27.96C43.4416 27.08 42.6216 26.64 41.5416 26.64C40.4749 26.64 39.6616 27.08 39.1016 27.96C38.5416 28.8267 38.2616 30.08 38.2616 31.72C38.2616 33.3467 38.5416 34.6 39.1016 35.48C39.6616 36.3467 40.4749 36.78 41.5416 36.78C42.6216 36.78 43.4416 36.3467 44.0016 35.48C44.5616 34.6 44.8416 33.3467 44.8416 31.72Z" fill="white"/>
<path d="M48.4566 26.4C49.3499 26.28 50.1299 25.94 50.7966 25.38H52.0766V38H50.5166V27.26C49.8499 27.6867 49.1632 27.92 48.4566 27.96V26.4Z" fill="white"/>
<path d="M62.6577 25.24V33.6H64.8377V34.96H62.6577V38H61.1177V34.96H54.6177V33.74L61.1977 25.24H62.6577ZM56.4977 33.74H61.1577V27.74L56.4977 33.74Z" fill="white"/>
</g>
</g>
</svg>
