<svg width="1300" height="400" viewBox="0 0 1300 400" fill="none" xmlns="http://www.w3.org/2000/svg">
<g id="header">
<g clip-path="url(#clip0)">
<rect width="1300" height="400" fill="white"/>
<rect id="Rectangle" width="1300" height="400" fill="black" stroke="#979797"/>
<g id="nationbuilder-horizontal-white">
<g id="NationBuilder">
<path id="Vector" fill-rule="evenodd" clip-rule="evenodd" d="M519 177.978H526.558L551.421 209.887V177.978H559.443V224.127H552.614L527.022 191.295V224.127H519V177.978ZM592.063 209.557C591.047 209.161 589.842 208.832 588.45 208.568C587.058 208.304 585.588 208.173 584.041 208.173C581.522 208.173 579.555 208.656 578.14 209.623C576.726 210.59 576.019 211.908 576.019 213.579V213.71C576.019 215.381 576.671 216.655 577.975 217.534C579.278 218.413 580.881 218.853 582.781 218.853C584.107 218.853 585.334 218.677 586.461 218.325C587.588 217.973 588.572 217.479 589.411 216.842C590.251 216.205 590.903 215.435 591.367 214.534C591.831 213.634 592.063 212.633 592.063 211.535V209.557ZM591.865 224.127V219.842C590.671 221.248 589.146 222.435 587.29 223.402C585.433 224.368 583.179 224.852 580.527 224.852C578.847 224.852 577.256 224.621 575.753 224.16C574.251 223.698 572.936 223.017 571.809 222.116C570.681 221.215 569.776 220.095 569.09 218.754C568.405 217.413 568.063 215.864 568.063 214.106V213.974C568.063 212.04 568.416 210.359 569.123 208.931C569.83 207.503 570.814 206.316 572.074 205.371C573.333 204.425 574.836 203.722 576.582 203.261C578.328 202.799 580.218 202.569 582.251 202.569C584.373 202.569 586.173 202.701 587.654 202.964C589.135 203.228 590.561 203.58 591.931 204.019V203.36C591.931 200.943 591.191 199.097 589.71 197.822C588.229 196.547 586.096 195.91 583.312 195.91C581.323 195.91 579.555 196.108 578.008 196.503C576.46 196.899 574.892 197.426 573.3 198.086L571.112 191.691C573.058 190.811 575.047 190.108 577.079 189.581C579.112 189.054 581.566 188.79 584.439 188.79C589.654 188.79 593.522 190.075 596.041 192.647C598.561 195.218 599.821 198.833 599.821 203.492V224.127H591.865ZM621.103 224.72C619.645 224.72 618.296 224.545 617.059 224.193C615.821 223.841 614.749 223.27 613.843 222.479C612.937 221.688 612.241 220.643 611.755 219.347C611.268 218.051 611.025 216.436 611.025 214.502V196.174H606.583V189.317H611.025V179.758H619.048V189.317H628.463V196.174H619.048V213.249C619.048 214.787 619.423 215.897 620.175 216.578C620.927 217.26 621.987 217.6 623.357 217.6C625.081 217.6 626.739 217.205 628.33 216.413V222.94C627.313 223.511 626.231 223.951 625.081 224.259C623.932 224.566 622.606 224.72 621.103 224.72ZM637.015 224.127H645.038V189.317H637.015V224.127ZM636.684 183.977H645.303V176.396H636.684V183.977ZM672.287 217.996C673.923 217.996 675.393 217.699 676.696 217.106C678 216.512 679.116 215.71 680.045 214.699C680.973 213.688 681.68 212.513 682.166 211.172C682.653 209.831 682.895 208.414 682.895 206.92V206.788C682.895 205.249 682.63 203.799 682.1 202.437C681.569 201.075 680.829 199.888 679.879 198.877C678.928 197.866 677.801 197.064 676.497 196.47C675.194 195.877 673.746 195.58 672.155 195.58C670.564 195.58 669.116 195.877 667.812 196.47C666.508 197.064 665.392 197.855 664.464 198.844C663.536 199.833 662.829 201.009 662.342 202.371C661.856 203.733 661.613 205.162 661.613 206.656V206.788C661.613 208.327 661.878 209.765 662.409 211.106C662.939 212.447 663.679 213.634 664.63 214.666C665.58 215.699 666.707 216.512 668.011 217.106C669.315 217.699 670.74 217.996 672.287 217.996ZM672.155 224.918C669.503 224.918 667.039 224.446 664.762 223.501C662.486 222.555 660.519 221.27 658.861 219.644C657.204 218.018 655.911 216.106 654.983 213.908C654.055 211.71 653.591 209.381 653.591 206.92V206.788C653.591 204.283 654.065 201.932 655.016 199.734C655.967 197.536 657.27 195.613 658.928 193.965C660.585 192.317 662.552 191.009 664.829 190.043C667.105 189.076 669.591 188.592 672.287 188.592C674.983 188.592 677.47 189.064 679.746 190.01C682.023 190.955 683.989 192.251 685.647 193.899C687.305 195.547 688.597 197.459 689.526 199.635C690.454 201.811 690.918 204.151 690.918 206.656V206.788C690.918 209.25 690.443 211.578 689.492 213.776C688.542 215.974 687.238 217.897 685.581 219.545C683.923 221.193 681.945 222.501 679.647 223.468C677.349 224.434 674.851 224.918 672.155 224.918ZM699.073 189.317H707.095V194.723C707.67 193.889 708.299 193.108 708.985 192.383C709.67 191.658 710.466 191.009 711.372 190.438C712.278 189.867 713.272 189.416 714.355 189.087C715.438 188.757 716.665 188.592 718.035 188.592C722.013 188.592 725.085 189.801 727.251 192.218C729.416 194.635 730.499 197.888 730.499 201.975V224.127H722.477V204.349C722.477 201.623 721.825 199.525 720.521 198.053C719.218 196.58 717.372 195.844 714.985 195.844C712.642 195.844 710.742 196.602 709.283 198.119C707.825 199.635 707.095 201.755 707.095 204.481V224.127H699.073V189.317ZM762.655 216.941C765.44 216.941 767.628 216.413 769.219 215.359C770.81 214.304 771.606 212.721 771.606 210.612V210.48C771.606 208.502 770.821 206.975 769.252 205.898C767.683 204.821 765.285 204.283 762.059 204.283H749.13V216.941H762.655ZM760.269 197.426C762.921 197.426 765.042 196.91 766.633 195.877C768.225 194.844 769.02 193.273 769.02 191.163V191.031C769.02 189.185 768.324 187.746 766.932 186.713C765.539 185.681 763.517 185.164 760.865 185.164H749.13V197.426H760.269ZM741.108 177.978H761.926C767.274 177.978 771.318 179.34 774.059 182.065C776.137 184.131 777.175 186.68 777.175 189.713V189.845C777.175 191.251 776.987 192.493 776.612 193.57C776.236 194.647 775.75 195.591 775.153 196.404C774.556 197.218 773.849 197.932 773.031 198.547C772.213 199.163 771.385 199.69 770.545 200.129C771.915 200.613 773.164 201.174 774.291 201.811C775.418 202.448 776.39 203.206 777.208 204.085C778.026 204.964 778.656 205.997 779.098 207.184C779.54 208.37 779.761 209.755 779.761 211.337V211.469C779.761 213.535 779.352 215.359 778.534 216.941C777.716 218.523 776.556 219.842 775.054 220.896C773.551 221.951 771.739 222.753 769.617 223.303C767.495 223.852 765.152 224.127 762.589 224.127H741.108V177.978ZM800.115 224.852C796.137 224.852 793.065 223.643 790.899 221.226C788.734 218.809 787.651 215.556 787.651 211.469V189.317H795.673V209.095C795.673 211.821 796.325 213.919 797.629 215.392C798.933 216.864 800.778 217.6 803.165 217.6C805.508 217.6 807.408 216.842 808.867 215.326C810.326 213.809 811.055 211.689 811.055 208.964V189.317H819.077V224.127H811.055V218.721C809.905 220.391 808.469 221.83 806.745 223.039C805.022 224.248 802.811 224.852 800.115 224.852ZM829.619 224.127H837.642V189.317H829.619V224.127ZM829.288 183.977H837.907V176.396H829.288V183.977ZM848.581 224.127H856.604V176H848.581V224.127ZM883.455 217.93C884.781 217.93 886.063 217.666 887.301 217.139C888.538 216.611 889.621 215.853 890.549 214.864C891.478 213.875 892.218 212.699 892.771 211.337C893.323 209.975 893.599 208.458 893.599 206.788V206.656C893.599 204.986 893.323 203.459 892.771 202.074C892.218 200.69 891.478 199.514 890.549 198.547C889.621 197.58 888.538 196.833 887.301 196.306C886.063 195.778 884.781 195.514 883.455 195.514C882.085 195.514 880.793 195.767 879.577 196.273C878.361 196.778 877.289 197.515 876.361 198.481C875.433 199.448 874.704 200.624 874.173 202.008C873.643 203.393 873.378 204.942 873.378 206.656V206.788C873.378 208.458 873.643 209.986 874.173 211.37C874.704 212.754 875.433 213.93 876.361 214.897C877.289 215.864 878.361 216.611 879.577 217.139C880.793 217.666 882.085 217.93 883.455 217.93ZM881.533 224.852C879.455 224.852 877.444 224.457 875.499 223.665C873.554 222.874 871.83 221.71 870.328 220.171C868.825 218.633 867.609 216.743 866.681 214.502C865.753 212.26 865.289 209.689 865.289 206.788V206.656C865.289 203.755 865.742 201.184 866.648 198.943C867.554 196.701 868.759 194.812 870.261 193.273C871.764 191.734 873.499 190.57 875.466 189.779C877.433 188.988 879.455 188.592 881.533 188.592C884.406 188.592 886.793 189.208 888.693 190.438C890.593 191.668 892.185 193.097 893.467 194.723V176H901.489V224.127H893.467V218.325C892.185 220.128 890.583 221.665 888.66 222.94C886.737 224.215 884.361 224.852 881.533 224.852ZM935.501 204.283C935.369 203.008 935.081 201.811 934.639 200.69C934.198 199.569 933.601 198.602 932.849 197.789C932.098 196.976 931.203 196.328 930.164 195.844C929.126 195.36 927.943 195.119 926.617 195.119C924.142 195.119 922.098 195.965 920.484 197.657C918.871 199.349 917.888 201.558 917.534 204.283H935.501ZM927.545 224.918C925.026 224.918 922.672 224.479 920.484 223.599C918.296 222.72 916.396 221.49 914.782 219.908C913.169 218.325 911.898 216.424 910.97 214.205C910.042 211.986 909.578 209.535 909.578 206.854V206.722C909.578 204.217 909.998 201.866 910.838 199.668C911.677 197.47 912.86 195.547 914.385 193.899C915.91 192.251 917.71 190.955 919.788 190.01C921.866 189.064 924.164 188.592 926.683 188.592C929.468 188.592 931.91 189.097 934.01 190.108C936.109 191.12 937.855 192.482 939.247 194.196C940.64 195.91 941.69 197.899 942.397 200.162C943.104 202.426 943.458 204.81 943.458 207.315C943.458 207.667 943.447 208.03 943.424 208.403C943.402 208.777 943.369 209.161 943.325 209.557H917.6C918.042 212.414 919.181 214.6 921.015 216.117C922.849 217.633 925.07 218.391 927.678 218.391C929.667 218.391 931.391 218.039 932.849 217.336C934.308 216.633 935.744 215.6 937.159 214.238L941.866 218.391C940.186 220.369 938.187 221.951 935.866 223.138C933.546 224.325 930.772 224.918 927.545 224.918ZM951.546 189.317H959.569V197.163C960.673 194.526 962.243 192.416 964.276 190.834C966.309 189.251 968.873 188.526 971.967 188.658V197.097H971.503C969.735 197.097 968.121 197.383 966.663 197.954C965.204 198.525 963.944 199.382 962.884 200.525C961.823 201.668 961.005 203.107 960.431 204.843C959.856 206.58 959.569 208.59 959.569 210.876V224.127H951.546V189.317Z" fill="white"/>
</g>
<g id="Mark">
<g id="Circle">
<path id="Base-plate" d="M412.057 283C441.681 283 469.053 267.181 483.865 241.5C498.677 215.819 498.677 184.181 483.865 158.5C469.053 132.819 441.681 117 412.057 117C382.433 117 355.062 132.819 340.25 158.5C325.438 184.181 325.438 215.819 340.25 241.5C355.062 267.181 382.433 283 412.057 283V275.037C385.276 275.037 360.529 260.734 347.137 237.518C333.745 214.303 333.745 185.697 347.137 162.482C360.529 139.266 385.276 124.963 412.057 124.963C438.839 124.963 463.585 139.266 476.977 162.482C490.369 185.697 490.369 214.303 476.977 237.518C463.585 260.734 438.839 275.037 412.057 275.037V283Z" fill="#455A64" fill-opacity="0.01"/>
<path id="Segment-1" d="M412.057 283C437.29 283 461.153 271.499 476.885 251.751L470.665 246.786C456.441 264.639 434.87 275.037 412.057 275.037V283Z" fill="#CE001B"/>
<path id="Segment-2" d="M476.886 251.751C492.618 232.002 498.511 206.156 492.897 181.532L485.141 183.302C490.217 205.565 484.89 228.934 470.665 246.786L476.886 251.751Z" fill="#780011"/>
<path id="Segment-3" d="M492.897 181.532C487.282 156.907 470.766 136.179 448.033 125.22L444.582 132.393C465.136 142.301 480.065 161.039 485.141 183.302L492.897 181.532Z" fill="#6D7096"/>
<path id="Segment-4" d="M448.033 125.22C425.299 114.262 398.815 114.262 376.082 125.22L379.533 132.393C400.088 122.485 424.027 122.485 444.582 132.393L448.033 125.22Z" fill="#60BBD5"/>
<path id="Segment-5" d="M376.082 125.22C353.348 136.179 336.832 156.907 331.218 181.532L338.974 183.302C344.05 161.039 358.978 142.301 379.533 132.393L376.082 125.22Z" fill="#0F99BE"/>
<path id="Segment-6" d="M331.218 181.532C325.603 206.156 331.496 232.002 347.229 251.751L353.449 246.786C339.225 228.934 333.898 205.565 338.974 183.302L331.218 181.532Z" fill="#8C9D26"/>
<path id="Segment-7" d="M347.229 251.751C362.962 271.499 386.824 283 412.057 283V275.037C389.244 275.037 367.674 264.639 353.449 246.786L347.229 251.751Z" fill="#FCD813"/>
</g>
<path id="Octothorpe" fill-rule="evenodd" clip-rule="evenodd" d="M375.314 213.35V220.646H388.617L384.799 244.526H393.447L397.431 220.646H419.818L415.834 244.526H424.489L428.473 220.646H444.038V213.35H429.586L434.278 186.319H448.852V178.856H435.552L439.37 155.474H430.55L426.732 178.856H404.351L408.335 155.474H399.508L395.69 178.856H380.128V186.319H394.414L389.722 213.35H375.314ZM402.912 186.319H425.467L421.087 213.35H398.533L402.912 186.319Z" fill="white"/>
</g>
</g>
</g>
</g>
<defs>
<clipPath id="clip0">
<rect width="1300" height="400" fill="white"/>
</clipPath>
</defs>
</svg>
