<svg height="400" viewBox="0 0 1300 400" width="1300" xmlns="http://www.w3.org/2000/svg" xmlns:xlink="http://www.w3.org/1999/xlink"><mask id="a" fill="#fff"/><g fill="none" fill-rule="evenodd"><path d="m0 0h1300v400h-1300z" fill="#000" stroke="#979797"/><g fill-rule="nonzero"><path d="m-.04972558 48.9839636h453.09945158v-49.04989087h-453.09945158z" fill="#fff" mask="url(#a)" transform="translate(519 176)"/><g transform="translate(329 117)"><g transform="matrix(1 0 0 -1 0 166)"><path d="m83.0572159 0c29.6237341 0 56.9955501 15.8190037 71.8074181 41.5 14.811866 25.6809963 14.811866 57.3190037 0 83-14.811868 25.680996-42.183684 41.5-71.8074181 41.5-29.6237342 0-56.9955506-15.819004-71.8074177-41.5-14.81186714-25.6809963-14.81186714-57.3190037 0-83 14.8118671-25.6809963 42.1836835-41.5 71.8074177-41.5v7.96309963c-26.7812999 0-51.5279186 14.30295197-64.9200984 37.51845017-13.39217977 23.2154981-13.39217977 51.8214023 0 75.0369002 13.3921798 23.215498 38.1387985 37.51845 64.9200984 37.51845 26.7813001 0 51.5279181-14.302952 64.9200981-37.51845 13.39218-23.2154979 13.39218-51.8214021 0-75.0369002-13.39218-23.2154982-38.138798-37.51845017-64.9200981-37.51845017z" fill="#455a64" fill-opacity=".002"/><path d="m83.0572159 0c25.2331061 0 49.0954801 11.5005535 64.8283081 31.2490405l-6.220311 4.9646865c-14.22441-17.8526569-35.795091-28.25062737-58.6079971-28.25062737z" fill="#ce001b"/><path d="m147.885524 31.2490405c15.732828 19.7484872 21.625754 45.5948709 16.011258 70.2192255l-7.756266-1.7702586c5.075994-22.2629889-.250893-45.6316236-14.475303-63.4842804z" fill="#780011"/><path d="m163.896782 101.468266c-5.614496 24.624354-22.1306 45.352915-44.863955 56.311365l-3.451309-7.172915c20.55487-9.907934 35.483004-28.64572 40.558998-50.9087086z" fill="#6d7096"/><path d="m119.032827 157.779631c-22.7333552 10.958449-49.217867 10.958449-71.9512223 0l3.4513089-7.172915c20.5548695 9.907934 44.4937351 9.907934 65.0486044 0z" fill="#60bbd5"/><path d="m47.0816048 157.779631c-22.7333553-10.95845-39.24945908-31.687011-44.86395529-56.311365l7.75626587-1.7702586c5.07599412 22.2629886 20.00412872 41.0007746 40.55899822 50.9087086z" fill="#0f99be"/><path d="m2.21764951 101.468266c-5.61449621-24.6243546.27843006-50.4707383 16.01125819-70.2192255l6.220311 4.9646865c-14.2244103 17.8526568-19.55129743 41.2212915-14.47530332 63.4842804z" fill="#8c9d26"/><path d="m18.2289077 31.2490405c15.732828-19.748487 39.5952018-31.2490405 64.8283082-31.2490405v7.96309963c-22.8129068 0-44.383587 10.39797047-58.6079972 28.25062737z" fill="#fcd813"/></g><path d="m46.314 103.64625v-7.296696h14.4075435l4.6921388-27.030942h-14.2856823v-7.46253h15.5624202l3.818-23.382594h8.8267941l-3.984 23.382594h22.3812059l3.8179998-23.382594h8.81994l-3.818 23.382594h13.29964v7.46253h-14.573544l-4.692138 27.030942h14.451682v7.296696h-15.5648846l-3.984 23.880096h-8.6548975l3.984-23.880096h-22.3871025l-3.984 23.880096h-8.6482052l3.818-23.880096zm50.1528639-34.327638h-22.5543984l-4.3793294 27.030942h22.5543984z" fill="#fff"/></g></g></g></svg>