<svg width="500" height="300" viewBox="0 0 500 300" fill="none" xmlns="http://www.w3.org/2000/svg">
<g id="nationbuilder_rebrand2">
<rect width="500" height="300" fill="white"/>
<rect id="Rectangle" width="500" height="300" fill="black"/>
<g id="Mark">
<g id="Circle">
<path id="Base-plate" d="M250.058 225.016C276.832 225.016 301.571 210.719 314.958 187.508C328.345 164.297 328.345 135.703 314.958 112.492C301.571 89.2813 276.832 74.984 250.058 74.984C223.283 74.984 198.545 89.2813 185.157 112.492C171.77 135.703 171.77 164.297 185.157 187.508C198.545 210.719 223.283 225.016 250.058 225.016V217.819C225.852 217.819 203.486 204.892 191.382 183.909C179.278 162.927 179.278 137.073 191.382 116.091C203.486 95.1082 225.852 82.1811 250.058 82.1811C274.263 82.1811 296.629 95.1082 308.733 116.091C320.837 137.073 320.837 162.927 308.733 183.909C296.629 204.892 274.263 217.819 250.058 217.819V225.016Z" fill="#455A64" fill-opacity="0.01"/>
<path id="Segment-1" d="M250.057 225.016C272.863 225.016 294.43 214.622 308.65 196.773L303.028 192.286C290.171 208.421 270.676 217.819 250.057 217.819V225.016Z" fill="#CE001B"/>
<path id="Segment-2" d="M308.65 196.773C322.869 178.924 328.195 155.564 323.121 133.308L316.11 134.908C320.698 155.03 315.884 176.15 303.028 192.286L308.65 196.773Z" fill="#780011"/>
<path id="Segment-3" d="M323.121 133.308C318.046 111.053 303.119 92.3179 282.572 82.4136L279.453 88.8965C298.031 97.8514 311.523 114.787 316.111 134.908L323.121 133.308Z" fill="#6D7096"/>
<path id="Segment-4" d="M282.572 82.4136C262.026 72.5093 238.089 72.5093 217.542 82.4136L220.662 88.8965C239.239 79.9417 260.875 79.9417 279.453 88.8965L282.572 82.4136Z" fill="#60BBD5"/>
<path id="Segment-5" d="M217.542 82.4136C196.996 92.3179 182.068 111.053 176.994 133.308L184.004 134.908C188.592 114.787 202.084 97.8514 220.661 88.8965L217.542 82.4136Z" fill="#0F99BE"/>
<path id="Segment-6" d="M176.994 133.308C171.919 155.564 177.245 178.924 191.465 196.773L197.087 192.286C184.231 176.15 179.416 155.03 184.004 134.908L176.994 133.308Z" fill="#8C9D26"/>
<path id="Segment-7" d="M191.465 196.773C205.684 214.622 227.251 225.016 250.057 225.016V217.819C229.439 217.819 209.943 208.421 197.087 192.286L191.465 196.773Z" fill="#FCD813"/>
</g>
<path id="Octothorpe" fill-rule="evenodd" clip-rule="evenodd" d="M216.848 162.065V168.66H228.872L225.421 190.243H233.237L236.838 168.66H257.072L253.471 190.243H261.293L264.894 168.66H278.962V162.065H265.9L270.141 137.635H283.313V130.89H271.292L274.743 109.757H266.771L263.321 130.89H243.092L246.693 109.757H238.715L235.265 130.89H221.199V137.635H234.111L229.87 162.065H216.848ZM241.792 137.635H262.177L258.219 162.065H237.834L241.792 137.635Z" fill="white"/>
</g>
<g id="2017">
<path d="M26.86 36.54H34.16V38H25.28V36.14C25.28 34.66 25.84 33.5733 26.96 32.88C27.32 32.6533 27.72 32.4533 28.16 32.28L30.64 31.28C31.92 30.7733 32.56 29.94 32.56 28.78C32.56 28.14 32.34 27.62 31.9 27.22C31.46 26.8067 30.84 26.6 30.04 26.6C29.2534 26.6 28.6067 26.7667 28.1 27.1C27.6067 27.4333 27.32 27.9333 27.24 28.6H25.5C25.5667 27.5067 26.0067 26.6667 26.82 26.08C27.6334 25.4933 28.6734 25.2 29.94 25.2C31.22 25.2 32.26 25.5467 33.06 26.24C33.86 26.9333 34.26 27.7933 34.26 28.82C34.26 29.8333 33.9934 30.64 33.46 31.24C32.94 31.84 32.22 32.32 31.3 32.68L28.76 33.7C28.12 33.9667 27.64 34.2733 27.32 34.62C27.0134 34.9533 26.86 35.3933 26.86 35.94V36.54Z" fill="white"/>
<path d="M41.5616 25.2C43.0816 25.2 44.2816 25.76 45.1616 26.88C46.0416 28 46.4816 29.6133 46.4816 31.72C46.4816 33.8133 46.0416 35.42 45.1616 36.54C44.2816 37.66 43.0816 38.22 41.5616 38.22C40.0416 38.22 38.8349 37.6667 37.9416 36.56C37.0616 35.4533 36.6216 33.84 36.6216 31.72C36.6216 29.5867 37.0616 27.9667 37.9416 26.86C38.8349 25.7533 40.0416 25.2 41.5616 25.2ZM44.8416 31.72C44.8416 30.08 44.5616 28.8267 44.0016 27.96C43.4416 27.08 42.6216 26.64 41.5416 26.64C40.4749 26.64 39.6616 27.08 39.1016 27.96C38.5416 28.8267 38.2616 30.08 38.2616 31.72C38.2616 33.3467 38.5416 34.6 39.1016 35.48C39.6616 36.3467 40.4749 36.78 41.5416 36.78C42.6216 36.78 43.4416 36.3467 44.0016 35.48C44.5616 34.6 44.8416 33.3467 44.8416 31.72Z" fill="white"/>
<path d="M48.4566 26.4C49.3499 26.28 50.1299 25.94 50.7966 25.38H52.0766V38H50.5166V27.26C49.8499 27.6867 49.1633 27.92 48.4566 27.96V26.4Z" fill="white"/>
<path d="M63.1377 25.42V26.88L57.3777 38H55.2577L61.2977 26.94H54.5777V25.42H63.1377Z" fill="white"/>
</g>
</g>
</svg>
